<svg width="152" height="152" viewBox="0 0 152 152" fill="none" xmlns="http://www.w3.org/2000/svg">
<path d="M75.75 140.41C111.422 140.41 140.34 111.492 140.34 75.82C140.34 40.1479 111.422 11.23 75.75 11.23C40.078 11.23 11.16 40.1479 11.16 75.82C11.16 111.492 40.078 140.41 75.75 140.41Z" fill="#E8E8E8"/>
<path d="M75.75 140.41C111.422 140.41 140.34 111.492 140.34 75.82C140.34 40.1479 111.422 11.23 75.75 11.23C40.078 11.23 11.16 40.1479 11.16 75.82C11.16 111.492 40.078 140.41 75.75 140.41Z" fill="#E8E8E8"/>
<path d="M83 57.6397C82.6542 57.6299 82.319 57.5184 82.0362 57.3191C81.7534 57.1199 81.5356 56.8417 81.41 56.5193C81.2845 56.197 81.2567 55.8448 81.3301 55.5068C81.4036 55.1687 81.575 54.8598 81.823 54.6186C82.071 54.3775 82.3846 54.2148 82.7246 54.1508C83.0646 54.0868 83.4159 54.1245 83.7345 54.259C84.0532 54.3936 84.3252 54.6191 84.5165 54.9073C84.7078 55.1956 84.8098 55.5338 84.81 55.8797C84.8021 56.3527 84.6073 56.8034 84.2681 57.1332C83.9289 57.463 83.473 57.6451 83 57.6397ZM68.53 57.6397C68.1842 57.6299 67.849 57.5184 67.5662 57.3191C67.2834 57.1199 67.0656 56.8417 66.94 56.5193C66.8145 56.197 66.7867 55.8448 66.8601 55.5068C66.9336 55.1687 67.105 54.8598 67.353 54.6186C67.601 54.3775 67.9146 54.2148 68.2546 54.1508C68.5946 54.0868 68.9459 54.1245 69.2645 54.259C69.5832 54.3936 69.8552 54.6191 70.0465 54.9073C70.2378 55.1956 70.3398 55.5338 70.34 55.8797C70.3374 56.1144 70.2884 56.3461 70.1959 56.5618C70.1034 56.7774 69.9692 56.9726 69.801 57.1362C69.6328 57.2997 69.4339 57.4284 69.2158 57.5148C68.9976 57.6013 68.7646 57.6437 68.53 57.6397ZM84.07 50.6397L84.74 49.6397L85.42 48.6397L86.92 46.4397C86.9627 46.3756 86.9922 46.3036 87.0068 46.228C87.0214 46.1523 87.0207 46.0745 87.0049 45.9991C86.9891 45.9237 86.9584 45.8522 86.9146 45.7888C86.8708 45.7253 86.8149 45.6713 86.75 45.6297C86.6173 45.5425 86.4554 45.5114 86.2998 45.5432C86.1443 45.5751 86.0077 45.6673 85.92 45.7997L83.63 49.1397L82.94 50.1397C78.3123 48.4329 73.2276 48.4329 68.6 50.1397L67.91 49.1397L67.23 48.1397L65.6 45.7797C65.5104 45.6467 65.3721 45.5542 65.2149 45.5224C65.0576 45.4906 64.8942 45.5219 64.76 45.6097C64.6948 45.6511 64.6387 45.7053 64.5951 45.7691C64.5515 45.8328 64.5213 45.9047 64.5064 45.9805C64.4914 46.0562 64.492 46.1342 64.5081 46.2097C64.5242 46.2852 64.5554 46.3567 64.6 46.4197L66.1 48.6197L66.77 49.6197L67.45 50.6197C62.33 52.9397 58.87 57.3297 58.87 62.3597H92.62C92.62 57.2997 89.16 52.9097 84.05 50.5897L84.07 50.6397ZM59.13 64.6797H58.87V90.4897C58.8858 91.4879 59.2968 92.439 60.0129 93.1345C60.7291 93.83 61.6918 94.2131 62.69 94.1997H65.45C65.3479 94.5232 65.2973 94.8606 65.3 95.1997V102.63C65.3487 103.556 65.7508 104.428 66.4234 105.066C67.096 105.704 67.9878 106.06 68.915 106.06C69.8421 106.06 70.734 105.704 71.4066 105.066C72.0792 104.428 72.4813 103.556 72.53 102.63V95.1797C72.5309 94.8415 72.4838 94.5048 72.39 94.1797H79.1C79.0062 94.5048 78.959 94.8415 78.96 95.1797V102.61C78.96 103.57 79.3414 104.491 80.0203 105.169C80.6991 105.848 81.6199 106.23 82.58 106.23C83.5401 106.23 84.4608 105.848 85.1397 105.169C85.8186 104.491 86.2 103.57 86.2 102.61V95.1797C86.1975 94.841 86.147 94.5043 86.05 94.1797H88.81C89.3038 94.1864 89.794 94.0956 90.2527 93.9128C90.7114 93.7299 91.1296 93.4584 91.4834 93.1139C91.8372 92.7694 92.1197 92.3586 92.3147 91.9049C92.5097 91.4512 92.6135 90.9635 92.62 90.4697V64.6797H59.13ZM52.84 64.6797C52.3725 64.6731 51.9082 64.7587 51.4738 64.9315C51.0393 65.1043 50.6432 65.361 50.3079 65.687C49.9727 66.0129 49.705 66.4017 49.52 66.8311C49.3351 67.2606 49.2365 67.7222 49.23 68.1897V83.2497C49.2787 84.1756 49.6808 85.0475 50.3534 85.6857C51.026 86.3238 51.9178 86.6795 52.845 86.6795C53.7721 86.6795 54.664 86.3238 55.3366 85.6857C56.0092 85.0475 56.4113 84.1756 56.46 83.2497V68.1897C56.4535 67.7214 56.3546 67.2589 56.169 66.8288C55.9834 66.3987 55.7148 66.0095 55.3785 65.6834C55.0422 65.3573 54.6449 65.1008 54.2093 64.9286C53.7736 64.7564 53.3083 64.6718 52.84 64.6797ZM98.65 64.6797C98.1791 64.6678 97.7106 64.7494 97.2715 64.9198C96.8324 65.0902 96.4315 65.3461 96.092 65.6726C95.7525 65.999 95.4812 66.3896 95.2938 66.8217C95.1063 67.2538 95.0064 67.7188 95 68.1897V83.2497C95 84.2098 95.3814 85.1306 96.0603 85.8095C96.7391 86.4883 97.6599 86.8697 98.62 86.8697C99.5801 86.8697 100.501 86.4883 101.18 85.8095C101.859 85.1306 102.24 84.2098 102.24 83.2497V68.1897C102.227 67.2491 101.842 66.3518 101.169 65.6941C100.496 65.0364 99.5907 64.6717 98.65 64.6797Z" fill="#38AA71"/>
</svg>
