<svg width="24" height="24" viewBox="0 0 24 24" fill="none" xmlns="http://www.w3.org/2000/svg">
<g clip-path="url(#clip0_629_135)">
<path d="M11.956 24.004V19.333C13.1557 19.3349 14.3377 19.0435 15.3991 18.4842C16.4605 17.9249 17.369 17.1146 18.0456 16.1238C18.7222 15.1331 19.1464 13.992 19.2812 12.7999C19.416 11.6078 19.2573 10.4007 18.819 9.28396C18.4715 8.32493 17.9176 7.45396 17.1963 6.73269C16.475 6.01141 15.604 5.45744 14.645 5.10996C13.5319 4.69166 12.3343 4.54852 11.154 4.69271C9.97365 4.8369 8.84566 5.26415 7.86602 5.9381C6.88637 6.61205 6.08408 7.51273 5.52744 8.56347C4.9708 9.61421 4.6763 10.7839 4.669 11.973H0C0 4.18796 7.57 -1.96804 15.846 0.579958C17.6246 1.13871 19.2417 2.11903 20.5598 3.43743C21.8778 4.75583 22.8577 6.37326 23.416 8.15196C25.964 16.432 19.808 24.004 11.956 24.004Z" fill="#0080FF"/>
<path d="M7.35705 14.7329H12.0261V19.3329H7.35705V14.7329ZM7.35705 22.9429H3.82005V19.3329H7.35705V22.9429ZM0.852051 16.3609H3.82005V19.3329H0.852051V16.3609Z" fill="#0080FF"/>
</g>
<defs>
<clipPath id="clip0_629_135">
<rect width="24" height="24" fill="white"/>
</clipPath>
</defs>
</svg>
