<svg width="24" height="24" viewBox="0 0 24 24" fill="none" xmlns="http://www.w3.org/2000/svg">
<path d="M12.465 9.13886H14.917V11.6459H16.157C16.73 11.6459 17.318 11.5439 17.861 11.3599C18.127 11.2689 18.427 11.1439 18.689 10.9849C18.343 10.5339 18.166 9.96286 18.114 9.39986C18.043 8.63486 18.198 7.63886 18.715 7.03986L18.973 6.74186L19.28 6.98986C20.053 7.61086 20.704 8.47986 20.819 9.46886C21.75 9.19486 22.843 9.25986 23.664 9.73386L24 9.92786L23.823 10.2739C23.129 11.6289 21.678 12.0479 20.259 11.9739C18.136 17.2619 13.514 19.7649 7.90997 19.7649C5.01497 19.7649 2.35897 18.6819 0.845966 16.1129L0.820966 16.0719L0.600966 15.6229C0.0899663 14.4919 -0.0800338 13.2539 0.0349662 12.0159L0.0689662 11.6449H2.16597V9.13886H4.61797V6.68686H9.52197V4.23486H12.465V9.13886Z" fill="#364548"/>
<path d="M20.409 10.0671C20.574 8.78908 19.617 7.78608 19.024 7.30908C18.341 8.09908 18.235 10.1701 19.307 11.0411C18.708 11.5731 17.448 12.0541 16.157 12.0541H0.440954C0.314954 13.4021 0.551954 14.6431 1.09295 15.7051L1.27195 16.0321C1.38495 16.2241 1.50895 16.4091 1.64295 16.5881C2.28895 16.6291 2.88395 16.6441 3.42895 16.6311C4.49995 16.6071 5.37395 16.4811 6.03695 16.2511C6.13695 16.2201 6.24195 16.2761 6.27295 16.3751C6.30195 16.4701 6.25295 16.5721 6.15995 16.6071C6.07195 16.6381 5.97995 16.6661 5.88495 16.6931C5.36295 16.8421 4.80395 16.9421 4.08295 16.9871L4.03795 16.9931L3.95795 17.0001C3.67395 17.0161 3.36795 17.0191 3.05395 17.0191C2.71095 17.0191 2.37395 17.0131 1.99695 16.9931L1.98695 17.0001C3.29695 18.4721 5.34395 19.3541 7.90995 19.3541C13.341 19.3541 17.948 16.9471 19.988 11.5411C21.436 11.6891 22.826 11.3201 23.459 10.0851C22.451 9.50608 21.155 9.69208 20.409 10.0671Z" fill="#37B1D9"/>
<path d="M8.57506 6.68701H4.61806V9.13901H2.16606V11.646H0.0690607L0.0350607 12.017C-0.0799393 13.255 0.0890607 14.493 0.601061 15.624L0.821061 16.073L0.846061 16.114C2.35906 18.683 5.01506 19.766 7.91006 19.766C8.13306 19.766 8.35506 19.762 8.57506 19.754V19.345C8.47506 19.349 8.37506 19.352 8.27506 19.354C8.26006 19.354 8.24506 19.355 8.23006 19.355C8.23006 19.355 8.22706 19.355 8.22506 19.355C8.14306 19.356 8.06006 19.357 7.97806 19.358C7.97506 19.358 7.97206 19.358 7.96906 19.358C7.94906 19.358 7.93006 19.358 7.91106 19.358C7.60406 19.358 7.30506 19.345 7.01406 19.321C4.54306 19.124 3.10306 18.178 1.90906 16.984C2.30806 17.005 2.68906 17.016 3.05106 17.016C3.36406 17.016 3.66206 17.007 3.94606 16.992C4.69906 16.95 5.34806 16.851 5.88706 16.697C5.98206 16.67 6.07406 16.642 6.16206 16.611C6.25506 16.575 6.30406 16.474 6.27506 16.379C6.25006 16.298 6.17506 16.246 6.09506 16.246C6.07606 16.246 6.05706 16.249 6.03906 16.255C5.37606 16.484 4.50306 16.611 3.43106 16.635C3.30606 16.638 3.17906 16.639 3.04906 16.639C2.61106 16.639 2.14306 16.623 1.64506 16.591C1.51106 16.412 1.38706 16.227 1.27406 16.035L1.09506 15.708C0.555061 14.646 0.318061 13.405 0.443061 12.057H8.57606V6.68701H8.57506Z" fill="#2F3C3F"/>
<path d="M8.22995 19.3532C8.22795 19.3532 8.22695 19.3532 8.22495 19.3532C8.22595 19.3532 8.22795 19.3532 8.22995 19.3532ZM7.01295 19.3192C7.30495 19.3442 7.60395 19.3562 7.90995 19.3562C7.59595 19.3542 7.29695 19.3412 7.01295 19.3192ZM8.57495 12.0542H0.440954C0.314954 13.4022 0.551954 14.6432 1.09295 15.7052L1.27195 16.0322C1.38495 16.2242 1.50895 16.4092 1.64295 16.5882C2.14095 16.6202 2.60895 16.6362 3.04695 16.6362C3.17695 16.6362 3.30495 16.6352 3.42895 16.6322C4.49995 16.6082 5.37395 16.4822 6.03695 16.2522C6.05595 16.2462 6.07495 16.2432 6.09295 16.2432C6.17295 16.2432 6.24695 16.2952 6.27295 16.3762C6.30195 16.4712 6.25295 16.5732 6.15995 16.6082C6.07195 16.6392 5.97995 16.6672 5.88495 16.6942C6.32795 17.7162 7.12495 18.6522 8.57495 19.3412V12.0542Z" fill="#309ABD"/>
<path d="M8.57696 19.3428C7.12496 18.6538 6.32796 17.7178 5.88496 16.6948C5.34596 16.8488 4.69696 16.9478 3.94396 16.9898C3.65996 17.0058 3.36196 17.0138 3.04896 17.0138C2.68796 17.0138 2.30696 17.0038 1.90796 16.9818C3.23996 18.3128 4.87796 19.3368 7.91096 19.3558C8.13396 19.3558 8.35596 19.3518 8.57696 19.3428Z" fill="#D3ECEC"/>
<path d="M4.86298 16.9038C4.57598 16.9428 4.26998 16.9718 3.94298 16.9908C3.65898 17.0068 3.36098 17.0148 3.04798 17.0148C2.68698 17.0148 2.30598 17.0048 1.90698 16.9828C2.70398 17.7798 3.61198 18.4668 4.86298 18.8938V16.9038Z" fill="#B8CDCD"/>
<path d="M7.01899 15.1192C7.34299 15.1142 7.60799 15.3742 7.61299 15.6972C7.61699 16.0212 7.35799 16.2872 7.03399 16.2912H7.01899C6.69499 16.2872 6.43599 16.0212 6.44099 15.6972C6.44399 15.3792 6.70099 15.1232 7.01899 15.1192Z" fill="#D3ECEC"/>
<path d="M7.01905 15.2852L7.17105 15.3132L7.10805 15.5472L7.25605 15.6322L7.40705 15.5432C7.49605 15.7572 7.39405 16.0032 7.18005 16.0912C6.96605 16.1812 6.72005 16.0792 6.63205 15.8652C6.54305 15.6512 6.64505 15.4052 6.85805 15.3162L7.01905 15.2852Z" fill="#364548"/>
<path d="M7.01899 15.1191C6.70099 15.1231 6.44399 15.3801 6.44099 15.6971C6.43599 16.0211 6.69499 16.2871 7.01899 16.2911V16.1251C6.85499 16.1251 6.69799 16.0271 6.63099 15.8661C6.54199 15.6521 6.64399 15.4061 6.85699 15.3171L7.01799 15.2851L7.01899 15.1191Z" fill="#B8CDCD"/>
<path d="M7.01894 15.2852L6.85794 15.3172C6.64394 15.4062 6.54294 15.6522 6.63194 15.8662C6.69894 16.0272 6.85494 16.1252 7.01894 16.1252V15.2852Z" fill="#2F3C3F"/>
<path d="M2.57495 9.54785H4.69995V11.6729H2.57495V9.54785Z" fill="#23A3C2"/>
<path d="M2.75098 9.7251H2.91898V11.4961H2.75098V9.7251Z" fill="#23A3C2"/>
<path d="M3.06702 9.7251H3.24102V11.4961H3.06702V9.7251Z" fill="#23A3C2"/>
<path d="M3.38904 9.7251H3.56304V11.4961H3.38904V9.7251Z" fill="#23A3C2"/>
<path d="M3.71106 9.7251H3.88506V11.4961H3.71106V9.7251Z" fill="#23A3C2"/>
<path d="M4.03296 9.7251H4.20696V11.4961H4.03296V9.7251Z" fill="#23A3C2"/>
<path d="M4.35498 9.7251H4.52198V11.4961H4.35498V9.7251Z" fill="#23A3C2"/>
<path d="M5.20398 7.27295H5.37198V9.04395H5.20398V7.27295Z" fill="#23A3C2"/>
<path d="M5.51904 7.27295H5.69304V9.04395H5.51904V7.27295Z" fill="#23A3C2"/>
<path d="M5.84094 7.27295H6.01494V9.04395H5.84094V7.27295Z" fill="#23A3C2"/>
<path d="M6.16296 7.27295H6.33696V9.04395H6.16296V7.27295Z" fill="#23A3C2"/>
<path d="M6.48499 7.27295H6.65999V9.04395H6.48499V7.27295Z" fill="#23A3C2"/>
<path d="M6.80701 7.27295H6.97401V9.04395H6.80701V7.27295Z" fill="#23A3C2"/>
<path d="M3.56995 9.54785H2.57495V11.6729H3.56995V9.54785Z" fill="#1E8EA9"/>
<path d="M5.026 9.54785H7.151V11.6729H5.026V9.54785ZM5.204 9.72485H5.372V11.4959H5.204V9.72485ZM5.519 9.72485H5.693V11.4959H5.519V9.72485ZM5.841 9.72485H6.015V11.4959H5.841V9.72485ZM6.163 9.72485H6.337V11.4959H6.163V9.72485ZM6.485 9.72485H6.66V11.4959H6.485V9.72485ZM6.807 9.72485H6.974V11.4959H6.807V9.72485Z" fill="#34BBDE"/>
<path d="M5.026 7.09619H7.152V9.22119H5.026V7.09619Z" fill="#23A3C2"/>
<path d="M6.089 9.54785H5.026V11.6729H6.089V9.54785Z" fill="#2DA3C1"/>
<path d="M6.089 7.09619H5.026V9.22119H6.089V7.09619Z" fill="#1E8EA9"/>
<path d="M7.479 9.54785H9.605V11.6729H7.479V9.54785ZM7.656 9.72485H7.823V11.4959H7.656V9.72485ZM7.971 9.72485H8.145V11.4959H7.971V9.72485ZM8.293 9.72485H8.467V11.4959H8.293V9.72485ZM8.615 9.72485H8.79V11.4959H8.615V9.72485ZM8.937 9.72485H9.112V11.4959H8.937V9.72485ZM9.259 9.72485H9.426V11.4959H9.259V9.72485Z" fill="#23A3C2"/>
<path d="M7.479 7.09619H9.604V9.22119H7.479V7.09619Z" fill="#34BBDE"/>
<path d="M7.65601 7.27295H7.82301V9.04395H7.65601V7.27295Z" fill="#34BBDE"/>
<path d="M7.97095 7.27295H8.14595V9.04395H7.97095V7.27295Z" fill="#34BBDE"/>
<path d="M8.29297 7.27295H8.46697V9.04395H8.29297V7.27295Z" fill="#34BBDE"/>
<path d="M8.61499 7.27295H8.78999V9.04395H8.61499V7.27295Z" fill="#34BBDE"/>
<path d="M8.93701 7.27295H9.11201V9.04395H8.93701V7.27295Z" fill="#34BBDE"/>
<path d="M9.25903 7.27295H9.42703V9.04395H9.25903V7.27295Z" fill="#34BBDE"/>
<path d="M10.108 9.7251H10.275V11.4961H10.108V9.7251Z" fill="#34BBDE"/>
<path d="M10.423 9.7251H10.598V11.4961H10.423V9.7251Z" fill="#34BBDE"/>
<path d="M10.745 9.7251H10.919V11.4961H10.745V9.7251Z" fill="#34BBDE"/>
<path d="M11.067 9.7251H11.242V11.4961H11.067V9.7251Z" fill="#34BBDE"/>
<path d="M11.389 9.7251H11.564V11.4961H11.389V9.7251Z" fill="#34BBDE"/>
<path d="M11.7111 9.7251H11.8791V11.4961H11.7111V9.7251Z" fill="#34BBDE"/>
<path d="M8.575 9.54785H7.479V11.6729H8.575V9.54785Z" fill="#1E8EA9"/>
<path d="M8.575 7.09619H7.479V9.22119H8.575V7.09619Z" fill="#2DA3C1"/>
<path d="M9.93103 7.09619H12.056V9.22119H9.93103V7.09619ZM10.108 7.27319H10.276V9.04419H10.108V7.27319ZM10.423 7.27319H10.597V9.04419H10.423V7.27319ZM10.745 7.27319H10.919V9.04419H10.745V7.27319ZM11.067 7.27319H11.242V9.04419H11.067V7.27319ZM11.389 7.27319H11.563V9.04419H11.389V7.27319ZM11.711 7.27319H11.878V9.04419H11.711V7.27319Z" fill="#23A3C2"/>
<path d="M9.93103 4.64404H12.056V6.76904H9.93103V4.64404ZM10.108 4.82104H10.276V6.59204H10.108V4.82104ZM10.423 4.82104H10.597V6.59204H10.423V4.82104ZM10.745 4.82104H10.919V6.59204H10.745V4.82104ZM11.067 4.82104H11.242V6.59204H11.067V4.82104ZM11.389 4.82104H11.563V6.59204H11.389V4.82104ZM11.711 4.82104H11.878V6.59204H11.711V4.82104Z" fill="#34BBDE"/>
<path d="M9.93103 9.54785H12.056V11.6729H9.93103V9.54785Z" fill="#34BBDE"/>
<path d="M10.993 7.09619H9.93103V9.22119H10.993V7.09619Z" fill="#1E8EA9"/>
<path d="M10.993 4.64404H9.93103V6.76904H10.993V4.64404Z" fill="#2DA3C1"/>
<path d="M10.993 9.54785H9.93103V11.6729H10.993V9.54785Z" fill="#2DA3C1"/>
<path d="M12.3831 9.54785H14.5081V11.6729H12.3831V9.54785ZM12.5601 9.72485H12.7281V11.4959H12.5601V9.72485ZM12.8751 9.72485H13.0501V11.4959H12.8751V9.72485ZM13.1971 9.72485H13.3721V11.4959H13.1971V9.72485ZM13.5191 9.72485H13.6931V11.4959H13.5191V9.72485ZM13.8411 9.72485H14.0151V11.4959H13.8411V9.72485ZM14.1631 9.72485H14.3311V11.4959H14.1631V9.72485Z" fill="#23A3C2"/>
<path d="M13.4391 9.54785H12.3831V11.6729H13.4391V9.54785Z" fill="#1E8EA9"/>
</svg>
