<svg width="128" height="128" viewBox="0 0 128 128" fill="none" xmlns="http://www.w3.org/2000/svg">
<path d="M40.335 78.1879H38.65V68.5379C38.65 67.7759 38.7 66.8479 38.79 65.7529H38.752C38.594 66.3929 38.449 66.8569 38.322 67.1439L33.42 78.1879H32.599L27.688 67.2239C27.55 66.9179 27.405 66.4249 27.258 65.7529H27.222C27.274 66.3289 27.303 67.2619 27.303 68.5569V78.1879H25.677V63.8169H27.902L32.311 73.8379C32.643 74.5919 32.858 75.1659 32.962 75.5579H33.031C33.319 74.7729 33.548 74.1829 33.719 73.7959L38.224 63.8169H40.334L40.335 78.1879ZM45.523 78.1879H43.884V67.9249H45.523V78.1879ZM45.806 64.2459C45.806 64.5489 45.7 64.8009 45.489 65.0089C45.282 65.2169 45.025 65.3209 44.725 65.3209C44.432 65.3209 44.177 65.2199 43.968 65.0199C43.759 64.8189 43.655 64.5619 43.655 64.2459C43.655 63.9499 43.759 63.6969 43.968 63.4919C44.177 63.2869 44.432 63.1869 44.725 63.1869C45.025 63.1869 45.282 63.2859 45.489 63.4919C45.7 63.6969 45.806 63.9499 45.806 64.2459ZM55.764 77.7129C54.978 78.1959 54.038 78.4349 52.952 78.4349C51.48 78.4349 50.297 77.9469 49.391 76.9709C48.512 76.0239 48.07 74.8019 48.07 73.3039C48.07 71.6229 48.55 70.2619 49.52 69.2269C50.484 68.1909 51.781 67.6739 53.412 67.6739C54.304 67.6739 55.095 67.8479 55.787 68.1949V69.8819C55.021 69.3439 54.211 69.0769 53.342 69.0769C52.297 69.0769 51.446 69.4419 50.787 70.1699C50.1 70.9149 49.753 71.9119 49.753 73.1549C49.753 74.3489 50.07 75.2949 50.701 75.9919C51.334 76.6859 52.177 77.0339 53.239 77.0339C54.136 77.0339 54.977 76.7389 55.763 76.1519L55.764 77.7129ZM63.604 69.5899C63.315 69.3669 62.898 69.2589 62.349 69.2589C61.681 69.2589 61.12 69.5569 60.666 70.1599C60.15 70.8329 59.895 71.7639 59.895 72.9549V78.1869H58.251V67.9249H59.895V70.0409H59.934C60.175 69.2919 60.548 68.7159 61.046 68.3079C61.512 67.9349 62.038 67.7469 62.618 67.7469C63.056 67.7469 63.38 67.7939 63.602 67.8869L63.604 69.5899ZM72.758 73.0749C72.758 71.7619 72.462 70.7579 71.868 70.0689C71.293 69.4069 70.488 69.0769 69.452 69.0769C68.431 69.0769 67.611 69.4109 66.999 70.0799C66.352 70.7949 66.028 71.8049 66.028 73.1149C66.028 74.3429 66.336 75.3069 66.958 75.9939C67.576 76.6859 68.408 77.0329 69.452 77.0329C70.532 77.0329 71.359 76.6809 71.926 75.9819C72.481 75.2979 72.758 74.3299 72.758 73.0749ZM74.443 73.0179C74.443 74.6529 73.981 75.9669 73.061 76.9519C72.137 77.9409 70.894 78.4349 69.331 78.4349C67.791 78.4349 66.564 77.9409 65.666 76.9519C64.785 75.9989 64.343 74.7409 64.343 73.1759C64.343 71.3899 64.843 70.0139 65.846 69.0369C66.775 68.1309 68.016 67.6739 69.572 67.6739C71.102 67.6739 72.298 68.1509 73.159 69.0959C74.012 70.0459 74.443 71.3539 74.443 73.0179ZM82.589 75.4419C82.589 76.2819 82.276 76.9779 81.647 77.5329C80.96 78.1339 80.017 78.4339 78.831 78.4339C77.86 78.4339 77.009 78.2309 76.286 77.8159V76.0499C77.09 76.7039 77.978 77.0329 78.953 77.0329C80.254 77.0329 80.905 76.5539 80.905 75.5989C80.905 75.1979 80.762 74.8649 80.474 74.6079C80.185 74.3459 79.623 74.0319 78.789 73.6649C77.93 73.2889 77.317 72.9029 76.956 72.5019C76.522 72.0259 76.304 71.4089 76.304 70.6479C76.304 69.7959 76.645 69.0869 77.318 68.5229C77.993 67.9559 78.86 67.6729 79.924 67.6729C80.739 67.6729 81.47 67.8319 82.118 68.1539V69.8079C81.441 69.3199 80.667 69.0759 79.789 69.0759C79.245 69.0759 78.808 69.2119 78.482 69.4749C78.153 69.7449 77.988 70.0889 77.988 70.5089C77.988 70.9639 78.126 71.3169 78.4 71.5699C78.644 71.8029 79.161 72.0889 79.941 72.4219C80.817 72.7889 81.45 73.1699 81.836 73.5589C82.336 74.0529 82.589 74.6799 82.589 75.4419ZM92.629 73.0749C92.629 71.7619 92.332 70.7579 91.737 70.0689C91.162 69.4069 90.356 69.0769 89.322 69.0769C88.301 69.0769 87.481 69.4109 86.866 70.0799C86.22 70.7949 85.897 71.8049 85.897 73.1149C85.897 74.3429 86.206 75.3069 86.821 75.9939C87.447 76.6859 88.28 77.0329 89.322 77.0329C90.404 77.0329 91.228 76.6809 91.796 75.9819C92.351 75.2979 92.629 74.3299 92.629 73.0749ZM94.317 73.0179C94.317 74.6529 93.851 75.9669 92.929 76.9519C92.009 77.9409 90.766 78.4349 89.202 78.4349C87.66 78.4349 86.434 77.9409 85.535 76.9519C84.654 75.9989 84.212 74.7409 84.212 73.1759C84.212 71.3899 84.716 70.0139 85.714 69.0369C86.642 68.1309 87.885 67.6739 89.442 67.6739C90.973 67.6739 92.167 68.1509 93.026 69.0959C93.881 70.0459 94.317 71.3539 94.317 73.0179ZM101.555 64.4379C101.232 64.2589 100.873 64.1679 100.464 64.1679C99.314 64.1679 98.743 64.8919 98.743 66.3429V67.9249H101.148V69.3169H98.743V78.1879H97.098V69.3169H95.353V67.9249H97.098V66.2609C97.098 65.1319 97.444 64.2449 98.148 63.6069C98.751 63.0519 99.488 62.7759 100.365 62.7759C100.873 62.7759 101.267 62.8369 101.554 62.9539L101.555 64.4379ZM108.039 78.0849C107.651 78.3069 107.135 78.4179 106.496 78.4179C104.705 78.4179 103.809 77.4079 103.809 75.3889V69.3189H102.048V67.9249H103.809V65.4209L105.455 64.8879V67.9249H108.038V69.3189H105.455V75.1099C105.455 75.7979 105.567 76.2899 105.803 76.5749C106.04 76.8699 106.428 77.0139 106.976 77.0139C107.385 77.0139 107.739 76.9049 108.039 76.6829V78.0849ZM19.237 118.242C19.237 119.047 18.951 119.742 18.37 120.329C17.793 120.914 17.092 121.209 16.268 121.209C15.463 121.209 14.779 120.914 14.218 120.329C13.656 119.742 13.377 119.046 13.377 118.242C13.377 117.415 13.656 116.717 14.218 116.139C14.779 115.559 15.463 115.272 16.268 115.272C17.091 115.272 17.792 115.564 18.37 116.15C18.951 116.738 19.237 117.436 19.237 118.242ZM56.018 120.606H50.66L31.212 90.5719C30.758 89.8489 30.365 89.0639 30.033 88.2069H29.873C30.012 89.0109 30.082 90.7379 30.082 93.3819V120.606H25.666V82.9259H31.398L50.263 112.486C51.014 113.659 51.528 114.499 51.788 115.005H51.892C51.717 113.922 51.626 112.073 51.626 109.465V82.9259H56.016V120.606H56.018ZM84.332 120.606H64.361V82.9259H83.465V86.9189H68.775V99.4529H82.387V103.448H68.774V116.612H84.332V120.606ZM114.623 86.9189H103.769V120.607H99.354V86.9189H88.479V82.9239H114.623V86.9189Z" fill="#1384C8"/>
<path fill-rule="evenodd" clip-rule="evenodd" d="M82.108 46.3301C82.587 45.0981 83.13 43.8851 83.535 42.6291C85.823 35.5321 88.089 28.4291 90.34 21.3201C91.205 18.5891 92.153 15.9001 93.855 13.5531C96.547 9.84411 100.297 7.90111 104.735 7.22211C106.476 6.95611 108.253 6.83311 110.015 6.81611C115.282 6.76611 120.551 6.80111 125.819 6.80611C126.099 6.80611 126.379 6.83511 126.776 6.85811C126.647 7.16211 126.577 7.38311 126.465 7.58211C124.51 11.0761 122.593 14.5911 120.58 18.0501C117.075 24.0721 113.564 30.0921 109.949 36.0481C107.63 39.8671 105.115 43.5681 102.262 47.0221C100.157 49.5701 97.941 52.0061 95.116 53.7921C93.191 55.0091 91.135 55.7211 88.801 55.7091C80.523 55.6641 72.245 55.6971 63.967 55.6851C61.506 55.6811 59.399 54.7441 57.611 53.0821C55.048 50.7011 53.518 47.6701 52.266 44.4741C49.982 38.6391 48.703 32.5231 47.235 26.4601C46.547 23.6221 45.765 20.8061 45.02 17.9821C44.972 17.7991 44.878 17.6281 44.77 17.3651L44.193 17.9071C40.965 21.1141 38.122 24.6481 35.578 28.4051C34.885 29.4291 34.652 30.7791 34.265 31.9961C32.841 36.4661 31.543 40.9791 30.001 45.4071C28.524 49.6491 25.876 53.0231 21.737 55.0171C19.317 56.1821 16.733 56.8121 14.048 56.8721C10.068 56.9601 6.08596 56.9701 2.10496 57.0061C1.15296 57.0151 1.10896 56.9371 1.35696 56.0161C3.06396 49.6781 5.22696 43.5021 7.93696 37.5241C10.731 31.3571 14.022 25.4761 18.168 20.1051C20.991 16.4481 24.109 13.0741 28.011 10.5231C29.99 9.23011 32.094 8.20811 34.488 7.93911C34.882 7.89411 35.281 7.86611 35.677 7.86611C44.155 7.86211 52.633 7.94811 61.11 7.82711C65.657 7.76211 68.949 9.68211 71.414 13.3421C72.947 15.6181 74.044 18.1031 74.967 20.6701C76.828 25.8481 77.985 31.2171 79.292 36.5481C80.04 39.5991 80.873 42.6291 81.671 45.6681C81.731 45.8961 81.828 46.1141 81.909 46.3361L82.108 46.3301Z" fill="#1384C8"/>
</svg>
