<svg width="210" height="197" viewBox="0 0 210 197" fill="none" xmlns="http://www.w3.org/2000/svg">
<g clip-path="url(#clip0_629_231)">
<path d="M57.7352 71.3856H25.6429C29.8922 56.8026 37.777 43.7322 49.3204 32.1802C67.7233 13.766 89.8521 4.57034 115.73 4.57034C120.903 4.57034 125.915 4.95609 130.782 5.69066C150.274 8.63468 167.34 17.4519 181.962 32.1802C193.579 43.7281 201.52 56.8026 205.802 71.3856H57.7352ZM40.0394 114.995H23.2747C22.6496 111.253 22.2421 107.478 22.0541 103.689H209.413C209.221 107.547 208.803 111.31 208.185 114.995M22.0541 93.1904C22.2436 89.3304 22.6595 85.5681 23.2747 81.8846H208.188C208.817 85.626 209.228 89.401 209.418 93.1904M205.806 125.497C201.528 140.12 193.586 153.252 181.962 164.884C167.378 179.475 150.362 188.229 130.933 191.173C125.901 191.935 120.819 192.315 115.73 192.311C89.8529 192.311 67.7225 183.165 49.3213 164.883C37.7737 153.252 29.884 140.12 25.638 125.497" fill="#2C2255"/>
<path d="M16.4825 98.4369C16.4825 147.958 53.6542 189.104 102.012 196.341C100.812 196.385 99.6064 196.433 98.3948 196.433C44.1295 196.432 0.134521 152.557 0.134521 98.4369C0.134521 44.3145 44.1279 0.442309 98.3948 0.442309C99.6105 0.442309 100.816 0.488272 102.02 0.532592C53.6542 7.76911 16.4825 48.9156 16.4825 98.4369Z" fill="#F7941E"/>
<path d="M179.493 103.692C179.187 107.511 178.538 111.295 177.554 114.998H53.915C52.9301 111.295 52.2805 107.511 51.9741 103.692H179.493Z" fill="url(#paint0_linear_629_231)"/>
<path d="M179.493 93.1909H51.9757C52.2809 89.3714 52.9299 85.5872 53.9149 81.8843H177.556C178.539 85.5874 179.188 89.3715 179.493 93.1909Z" fill="url(#paint1_linear_629_231)"/>
<path d="M115.735 34.4128C141.41 34.4128 163.544 49.5482 173.736 71.3857H57.7335C67.9259 49.5482 90.0579 34.4128 115.735 34.4128Z" fill="url(#paint2_linear_629_231)"/>
<path d="M42.5249 93.1904H209.286C209.375 94.8606 209.424 96.5423 209.424 98.2355C209.424 100.067 209.358 101.883 209.253 103.691H22.054C21.9507 101.885 21.8834 100.067 21.8834 98.2355C21.8834 96.5423 21.9326 94.8606 22.0212 93.1904H42.5249ZM57.3595 125.497H25.6364C24.5937 122.077 23.9211 118.569 23.2747 114.995H207.592C206.955 118.541 206.113 122.048 205.07 125.497M195.54 81.8863H23.273C23.9014 78.3144 24.6167 74.809 25.6421 71.3856H205.683C206.713 74.8348 207.541 78.341 208.163 81.8863H195.54Z" fill="white"/>
</g>
<defs>
<linearGradient id="paint0_linear_629_231" x1="6427.94" y1="-12201.5" x2="6427.94" y2="1918.27" gradientUnits="userSpaceOnUse">
<stop offset="0.3033" stop-color="#473788"/>
<stop offset="0.872" stop-color="#2C2255"/>
</linearGradient>
<linearGradient id="paint1_linear_629_231" x1="6427.73" y1="-10043.6" x2="6427.73" y2="4077.17" gradientUnits="userSpaceOnUse">
<stop offset="0.3033" stop-color="#473788"/>
<stop offset="0.872" stop-color="#2C2255"/>
</linearGradient>
<linearGradient id="paint2_linear_629_231" x1="5857.72" y1="-7884.09" x2="5857.72" y2="6235.33" gradientUnits="userSpaceOnUse">
<stop offset="0.3033" stop-color="#473788"/>
<stop offset="0.8631" stop-color="#2C2255"/>
</linearGradient>
<clipPath id="clip0_629_231">
<rect width="210" height="197" fill="white" transform="matrix(1 0 0 -1 0 197)"/>
</clipPath>
</defs>
</svg>
