<svg width="97" height="97" viewBox="0 0 97 97" fill="none" xmlns="http://www.w3.org/2000/svg">
<g clip-path="url(#clip0_517_488)">
<path d="M0 0H97V97H0V0Z" fill="#F0D91F"/>
<path d="M79.9604 75.2921C78.9297 71.408 70.8626 70.5027 65.3457 66.3802C59.7682 62.6214 58.4385 53.5277 63.046 48.3099C64.6222 46.3699 67.2251 44.9149 69.9572 44.248L72.8066 43.8883C78.3235 43.763 81.7144 45.218 84.2607 48.0674C84.9963 48.7909 85.5379 49.5224 86.6291 51.2199C83.7151 53.0346 83.7151 53.0346 79.536 55.7668C78.6226 53.8268 77.1676 52.6143 75.5913 52.1293C73.1663 51.4018 70.0744 52.1859 69.4682 54.7968C69.2297 55.5849 69.2863 56.3124 69.6541 57.6462C70.6362 59.8893 73.9423 60.8593 76.917 62.2537C85.4651 65.7214 88.3468 69.4397 89.0541 73.8654L88.8682 73.5946C89.5391 77.4139 88.6863 79.8996 88.5691 80.2633C85.4126 91.0546 67.8313 91.4183 60.7988 84.3212C59.3438 82.6237 58.3738 81.7789 57.5251 79.8389L64.9213 75.5912C66.9219 78.6224 68.7367 80.2633 72.0145 80.9908C76.4441 81.5364 80.9304 80.0208 79.9604 75.2921ZM32.8709 76.6945C32.9396 76.6945 33.1296 77.0623 33.3842 77.4867C34.3259 79.0589 35.1383 80.1502 36.7388 80.9423C38.2989 81.4314 41.7343 81.787 43.068 79.0023C43.8804 77.5958 43.6258 73.0247 43.6258 68.0454C43.6258 60.2005 43.6622 52.4162 43.6622 44.5835H52.7478L52.7317 44.8098C52.7317 53.1761 52.7802 61.4817 52.7317 69.7833C52.7519 74.9405 53.1884 79.5479 51.1271 83.3067C49.7004 86.2167 46.9723 88.0961 43.8077 89.0095C38.9455 90.1007 34.3017 89.4339 30.846 87.3726C28.5261 85.9782 26.7276 83.7877 25.4949 81.2414L32.8709 76.6945Z" fill="black"/>
</g>
<defs>
<clipPath id="clip0_517_488">
<rect width="97" height="97" fill="white"/>
</clipPath>
</defs>
</svg>
