<svg width="128" height="128" viewBox="0 0 128 128" fill="none" xmlns="http://www.w3.org/2000/svg">
<path d="M64 33.0391C30.26 33.0391 2.90601 46.9011 2.90601 64.0001C2.90601 81.0991 30.26 94.9611 64 94.9611C97.74 94.9611 125.094 81.0991 125.094 64.0001C125.094 46.9011 97.74 33.0391 64 33.0391ZM48.103 70.0321C46.645 71.3961 45.026 71.9591 43.243 72.5391C41.46 73.1201 39.191 73.0001 36.432 73.0001H30.179L28.446 83.0001H21.145L27.66 49.0001H41.7C45.924 49.0001 49.005 50.2151 50.942 52.4321C52.879 54.6491 53.461 57.7961 52.689 61.7691C52.37 63.4061 51.833 64.9281 51.075 66.2841C50.316 67.6411 49.325 68.9081 48.103 70.0321ZM69.414 73.0001L72.295 58.5801C72.623 56.8921 72.503 55.6381 71.934 55.0251C71.364 54.4111 70.152 54.0001 68.299 54.0001H62.509L58.778 73.0001H51.534L58.049 40.0001H65.293L63.561 49.0001H70.014C74.075 49.0001 76.875 49.8151 78.416 51.2311C79.957 52.6471 80.419 54.5871 79.803 57.7591L76.772 73.0001H69.414ZM109.673 61.8221C109.355 63.4591 108.817 64.9551 108.06 66.3101C107.302 67.6671 106.312 68.9081 105.089 70.0321C103.631 71.3961 102.011 71.9591 100.229 72.5391C98.447 73.1201 96.176 73.0001 93.417 73.0001H87.164L85.432 83.0001H78.131L84.645 49.0001H98.686C102.91 49.0001 105.991 50.2151 107.927 52.4321C109.862 54.6491 110.445 57.8501 109.673 61.8221ZM95.919 54.0001H90.918L88.191 68.0001H92.633C95.575 68.0001 97.769 67.7101 99.209 66.6001C100.651 65.4921 101.622 63.7721 102.127 61.1791C102.611 58.6881 102.391 56.7451 101.467 55.7211C100.542 54.6971 98.693 54.0001 95.919 54.0001ZM38.934 54.0001H33.932L31.205 68.0001H35.646C38.589 68.0001 40.782 67.7101 42.223 66.6001C43.664 65.4921 44.636 63.7721 45.14 61.1791C45.624 58.6881 45.404 56.7451 44.48 55.7211C43.556 54.6971 41.708 54.0001 38.934 54.0001Z" fill="#6181B6"/>
</svg>
