<svg width="128" height="128" viewBox="0 0 128 128" fill="none" xmlns="http://www.w3.org/2000/svg">
<path d="M64 75.4001C70.296 75.4001 75.4 70.2961 75.4 64.0001C75.4 57.7041 70.296 52.6001 64 52.6001C57.7039 52.6001 52.6 57.7041 52.6 64.0001C52.6 70.2961 57.7039 75.4001 64 75.4001Z" fill="#61DAFB"/>
<path d="M107.3 45.2001C105.1 44.4001 102.8 43.6001 100.4 42.9001C101 40.5001 101.5 38.1001 101.9 35.8001C104 22.6001 101.7 13.3001 95.3 9.7001C93.4 8.6001 91.3 8.1001 88.9 8.1001C81.9 8.1001 73 13.3001 64 22.0001C55 13.3001 46.1 8.1001 39.1 8.1001C36.7 8.1001 34.6 8.6001 32.7 9.7001C26.3 13.4001 24 22.7001 26.1 35.8001C26.5 38.1001 27 40.5001 27.6 42.9001C25.2 43.6001 22.9 44.3001 20.7 45.2001C8.20003 50.0001 1.40002 56.6001 1.40002 64.0001C1.40002 71.4001 8.30003 78.0001 20.7 82.8001C22.9 83.6001 25.2 84.4001 27.6 85.1001C27 87.5001 26.5 89.9001 26.1 92.2001C24 105.4 26.3 114.7 32.7 118.3C34.6 119.4 36.7 119.9 39.1 119.9C46.2 119.9 55.1 114.7 64 106C73 114.7 81.9 119.9 88.9 119.9C91.3 119.9 93.4 119.4 95.3 118.3C101.7 114.6 104 105.3 101.9 92.2001C101.5 89.9001 101 87.5001 100.4 85.1001C102.8 84.4001 105.1 83.7001 107.3 82.8001C119.8 78.0001 126.6 71.4001 126.6 64.0001C126.6 56.6001 119.8 50.0001 107.3 45.2001ZM92.5 14.7001C96.6 17.1001 98 24.5001 96.3 35.0001C96 37.1001 95.5 39.3001 94.9 41.6001C89.7 40.4001 84.2 39.6001 78.4 39.1001C75 34.3001 71.5 30.0001 68 26.1001C75.4 18.8001 82.9 13.8001 89 13.8001C90.3 13.8001 91.5 14.1001 92.5 14.7001ZM81.3 74.0001C79.5 77.2001 77.4 80.4001 75.2 83.6001C71.5 83.9001 67.8 84.0001 64 84.0001C60.1 84.0001 56.4 83.9001 52.8 83.6001C50.6 80.4001 48.6 77.2001 46.8 74.0001C44.9 70.7001 43.1 67.3001 41.5 64.0001C43.1 60.7001 44.9 57.3001 46.8 54.0001C48.6 50.8001 50.7 47.6001 52.9 44.4001C56.6 44.1001 60.3 44.0001 64.1 44.0001C68 44.0001 71.7 44.1001 75.3 44.4001C77.5 47.6001 79.5 50.8001 81.3 54.0001C83.2 57.3001 85 60.7001 86.6 64.0001C84.9 67.3001 83.2 70.6001 81.3 74.0001ZM89.6 70.7001C91.1 74.2001 92.3 77.6001 93.4 81.0001C90 81.8001 86.4 82.4001 82.6 82.9001C83.8 81.0001 85.1 79.0001 86.2 76.9001C87.4 74.8001 88.5 72.7001 89.6 70.7001ZM64 97.8001C61.6 95.2001 59.3 92.4001 57.1 89.5001C59.4 89.6001 61.7 89.7001 64 89.7001C66.3 89.7001 68.6 89.6001 70.9 89.5001C68.7 92.4001 66.4 95.2001 64 97.8001ZM45.4 82.8001C41.6 82.3001 38 81.7001 34.6 80.9001C35.7 77.6001 36.9 74.1001 38.4 70.6001C39.5 72.6001 40.6 74.7001 41.8 76.7001C43 78.9001 44.2 80.8001 45.4 82.8001ZM38.4 57.3001C36.9 53.8001 35.7 50.4001 34.6 47.0001C38 46.2001 41.6 45.6001 45.4 45.1001C44.2 47.0001 42.9 49.0001 41.8 51.1001C40.6 53.2001 39.5 55.3001 38.4 57.3001ZM64 30.2001C66.4 32.8001 68.7 35.6001 70.9 38.5001C68.6 38.4001 66.3 38.3001 64 38.3001C61.7 38.3001 59.4 38.4001 57.1 38.5001C59.3 35.6001 61.6 32.8001 64 30.2001ZM86.2 51.2001L82.6 45.2001C86.4 45.7001 90 46.3001 93.4 47.1001C92.3 50.4001 91.1 53.9001 89.6 57.4001C88.5 55.3001 87.4 53.2001 86.2 51.2001ZM31.7 35.0001C30 24.5001 31.4 17.1001 35.5 14.7001C36.5 14.1001 37.7 13.8001 39 13.8001C45 13.8001 52.5 18.7001 60 26.1001C56.5 29.9001 53 34.3001 49.6 39.1001C43.8 39.6001 38.3 40.5001 33.1 41.6001C32.5 39.3001 32.1 37.1001 31.7 35.0001ZM7.00002 64.0001C7.00002 59.3001 12.7 54.3001 22.7 50.6001C24.7 49.8001 26.9 49.1001 29.1 48.5001C30.7 53.5001 32.7 58.8001 35.1 64.1001C32.7 69.4001 30.6 74.6001 29.1 79.6001C15.3 75.6001 7.00002 69.6001 7.00002 64.0001ZM35.5 113.3C31.4 110.9 30 103.5 31.7 93.0001C32 90.9001 32.5 88.7001 33.1 86.4001C38.3 87.6001 43.8 88.4001 49.6 88.9001C53 93.7001 56.5 98.0001 60 101.9C52.6 109.2 45.1 114.2 39 114.2C37.7 114.2 36.5 113.9 35.5 113.3ZM96.3 93.0001C98 103.5 96.6 110.9 92.5 113.3C91.5 113.9 90.3 114.2 89 114.2C83 114.2 75.5 109.3 68 101.9C71.5 98.1001 75 93.7001 78.4 88.9001C84.2 88.4001 89.7 87.5001 94.9 86.4001C95.5 88.7001 95.9 90.9001 96.3 93.0001ZM105.3 77.4001C103.3 78.2001 101.1 78.9001 98.9 79.5001C97.3 74.5001 95.3 69.2001 92.9 63.9001C95.3 58.6001 97.4 53.4001 98.9 48.4001C112.7 52.4001 121 58.4001 121 64.0001C121 68.7001 115.2 73.7001 105.3 77.4001Z" fill="#61DAFB"/>
</svg>
