<svg width="32" height="32" viewBox="0 0 32 32" fill="none" xmlns="http://www.w3.org/2000/svg">
<path d="M6.31699 22.0461L5.68799 21.7321L9.66899 17.4661L10.607 18.4711L6.31699 22.0461ZM20 25.6021L5.68799 10.2681L6.28699 9.96911L20 22.5401V25.6021ZM20 10.6441L14.753 15.0161L13.246 13.6341L20 6.39811V10.6441ZM26 23.8331L22 26.2331V5.76611L26 8.16611V23.8331Z" fill="#1F9CF0"/>
<path d="M27.515 6.74315L21.515 3.14315C21.488 3.12715 21.458 3.11915 21.429 3.10615C21.032 2.86815 20.519 2.91115 20.19 3.26315L11.771 12.2842L7.13101 8.03015C6.98151 7.89375 6.79425 7.80575 6.59383 7.77773C6.3934 7.74971 6.18918 7.78297 6.00801 7.87315L3.59701 9.07815C3.45816 9.14788 3.33746 9.24897 3.24444 9.37342C3.15142 9.49787 3.08865 9.64226 3.0611 9.79517C3.03354 9.94808 3.04196 10.1053 3.08569 10.2544C3.12941 10.4035 3.20724 10.5403 3.31301 10.6542L8.30201 16.0002L3.31301 21.3462C3.20684 21.4598 3.12866 21.5966 3.0847 21.7458C3.04073 21.895 3.0322 22.0523 3.05978 22.2054C3.08736 22.3584 3.15029 22.5029 3.24356 22.6274C3.33682 22.7518 3.45785 22.8527 3.59701 22.9222L6.00801 24.1282C6.18196 24.2155 6.37768 24.25 6.57101 24.2275C6.76435 24.2049 6.94685 24.1262 7.09601 24.0012L11.975 19.9352L20.19 28.7372C20.2835 28.8375 20.3966 28.9176 20.5224 28.9723C20.6482 29.027 20.7839 29.0552 20.921 29.0552C21.1065 29.0491 21.2867 28.9913 21.441 28.8882C21.465 28.8762 21.491 28.8712 21.514 28.8572L27.514 25.2572C27.6621 25.1684 27.7847 25.0428 27.8699 24.8927C27.955 24.7425 27.9999 24.5728 28 24.4002V7.60015C28 7.4276 27.9553 7.25799 27.8703 7.10782C27.7853 6.95765 27.6629 6.83202 27.515 6.74315ZM6.31701 22.0462L5.68801 21.7322L9.66901 17.4662L10.607 18.4712L6.31701 22.0462ZM20 25.6022L5.68801 10.2682L6.28701 9.96915L20 22.5402V25.6022ZM20 19.8262L16.241 16.3802L20 13.2482V19.8262ZM20 10.6442L14.753 15.0162L13.246 13.6342L20 6.39815V10.6442ZM26 23.8332L22 26.2332V5.76615L26 8.16615V23.8332Z" fill="#0065A9"/>
</svg>
