<svg width="91" height="91" viewBox="0 0 91 91" fill="none" xmlns="http://www.w3.org/2000/svg">
<path d="M45.5 9.8584C38.4507 9.8584 31.5597 11.9487 25.6985 15.8651C19.8373 19.7815 15.269 25.3479 12.5714 31.8606C9.87372 38.3732 9.1679 45.5396 10.5431 52.4534C11.9184 59.3672 15.3129 65.7179 20.2975 70.7025C25.2821 75.6871 31.6328 79.0816 38.5466 80.4569C45.4604 81.8321 52.6268 81.1263 59.1394 78.4287C65.6521 75.731 71.2186 71.1627 75.1349 65.3015C79.0513 59.4403 81.1416 52.5493 81.1416 45.5001C81.1416 36.0473 77.3865 26.9817 70.7024 20.2976C64.0183 13.6135 54.9527 9.8584 45.5 9.8584Z" fill="#D8D8FF"/>
<path d="M46.0554 48.2627L36.5735 75.8099C42.9392 77.6844 49.7334 77.5081 55.9933 75.3059C55.9053 75.1675 55.8296 75.0218 55.7669 74.8703L46.0554 48.2627ZM13.9031 45.4988C13.9021 51.4326 15.5719 57.2469 18.7214 62.2759C21.8709 67.3049 26.3728 71.3455 31.7117 73.9351L16.6385 32.6401C14.8317 36.686 13.8995 41.0678 13.9031 45.4988Z" fill="#6563FF"/>
<path d="M66.8309 43.9055C66.7886 40.8153 65.8866 37.798 64.226 35.1916C62.5277 33.0548 61.4535 30.49 61.1222 27.7807C61.0854 26.3343 61.623 24.9323 62.6174 23.8814C63.6119 22.8304 64.9821 22.2162 66.4283 22.173C66.5686 22.173 66.7013 22.1899 66.8374 22.1985C63.4641 19.1085 59.4598 16.788 55.1016 15.3975C50.7433 14.007 46.135 13.5796 41.5954 14.145C37.0558 14.7104 32.6931 16.2551 28.8091 18.6721C24.9251 21.0892 21.6123 24.321 19.1 28.1441C19.8415 28.1676 20.5404 28.1825 21.1333 28.1825C24.4376 28.1825 29.5548 27.7805 29.5548 27.7805C29.8963 27.7608 30.2318 27.8757 30.4895 28.1007C30.7471 28.3256 30.9062 28.6426 30.9326 28.9836C30.959 29.3246 30.8507 29.6623 30.6308 29.9243C30.4109 30.1862 30.097 30.3515 29.7566 30.3845C29.7566 30.3845 28.0441 30.585 26.1409 30.6847L37.6464 64.9101L44.5624 44.1724L39.6394 30.6849C37.937 30.5851 36.3255 30.3847 36.3255 30.3847C35.9851 30.3518 35.6711 30.1867 35.4511 29.9248C35.231 29.6629 35.1225 29.3252 35.1488 28.9841C35.1752 28.6431 35.3342 28.326 35.5918 28.101C35.8494 27.876 36.185 27.761 36.5265 27.7807C36.5265 27.7807 41.7433 28.1826 44.8476 28.1826C48.1519 28.1826 53.2701 27.7807 53.2701 27.7807C53.6116 27.7607 53.9474 27.8755 54.2052 28.1005C54.463 28.3256 54.6222 28.6427 54.6486 28.9839C54.675 29.3251 54.5664 29.6629 54.3463 29.9249C54.1261 30.1868 53.812 30.352 53.4714 30.3847C53.4714 30.3847 51.7576 30.5851 49.8556 30.6849L61.2741 64.6497L64.5335 54.321C65.8064 50.9807 66.5805 47.4712 66.8309 43.9055Z" fill="#6563FF"/>
<path d="M45.5001 7.5835C38.0008 7.5835 30.67 9.80727 24.4347 13.9736C18.1993 18.1399 13.3394 24.0617 10.4696 30.9901C7.5998 37.9184 6.84893 45.5422 8.31195 52.8973C9.77497 60.2524 13.3862 67.0086 18.6889 72.3113C23.9917 77.614 30.7478 81.2253 38.1029 82.6883C45.458 84.1513 53.0818 83.4004 60.0101 80.5306C66.9385 77.6608 72.8603 72.8009 77.0266 66.5655C81.1929 60.3302 83.4167 52.9994 83.4167 45.5002C83.4167 40.5209 82.436 35.5903 80.5305 30.9901C78.625 26.3898 75.8321 22.2099 72.3112 18.689C68.7903 15.1681 64.6104 12.3752 60.0101 10.4697C55.4099 8.56424 50.4793 7.5835 45.5001 7.5835ZM75.0558 65.4261C71.1874 71.1576 65.7396 75.6441 59.3726 78.3417C53.9111 80.653 47.9588 81.5631 42.0562 80.9893C36.1536 80.4156 30.4879 78.3761 25.5739 75.0562C19.843 71.187 15.3566 65.7393 12.6581 59.3728C10.3463 53.9114 9.43596 47.9589 10.0099 42.0562C10.5838 36.1535 12.6237 30.4878 15.9443 25.5741C19.8127 19.8425 25.2605 15.356 31.6275 12.6584C37.089 10.3471 43.0414 9.43701 48.9439 10.0108C54.8465 10.5846 60.5122 12.6241 65.4262 15.944C71.1572 19.8132 75.6435 25.2609 78.342 31.6274C80.6538 37.0888 81.5641 43.0413 80.9902 48.944C80.4163 54.8467 78.3764 60.5124 75.0558 65.4261Z" fill="#6563FF"/>
<path d="M73.44 33.5894C73.3852 37.4825 72.5687 41.3272 71.0364 44.9065L61.386 72.809C68.5039 68.6685 73.7245 61.9131 75.9362 53.9811C78.1479 46.049 77.176 37.567 73.2275 30.3408C73.3712 31.4177 73.4422 32.503 73.44 33.5894Z" fill="#6563FF"/>
</svg>
