<svg width="508" height="247" viewBox="0 0 508 247" fill="none" xmlns="http://www.w3.org/2000/svg">
<path d="M486.707 246.405C488.035 247.396 489.915 247.121 490.905 245.793L507.043 224.146C508.033 222.818 507.759 220.938 506.43 219.948C505.102 218.958 503.223 219.232 502.232 220.56L487.888 239.802L468.646 225.457C467.318 224.467 465.438 224.741 464.448 226.07C463.458 227.398 463.732 229.278 465.06 230.268L486.707 246.405ZM1.00651 0.302718C-1.50923 38.4545 3.77646 68.1078 15.2396 91.065C26.723 114.063 44.2909 130.109 65.9067 141.208C108.915 163.29 168.154 165.861 228.099 165.163C288.412 164.461 349.474 160.458 397.431 168.787C421.346 172.94 441.65 180.116 456.808 192.056C471.873 203.923 482.065 220.659 485.531 244.433L491.469 243.567C487.795 218.372 476.868 200.22 460.52 187.343C444.265 174.538 422.862 167.114 398.458 162.875C349.779 154.421 287.763 158.468 228.029 159.163C167.928 159.863 110.151 157.18 68.6473 135.87C48.0069 125.272 31.4446 110.088 20.6076 88.3847C9.75042 66.6409 4.52567 38.123 6.99352 0.697493L1.00651 0.302718Z" fill="#FFE5B8"/>
</svg>
