<svg width="522" height="262" viewBox="0 0 522 262" fill="none" xmlns="http://www.w3.org/2000/svg">
<path d="M510.765 261.908C512.371 262.314 514.002 261.341 514.408 259.735L521.026 233.558C521.432 231.952 520.459 230.321 518.852 229.915C517.246 229.509 515.615 230.482 515.209 232.088L509.327 255.356L486.059 249.474C484.452 249.068 482.821 250.041 482.415 251.647C482.009 253.254 482.982 254.885 484.588 255.291L510.765 261.908ZM1.50649 0.302681C-1.00678 38.4171 3.49735 68.6615 13.6779 92.6635C23.8754 116.705 39.7008 134.322 59.5386 147.246C99.0349 172.976 154.373 180.039 212.689 182.925C271.346 185.827 333.018 184.516 386.611 192.999C440.122 201.468 484.491 219.573 508.923 260.536L514.076 257.463C488.259 214.176 441.636 195.633 387.548 187.072C333.542 178.525 271.007 179.803 212.985 176.932C154.622 174.044 100.808 166.97 62.8137 142.218C43.9062 129.901 28.9018 113.19 19.2016 90.3206C9.48451 67.4113 5.02319 38.1602 7.49349 0.697464L1.50649 0.302681Z" fill="#FFE5B8"/>
</svg>
