<svg width="24" height="24" viewBox="0 0 24 24" fill="none" xmlns="http://www.w3.org/2000/svg">
<path d="M21.5833 20C21.2076 20 20.8473 19.8507 20.5816 19.5851C20.3159 19.3194 20.1667 18.9591 20.1667 18.5833V5.83333H7.41667C7.04094 5.83333 6.68061 5.68408 6.41493 5.4184C6.14926 5.15272 6 4.79239 6 4.41667C6 4.04094 6.14926 3.68061 6.41493 3.41493C6.68061 3.14926 7.04094 3 7.41667 3H21.5833C21.9591 3 22.3194 3.14926 22.5851 3.41493C22.8507 3.68061 23 4.04094 23 4.41667V18.5833C23 18.9591 22.8507 19.3194 22.5851 19.5851C22.3194 19.8507 21.9591 20 21.5833 20Z" fill="#FFE5B8"/>
<path d="M4.66805 23C4.33812 22.9999 4.01562 22.902 3.74132 22.7187C3.46702 22.5354 3.25323 22.2748 3.12698 21.97C3.00073 21.6652 2.96769 21.3298 3.03204 21.0062C3.09639 20.6827 3.25523 20.3854 3.48849 20.1521L20.1725 3.46833C20.4872 3.16443 20.9086 2.99626 21.3461 3.00006C21.7835 3.00386 22.202 3.17933 22.5113 3.48866C22.8207 3.79799 22.9961 4.21644 22.9999 4.65388C23.0037 5.09132 22.8356 5.51276 22.5317 5.82741L5.84761 22.5112C5.69289 22.6663 5.50903 22.7894 5.3066 22.8733C5.10418 22.9572 4.88717 23.0002 4.66805 23Z" fill="#FFE5B8"/>
</svg>
