<svg width="500" height="500" viewBox="0 0 500 500" fill="none" xmlns="http://www.w3.org/2000/svg">
<path d="M265.833 296.975L259.562 300.303L239.584 262.664L245.856 259.336C249.225 257.551 250.76 253.621 249.486 250.014C248.37 246.819 247.27 241.809 248.44 236.111C249.761 229.624 253.677 223.609 260.081 218.236C263.073 215.721 265.993 213.267 268.8 210.888C286.164 196.221 301.155 183.55 314.979 176.22L425.604 117.511C431.507 114.378 438.311 113.594 444.783 115.297C451.243 116.995 456.781 121.04 460.374 126.68L460.504 126.878C474.011 148.101 485.948 170.572 495.942 193.658C498.601 199.785 498.846 206.643 496.644 212.94C494.436 219.25 489.968 224.442 484.065 227.575L373.415 286.305C359.591 293.635 340.707 298.958 318.828 305.126C315.278 306.129 311.608 307.158 307.858 308.227C299.821 310.519 292.64 310.401 286.526 307.859C281.157 305.637 277.623 301.924 275.598 299.196C274.779 298.099 273.715 297.265 272.545 296.744C270.453 295.81 267.994 295.835 265.833 296.975ZM259.93 275.061L267.343 289.014C267.419 289.158 267.539 289.273 267.682 289.337C267.877 289.424 268.113 289.42 268.299 289.316C268.649 289.129 268.776 288.703 268.588 288.355L261.176 274.401C260.988 274.052 260.561 273.924 260.213 274.112C259.89 274.279 259.742 274.712 259.93 275.061ZM252.893 260.263C252.545 260.45 252.417 260.877 252.604 261.225L255.342 266.374C255.419 266.517 255.538 266.633 255.681 266.696C255.876 266.783 256.112 266.78 256.298 266.676C256.647 266.488 256.775 266.062 256.587 265.714L253.85 260.565C253.663 260.216 253.236 260.088 252.893 260.263ZM470.61 213.607C475.124 211.211 477.255 207.345 476.949 202.127C476.753 197.675 474.704 192.241 470.713 185.535C469.998 184.343 469.294 183.125 468.598 181.926C467.756 180.459 466.103 179.831 464.858 180.491L459.77 183.193C459.235 183.485 458.842 183.98 458.66 184.599C458.433 185.387 458.567 186.273 459.023 187.068C459.719 188.268 460.436 189.491 461.151 190.683C463.353 194.378 464.488 197.144 464.527 198.907C464.527 198.907 464.521 198.92 464.534 198.926L464.539 199.022C464.539 199.022 464.533 199.035 464.546 199.04C464.549 199.104 464.564 199.454 464.29 200.173C464.245 200.309 463.98 200.798 462.715 201.466C461.899 201.897 461.146 202.013 460.463 201.833C459.586 201.597 458.764 201.168 458.005 200.564C457.153 199.888 456.371 199.056 455.659 198.1C454.873 197.032 454.205 196.048 453.683 195.192C452.859 193.826 452.326 192.575 452.087 191.503C451.856 190.449 451.788 189.483 451.891 188.625C452.005 187.74 452.236 186.908 452.572 186.154C452.974 185.289 453.39 184.462 453.827 183.691L454.626 182.285C455.111 181.442 455.698 180.301 456.394 178.882C457.142 177.345 457.683 175.435 458.011 173.197C458.803 167.72 457.671 161.698 454.668 155.292C453.129 152.034 451.474 149.176 449.713 146.8C447.863 144.307 445.935 142.34 443.968 140.948C441.917 139.503 439.806 138.608 437.677 138.313C435.478 138.002 433.328 138.383 431.28 139.48C428.521 140.946 426.569 142.912 425.477 145.324C424.479 147.559 423.859 149.683 423.671 151.641C423.189 156.913 424.532 162.952 427.647 169.594C428.238 170.855 428.842 172.122 429.458 173.395C429.857 174.212 430.522 174.82 431.297 175.073C431.911 175.269 432.553 175.228 433.088 174.937L438.238 172.2C439.483 171.54 439.886 169.833 439.15 168.304C438.553 167.056 437.95 165.789 437.346 164.522C436.164 162 435.38 159.811 435.093 158.218C434.773 156.454 434.867 155.545 434.999 155.074C435.171 154.481 435.394 154.05 435.67 153.815C436.157 153.424 436.583 153.131 436.938 152.931C438.04 152.347 438.679 152.523 439.057 152.723C439.93 153.143 440.761 153.795 441.513 154.66C442.338 155.605 443.071 156.618 443.64 157.683C444.312 158.902 444.765 159.774 445.039 160.348C445.735 161.828 446.182 163.165 446.352 164.286C446.537 165.444 446.572 166.519 446.455 167.48C446.326 168.467 446.086 169.388 445.734 170.213C445.347 171.116 444.887 171.971 444.367 172.752C444.361 172.765 444.361 172.765 444.356 172.778L444.332 172.83L443.604 174.079C443.176 174.792 442.596 175.812 441.841 177.19C441.01 178.704 440.431 180.629 440.103 182.867C439.167 188.528 440.491 194.434 444.067 200.394C447.369 205.919 451.348 210.033 455.898 212.655C455.898 212.655 455.898 212.655 455.911 212.661C456.551 213.009 457.171 213.332 457.795 213.611C462.391 215.677 466.706 215.684 470.61 213.607ZM430.41 233.829C431.189 234.177 432.051 234.202 432.761 233.834L452.071 223.573C452.619 223.288 452.998 222.787 453.144 222.181C453.333 221.408 453.148 220.531 452.617 219.764C437.961 198.356 425.692 175.268 416.167 151.13C415.836 150.265 415.202 149.624 414.457 149.338C413.867 149.122 413.244 149.156 412.696 149.441L393.392 159.689C392.166 160.342 391.674 162.071 392.291 163.624C393.31 166.23 394.388 168.846 395.47 171.418C395.825 172.262 396.459 172.903 397.229 173.169C397.837 173.378 398.46 173.344 399.008 173.059L410.921 166.73C413.601 172.914 416.492 179.082 419.516 185.092L407.528 191.449C406.283 192.109 405.894 193.853 406.661 195.349C407.942 197.822 409.257 200.326 410.601 202.764C411.398 204.227 413.065 204.893 414.31 204.232L426.303 197.862C429.603 203.776 433.119 209.662 436.747 215.365L424.835 221.693C424.287 221.979 423.907 222.48 423.737 223.105C423.529 223.886 423.709 224.776 424.208 225.544C425.732 227.892 427.301 230.244 428.881 232.539C429.289 233.126 429.824 233.568 430.41 233.829ZM405.737 245.313C408.347 245.823 411.091 245.332 413.868 243.86C415.257 243.123 416.378 242.252 417.215 241.285C418.04 240.344 418.678 239.335 419.135 238.276C419.604 237.222 419.888 236.133 419.999 235.045C420.102 234.046 420.124 233.09 420.084 232.199C419.796 227.675 417.736 222.267 413.773 215.636C407.986 205.9 402.595 195.763 397.791 185.499C394.52 178.507 391.189 173.779 387.62 171.017C386.15 169.91 384.322 169.047 382.193 168.472C379.872 167.841 377.284 168.261 374.507 169.734C371.729 171.207 369.795 173.165 368.735 175.576C367.756 177.804 367.161 179.908 366.965 181.847C366.483 187.119 367.812 193.12 370.892 199.7C371.483 200.961 372.087 202.228 372.704 203.501C373.103 204.318 373.767 204.926 374.543 205.179C375.156 205.375 375.799 205.334 376.334 205.043L381.484 202.306C382.729 201.646 383.132 199.939 382.396 198.411C381.786 197.157 381.182 195.89 380.591 194.629C379.41 192.106 378.625 189.917 378.339 188.324C378.001 186.459 378.114 185.543 378.219 185.169C378.365 184.595 378.577 184.191 378.848 183.969C379.334 183.578 379.761 183.285 380.109 183.097C380.496 182.896 380.985 182.709 381.538 182.55C381.822 182.474 382.226 182.546 382.739 182.759L382.752 182.765C383.077 182.91 383.779 183.363 384.88 184.774C385.812 185.969 386.889 187.852 388.161 190.555C392.993 200.863 398.398 211.037 404.226 220.822C406.441 224.523 407.584 227.34 407.652 229.178C407.652 229.178 407.647 229.191 407.66 229.197L407.662 229.26C407.662 229.26 407.657 229.273 407.67 229.279C407.674 229.375 407.684 229.737 407.418 230.507C407.355 230.682 407.096 231.159 405.956 231.757C404.811 232.368 404.235 232.33 404.036 232.287C403.38 232.151 402.876 231.988 402.517 231.813C400.715 230.681 398.665 228.254 396.607 224.796C395.905 223.61 395.183 222.399 394.492 221.187C393.65 219.72 391.998 219.092 390.752 219.752L385.602 222.489C385.067 222.78 384.675 223.275 384.492 223.895C384.265 224.682 384.4 225.569 384.855 226.364C385.552 227.563 386.268 228.787 386.983 229.979C390.699 236.219 394.929 240.679 399.541 243.234C399.906 243.429 400.29 243.615 400.68 243.789C402.142 244.426 403.841 244.951 405.737 245.313ZM370.711 265.396C371.491 265.744 372.353 265.769 373.063 265.4L378.213 262.664C378.761 262.378 379.14 261.877 379.292 261.259C379.481 260.486 379.295 259.609 378.765 258.842C374.508 252.625 370.408 246.198 366.58 239.72C364.845 236.764 364.205 234.39 364.69 232.674C365.004 231.583 365.77 230.74 367.122 230.018L369.475 228.761C374.537 237.785 380.059 246.685 385.896 255.228C386.842 256.601 388.537 257.17 389.763 256.516L394.851 253.815C395.399 253.529 395.778 253.028 395.93 252.41C396.119 251.637 395.933 250.76 395.403 249.992C380.747 228.584 368.497 205.489 358.971 181.351C358.635 180.499 358.013 179.832 357.262 179.559C356.672 179.343 356.049 179.377 355.501 179.662L345.817 184.803C340.992 187.373 338.177 191.48 337.454 197.049C336.8 202.041 338.16 208.321 341.387 215.201C344.609 222.062 348.383 226.879 352.596 229.523C352.483 231.592 352.694 233.775 353.207 236.015C353.875 238.884 355.134 241.862 356.918 244.887C360.766 251.389 364.886 257.84 369.162 264.082C369.59 264.694 370.126 265.136 370.711 265.396ZM342.437 278.874C342.437 279.155 342.475 279.452 342.552 279.735C342.867 280.983 343.845 282.043 345.197 282.646C345.665 282.854 346.174 283.004 346.708 283.101C348.794 283.456 351.68 282.858 353.478 280.121C354.367 278.756 354.566 277.021 354.088 275.577L365.365 269.588C365.913 269.302 366.292 268.801 366.437 268.197C366.627 267.423 366.442 266.546 365.911 265.779C351.255 244.371 338.986 221.284 329.46 197.145C329.129 196.281 328.496 195.639 327.751 195.354C327.161 195.137 326.538 195.171 325.99 195.457L306.686 205.704C305.459 206.357 304.969 208.087 305.584 209.64C306.609 212.232 307.681 214.862 308.763 217.433C309.119 218.277 309.753 218.918 310.523 219.184C311.131 219.393 311.754 219.359 312.302 219.074L324.214 212.745C326.895 218.929 329.786 225.097 332.81 231.107L320.822 237.464C319.577 238.125 319.187 239.868 319.955 241.364C321.236 243.838 322.551 246.341 323.894 248.779C324.704 250.248 326.358 250.907 327.604 250.248L339.592 243.89C342.892 249.805 346.393 255.685 350.035 261.393L338.123 267.722C337.575 268.007 337.195 268.507 337.025 269.134C336.817 269.913 336.996 270.804 337.496 271.572C339.019 273.921 340.589 276.273 342.168 278.567C342.262 278.672 342.357 278.776 342.437 278.874ZM302.852 285.139C301.729 285.106 300.562 285.068 299.388 285.043C294.82 284.938 292.049 285.977 291.777 287.883C291.558 289.42 293.06 290.98 295.855 292.226C296.882 292.685 298.086 293.097 299.452 293.458C307.595 295.61 312.887 296.085 322.74 293.217C324.419 292.736 333.119 288.995 334.611 287.572C336.085 286.156 336.989 283.676 335.857 281.674C335.075 280.281 333.09 279.069 330.433 279.504C328.82 279.766 327.388 280.53 325.999 281.267C325.769 281.398 325.532 281.51 325.302 281.641C325.021 281.781 324.74 281.92 324.461 282.061C313.157 265.016 303.324 246.912 295.21 228.173L303.853 223.581C305.08 222.928 305.532 221.213 304.885 219.661C303.796 217.071 302.717 214.424 301.671 211.806C301.335 210.954 300.707 210.3 299.962 210.014C299.372 209.798 298.749 209.832 298.201 210.117L271.337 224.381C270.111 225.033 269.619 226.763 270.236 228.316C271.276 230.946 272.354 233.594 273.463 236.209C273.819 237.054 274.453 237.694 275.223 237.96C275.831 238.169 276.455 238.136 277.003 237.85L285.545 233.307C293.333 251.277 302.682 268.65 313.389 285.071C309.968 285.367 306.528 285.251 302.852 285.139Z" fill="#ED203D"/>
<path d="M357.476 218.03C356.522 217.792 356.203 217.633 356.164 217.616C355.067 216.862 353.288 214.977 351.045 210.189C350.01 207.966 349.296 206.073 348.924 204.566C348.605 203.255 348.507 202.183 348.617 201.375C348.709 200.714 348.949 200.213 349.326 199.821C349.87 199.268 350.604 198.739 351.483 198.273L353.774 197.051C356.526 203.391 359.494 209.734 362.62 215.898L360.266 217.155C358.348 218.17 357.604 218.056 357.476 218.03Z" fill="#ED203D"/>
<path d="M424.207 225.544C423.708 224.776 423.542 223.892 423.737 223.106C423.901 222.493 424.286 221.979 424.835 221.694L436.747 215.365C433.105 209.656 429.59 203.771 426.303 197.862L414.316 204.219C413.07 204.88 411.416 204.22 410.606 202.751C409.268 200.3 407.948 197.809 406.667 195.336C405.894 193.853 406.288 192.096 407.534 191.436L419.515 185.092C416.479 179.076 413.588 172.908 410.92 166.73L399.008 173.059C398.46 173.344 397.831 173.391 397.229 173.169C396.472 172.909 395.825 172.262 395.469 171.418C394.382 168.859 393.31 166.23 392.291 163.624C391.674 162.071 392.165 160.342 393.392 159.689L412.696 149.441C413.244 149.156 413.867 149.122 414.457 149.338C415.208 149.611 415.836 150.265 416.167 151.13C425.692 175.268 437.948 198.35 452.617 219.764C453.135 220.525 453.333 221.409 453.144 222.182C452.992 222.8 452.619 223.288 452.071 223.573L432.748 233.828C432.038 234.198 431.189 234.177 430.396 233.823C429.811 233.562 429.276 233.121 428.867 232.533C427.307 230.232 425.738 227.879 424.207 225.544ZM430.062 231.742C430.628 232.571 431.583 232.841 432.093 232.57L451.41 222.328C451.597 222.224 451.711 222.073 451.765 221.847C451.857 221.467 451.741 220.994 451.448 220.568C436.724 199.067 424.419 175.885 414.852 151.666C414.679 151.215 414.371 150.859 414.032 150.708C414.006 150.696 413.993 150.691 413.967 150.679C413.754 150.599 413.55 150.602 413.363 150.706L394.046 160.947C393.536 161.218 393.24 162.162 393.599 163.102C394.625 165.695 395.689 168.305 396.764 170.857C396.962 171.32 397.297 171.688 397.679 171.811C397.906 171.897 398.115 171.881 398.315 171.783L410.918 165.093C411.099 165.002 411.296 164.98 411.484 165.049C411.671 165.117 411.824 165.263 411.902 165.438C414.754 172.041 417.842 178.64 421.094 185.048C421.268 185.39 421.14 185.817 420.792 186.004L408.188 192.695C407.64 192.98 407.514 193.89 407.925 194.681C409.193 197.149 410.514 199.64 411.844 202.073C412.261 202.851 413.094 203.254 413.63 202.963L426.233 196.272C426.576 196.098 427.008 196.212 427.182 196.555C430.691 202.875 434.448 209.164 438.341 215.25C438.451 215.424 438.485 215.626 438.43 215.82C438.375 216.013 438.255 216.178 438.074 216.269L425.47 222.959C425.284 223.063 425.145 223.235 425.085 223.473C424.988 223.866 425.085 224.346 425.365 224.767C426.927 227.101 428.483 229.447 430.062 231.742Z" fill="#231F20"/>
<path d="M399.52 243.21C394.909 240.654 390.679 236.195 386.963 229.955C386.241 228.744 385.532 227.539 384.835 226.34C384.374 225.557 384.245 224.658 384.472 223.871C384.655 223.251 385.047 222.756 385.582 222.465L390.732 219.728C391.977 219.067 393.617 219.69 394.472 221.162C395.176 222.38 395.885 223.585 396.587 224.771C398.645 228.23 400.695 230.657 402.497 231.788C402.855 231.964 403.36 232.126 404.016 232.263C404.215 232.305 404.79 232.344 405.936 231.733C407.076 231.134 407.335 230.658 407.398 230.483C407.663 229.713 407.654 229.35 407.65 229.255C407.65 229.255 407.655 229.242 407.642 229.236L407.639 229.172C407.639 229.172 407.645 229.159 407.632 229.154C407.564 227.315 406.415 224.511 404.206 220.798C398.378 211.012 392.972 200.838 388.141 190.531C386.869 187.828 385.797 185.932 384.86 184.749C383.759 183.339 383.057 182.885 382.732 182.74L382.719 182.734C382.225 182.514 381.802 182.45 381.518 182.526C380.964 182.684 380.475 182.871 380.089 183.073C379.741 183.26 379.314 183.553 378.828 183.944C378.557 184.166 378.345 184.571 378.198 185.144C378.107 185.524 377.982 186.435 378.318 188.3C378.612 189.911 379.39 192.082 380.571 194.604C381.162 195.865 381.766 197.132 382.375 198.386C383.112 199.915 382.709 201.621 381.463 202.281L376.313 205.018C375.778 205.31 375.137 205.35 374.522 205.154C373.747 204.902 373.083 204.294 372.683 203.477C372.075 202.223 371.464 200.937 370.872 199.676C367.791 193.095 366.464 187.094 366.945 181.823C367.14 179.883 367.728 177.761 368.714 175.551C369.774 173.141 371.721 171.188 374.486 169.709C377.263 168.236 379.857 167.803 382.173 168.447C384.314 169.028 386.13 169.885 387.6 170.993C391.169 173.754 394.494 178.495 397.77 185.475C402.595 195.764 407.986 205.9 413.786 215.642C417.736 222.267 419.803 227.694 420.097 232.205C420.137 233.096 420.115 234.052 420.012 235.051C419.901 236.139 419.617 237.228 419.148 238.281C418.697 239.327 418.04 240.344 417.228 241.291C416.391 242.258 415.257 243.123 413.881 243.866C411.104 245.338 408.373 245.834 405.75 245.319C403.854 244.956 402.155 244.432 400.673 243.771C400.27 243.591 399.899 243.41 399.52 243.21ZM406.014 243.925C408.295 244.365 410.723 243.921 413.195 242.609C414.421 241.955 415.414 241.198 416.129 240.364C416.858 239.536 417.424 238.65 417.823 237.722C418.235 236.799 418.48 235.864 418.579 234.91C418.678 233.988 418.703 233.095 418.655 232.294C418.383 228.012 416.389 222.804 412.557 216.372C406.729 206.586 401.323 196.412 396.492 186.105C393.313 179.325 390.13 174.756 386.745 172.139C386.021 171.598 385.19 171.118 384.267 170.706C383.513 170.37 382.678 170.075 381.801 169.84C379.84 169.308 377.614 169.686 375.16 170.992C372.688 172.305 370.948 174.038 370.022 176.15C369.106 178.236 368.544 180.197 368.367 181.989C367.912 186.992 369.191 192.753 372.173 199.103C372.756 200.345 373.367 201.631 373.977 202.885C374.208 203.346 374.579 203.699 374.974 203.828C375.149 203.891 375.399 203.924 375.648 203.786L380.797 201.049C381.346 200.764 381.483 199.827 381.091 199.029C380.481 197.775 379.883 196.495 379.279 195.228C378.022 192.563 377.228 190.323 376.922 188.565C376.634 186.94 376.596 185.661 376.826 184.797C377.061 183.92 377.428 183.273 377.938 182.862C378.499 182.41 378.999 182.057 379.429 181.828C379.902 181.571 380.485 181.348 381.133 181.154C381.743 180.974 382.48 181.069 383.286 181.429C384.066 181.777 384.981 182.59 385.974 183.859C386.979 185.134 388.105 187.117 389.427 189.92C394.25 200.177 399.622 210.32 405.428 220.05C407.794 224.004 408.97 226.96 409.056 229.072L409.065 229.123C409.092 229.446 409.053 230.021 408.743 230.927C408.489 231.671 407.779 232.352 406.602 232.965C405.456 233.576 404.485 233.797 403.719 233.627C402.934 233.464 402.3 233.243 401.831 233.003C401.818 232.997 401.792 232.985 401.779 232.979C399.735 231.725 397.578 229.188 395.356 225.469C394.654 224.283 393.937 223.059 393.228 221.854C392.779 221.078 391.946 220.675 391.392 220.973L386.242 223.71C385.999 223.835 385.889 224.082 385.833 224.244C385.716 224.644 385.802 225.15 386.052 225.604C386.748 226.804 387.457 228.009 388.167 229.214C391.759 235.243 395.802 239.525 400.192 241.951C401.798 242.823 403.751 243.476 406.014 243.925Z" fill="#231F20"/>
<path d="M353.24 236.045C352.721 233.818 352.511 231.636 352.629 229.553C348.403 226.904 344.629 222.087 341.421 215.232C338.193 208.352 336.834 202.072 337.487 197.079C338.205 191.523 341.012 187.398 345.851 184.834L355.533 179.693C356.082 179.407 356.705 179.374 357.294 179.59C358.045 179.863 358.673 180.517 359.005 181.382C368.516 205.514 380.78 228.615 395.436 250.023C395.953 250.784 396.152 251.667 395.962 252.44C395.811 253.059 395.432 253.559 394.884 253.845L389.796 256.548C388.57 257.2 386.856 256.639 385.929 255.258C380.092 246.715 374.551 237.822 369.508 228.792L367.142 230.043C365.797 230.752 365.025 231.608 364.71 232.698C364.225 234.415 364.87 236.776 366.6 239.745C370.429 246.223 374.541 252.656 378.785 258.867C379.302 259.628 379.5 260.512 379.311 261.285C379.16 261.903 378.781 262.404 378.232 262.689L373.083 265.426C372.373 265.795 371.524 265.775 370.731 265.421C370.147 265.16 369.611 264.718 369.203 264.132C364.939 257.896 360.805 251.439 356.958 244.935C355.153 241.886 353.913 238.902 353.24 236.045ZM372.395 264.138L377.545 261.4C377.731 261.297 377.846 261.144 377.899 260.919C377.991 260.539 377.875 260.066 377.582 259.639C373.306 253.399 369.192 246.934 365.337 240.444C363.361 237.084 362.695 234.418 363.303 232.289C363.728 230.811 364.742 229.658 366.436 228.761L369.418 227.177C369.624 227.066 369.854 227.075 370.035 227.156C370.165 227.214 370.291 227.317 370.367 227.461C375.494 236.652 381.112 245.721 387.064 254.425C387.63 255.253 388.585 255.524 389.096 255.253L394.183 252.55C394.37 252.446 394.484 252.295 394.538 252.07C394.629 251.689 394.513 251.217 394.22 250.79C379.51 229.295 367.191 206.108 357.65 181.868C357.456 181.392 357.134 181.031 356.772 180.9C356.558 180.82 356.354 180.823 356.167 180.927L346.485 186.068C342.089 188.409 339.526 192.16 338.864 197.242C338.25 201.971 339.565 207.967 342.681 214.609C345.76 221.158 349.468 225.914 353.424 228.365C353.463 228.382 353.497 228.413 353.549 228.436C353.601 228.459 353.653 228.483 353.699 228.519C353.947 228.661 354.08 228.922 354.067 229.197C353.908 231.262 354.087 233.446 354.608 235.704C355.244 238.436 356.44 241.275 358.154 244.176C361.982 250.653 366.094 257.086 370.338 263.297C370.922 264.119 371.884 264.409 372.395 264.138Z" fill="#231F20"/>
<path d="M360.934 218.42C359.277 219.302 358.005 219.638 357.136 219.421C356.363 219.232 355.909 219.061 355.649 218.945C355.518 218.887 355.433 218.834 355.368 218.805C353.549 217.572 351.659 214.89 349.74 210.807C348.663 208.503 347.913 206.516 347.519 204.921C347.153 203.434 347.041 202.183 347.188 201.189C347.324 200.221 347.686 199.447 348.301 198.834C348.955 198.174 349.789 197.564 350.804 197.035L353.792 195.438C353.973 195.347 354.17 195.326 354.358 195.394C354.545 195.462 354.699 195.609 354.776 195.784C357.694 202.556 360.865 209.317 364.206 215.873C364.38 216.216 364.252 216.642 363.903 216.83L360.934 218.42ZM353.774 197.051L351.483 198.273C350.604 198.739 349.876 199.255 349.326 199.821C348.936 200.208 348.709 200.715 348.617 201.375C348.507 202.183 348.605 203.255 348.923 204.567C349.296 206.073 350.01 207.966 351.045 210.189C353.281 214.959 355.067 216.862 356.164 217.616C356.216 217.64 356.522 217.792 357.476 218.03C357.604 218.056 358.348 218.17 360.266 217.155L362.62 215.899C359.506 209.74 356.533 203.41 353.774 197.051Z" fill="#231F20"/>
<path d="M182.869 310.884L206.824 295.698C208.586 294.614 209.332 292.42 208.59 290.484L205.184 281.452C204.484 279.596 205.271 277.485 207.026 276.554L235.136 261.631C235.609 261.374 236.161 261.325 236.679 261.493C237.047 261.61 237.375 261.818 237.63 262.12C237.723 262.224 237.805 262.354 237.876 262.479L238 262.721L238.328 263.35L258.304 300.99L258.632 301.619L258.757 301.862C258.827 301.987 258.884 302.137 258.921 302.263C259.165 303.151 258.774 304.129 257.928 304.594L229.819 319.517C228.062 320.448 225.88 319.926 224.719 318.301L219.152 310.41C217.956 308.722 215.718 308.114 213.844 308.961L187.845 320.274L187.811 320.244C185.475 317.55 183.766 314.324 182.869 310.884ZM211.758 280.939C211.834 281.083 211.954 281.198 212.096 281.262C212.291 281.35 212.527 281.346 212.713 281.242L230.71 271.689L231.968 271.034L234.154 269.874C234.502 269.687 234.63 269.26 234.443 268.912C234.255 268.563 233.829 268.435 233.481 268.623L231.296 269.783L230.037 270.438L212.041 279.991C211.71 280.171 211.583 280.597 211.758 280.939ZM228.843 313.112C228.919 313.254 229.039 313.371 229.182 313.435C229.377 313.522 229.613 313.517 229.799 313.414L247.795 303.861L249.054 303.206L251.239 302.046C251.589 301.858 251.716 301.433 251.528 301.084C251.341 300.736 250.915 300.607 250.566 300.795L248.381 301.955L247.123 302.61L229.126 312.163C228.784 312.337 228.655 312.763 228.843 313.112ZM224.576 305.067C224.653 305.21 224.772 305.326 224.915 305.39C225.11 305.477 225.346 305.472 225.532 305.37L243.529 295.816L244.787 295.162L246.973 294.001C247.321 293.814 247.449 293.388 247.262 293.04C247.074 292.691 246.648 292.563 246.3 292.75L244.114 293.911L242.856 294.565L224.86 304.117C224.516 304.293 224.389 304.719 224.576 305.067ZM220.31 297.023C220.386 297.165 220.506 297.281 220.649 297.346C220.844 297.431 221.08 297.428 221.266 297.324L239.262 287.772L240.521 287.117L242.706 285.957C243.055 285.769 243.183 285.343 242.995 284.995C242.808 284.645 242.382 284.518 242.033 284.706L239.847 285.866L238.588 286.519L220.593 296.073C220.249 296.247 220.122 296.674 220.31 297.023ZM216.037 288.99C216.114 289.134 216.233 289.249 216.376 289.313C216.571 289.4 216.807 289.397 216.993 289.293L234.99 279.739L236.248 279.085L238.433 277.924C238.782 277.738 238.91 277.311 238.723 276.963C238.535 276.614 238.109 276.486 237.761 276.673L235.574 277.834L234.316 278.488L216.321 288.041C215.983 288.202 215.85 288.642 216.037 288.99Z" fill="#0BA95B"/>
<path d="M182.114 309.674L206.075 294.475C207.261 293.741 207.757 292.28 207.266 290.969L203.861 281.937C202.901 279.405 203.987 276.553 206.378 275.282L234.487 260.359C235.303 259.928 236.23 259.842 237.108 260.11C237.85 260.332 238.47 260.796 238.911 261.413L245.201 258.078C247.94 256.619 249.195 253.423 248.155 250.48C246.975 247.117 245.824 241.834 247.057 235.822C248.446 229.007 252.523 222.736 259.179 217.148C262.171 214.633 265.078 212.173 267.898 209.8C285.33 195.085 300.376 182.361 314.324 174.962L424.931 116.26C431.158 112.959 438.323 112.135 445.131 113.925C451.939 115.715 457.766 119.983 461.552 125.927L461.682 126.126C475.236 147.417 487.189 169.957 497.231 193.111C500.025 199.563 500.292 206.79 497.966 213.436C495.639 220.083 490.935 225.559 484.708 228.86L374.096 287.574C360.141 294.987 341.175 300.32 319.226 306.504C315.677 307.507 312.007 308.536 308.256 309.605C299.897 311.986 292.417 311.845 285.996 309.183C285.788 309.09 285.575 309.01 285.381 308.923C280.063 306.551 276.521 302.82 274.476 300.068C272.614 297.569 269.279 296.798 266.52 298.265L260.23 301.599C260.843 303.198 260.177 305.037 258.627 305.857L230.519 320.78C228.126 322.051 225.158 321.334 223.601 319.128L218.035 311.236C217.233 310.099 215.73 309.693 214.462 310.265L188.462 321.578C188.088 321.754 187.654 321.748 187.303 321.592C187.121 321.509 186.957 321.39 186.809 321.231L186.783 321.187C184.294 318.347 182.479 314.902 181.522 311.249C181.328 310.634 181.581 309.997 182.114 309.674ZM187.863 320.267L213.863 308.953C215.75 308.112 217.976 308.715 219.171 310.402L224.737 318.295C225.885 319.913 228.082 320.441 229.837 319.509L257.947 304.587C258.8 304.141 259.19 303.161 258.941 302.255C258.909 302.116 258.845 301.979 258.776 301.855L258.65 301.611L258.323 300.982L238.346 263.344L238.019 262.715L237.894 262.471C237.825 262.347 237.742 262.216 237.648 262.112C237.406 261.817 237.078 261.609 236.697 261.485C236.174 261.329 235.635 261.385 235.154 261.623L207.046 276.546C205.29 277.478 204.49 279.583 205.203 281.445L208.608 290.477C209.336 292.407 208.592 294.6 206.842 295.69L182.888 310.877C183.784 314.316 185.501 317.56 187.849 320.229L187.863 320.267ZM286.525 307.859C292.639 310.401 299.821 310.519 307.858 308.227C311.608 307.158 315.284 306.117 318.828 305.126C340.707 298.958 359.604 293.641 373.415 286.305L484.046 227.583C489.949 224.449 494.417 219.257 496.625 212.947C498.833 206.638 498.583 199.793 495.923 193.665C485.916 170.574 473.992 148.109 460.485 126.885L460.355 126.687C456.762 121.047 451.237 117.008 444.764 115.305C438.305 113.607 431.488 114.385 425.585 117.518L314.979 176.22C301.154 183.55 286.163 196.221 268.8 210.888C265.979 213.262 263.067 215.735 260.08 218.236C253.677 223.609 249.76 229.624 248.44 236.111C247.283 241.815 248.37 246.819 249.486 250.014C250.754 253.634 249.224 257.551 245.856 259.337L239.584 262.664L259.561 300.304L265.833 296.975C267.994 295.835 270.445 295.792 272.538 296.725C273.708 297.247 274.771 298.08 275.59 299.178C277.623 301.924 281.15 305.617 286.525 307.859Z" fill="#231F20"/>
<path d="M230.69 270.09L231.32 269.763L233.505 268.603C233.853 268.416 234.28 268.543 234.468 268.892C234.654 269.241 234.527 269.667 234.179 269.854L231.992 271.014L230.734 271.668L212.737 281.221C212.533 281.332 212.303 281.324 212.12 281.242C211.978 281.179 211.852 281.076 211.782 280.92C211.594 280.57 211.722 280.144 212.071 279.957L230.067 270.405L230.69 270.09Z" fill="#231F20"/>
<path d="M234.328 278.463L235.587 277.808L237.772 276.648C238.122 276.46 238.548 276.589 238.735 276.937C238.923 277.285 238.794 277.711 238.446 277.899L236.259 279.059L235.001 279.714L217.006 289.266C216.8 289.377 216.57 289.369 216.387 289.288C216.245 289.224 216.119 289.121 216.049 288.965C215.861 288.616 215.989 288.189 216.338 288.003L234.328 278.463Z" fill="#231F20"/>
<path d="M238.595 286.507L239.853 285.853L242.04 284.692C242.388 284.505 242.814 284.633 243.002 284.982C243.189 285.33 243.061 285.756 242.712 285.943L240.527 287.104L239.269 287.758L221.272 297.312C221.067 297.422 220.837 297.413 220.655 297.332C220.511 297.268 220.387 297.165 220.315 297.009C220.128 296.661 220.256 296.235 220.604 296.047L238.595 286.507Z" fill="#231F20"/>
<path d="M242.874 294.558L244.133 293.903L246.318 292.743C246.667 292.555 247.093 292.684 247.281 293.032C247.469 293.38 247.34 293.806 246.992 293.994L244.805 295.154L243.547 295.809L225.552 305.362C225.346 305.472 225.116 305.464 224.934 305.383C224.79 305.318 224.666 305.216 224.594 305.06C224.407 304.711 224.535 304.285 224.884 304.098L242.874 294.558Z" fill="#231F20"/>
<path d="M247.147 302.589L248.405 301.934L250.59 300.774C250.94 300.588 251.366 300.715 251.553 301.063C251.74 301.412 251.613 301.839 251.264 302.025L249.078 303.185L247.819 303.84L229.824 313.393C229.618 313.505 229.388 313.495 229.206 313.414C229.063 313.35 228.937 313.247 228.867 313.091C228.679 312.742 228.808 312.317 229.156 312.129L247.147 302.589Z" fill="#231F20"/>
<path d="M261.193 274.394L268.607 288.347C268.795 288.696 268.666 289.122 268.318 289.309C268.112 289.421 267.882 289.411 267.701 289.33C267.558 289.266 267.432 289.163 267.362 289.007L259.948 275.054C259.761 274.706 259.889 274.279 260.237 274.091C260.58 273.917 261.006 274.045 261.193 274.394Z" fill="#231F20"/>
<path d="M256.285 266.67C256.079 266.781 255.851 266.773 255.668 266.691C255.525 266.627 255.399 266.524 255.329 266.368L252.592 261.219C252.405 260.871 252.532 260.445 252.88 260.257C253.23 260.07 253.656 260.198 253.843 260.546L256.58 265.696C256.775 266.062 256.629 266.495 256.285 266.67Z" fill="#231F20"/>
<path d="M66.1748 339.03C66.516 339.053 66.827 339.087 67.1404 339.107C67.2795 337.833 67.4066 336.543 67.547 335.268C67.6559 334.263 67.7648 333.257 67.8591 332.236L67.8749 331.994C67.9051 331.54 67.9487 331.087 67.9789 330.632C67.8422 331.193 67.7055 331.755 67.5869 332.26C67.4187 333.092 67.236 333.922 67.0666 334.766C66.775 336.173 66.4821 337.609 66.1748 339.03Z" fill="#ED203D"/>
<path d="M35.7486 342.921C35.7994 343.466 35.9374 344.189 36.3536 344.587C36.5013 344.725 36.6271 344.776 36.6985 344.766C36.713 344.767 36.7275 344.768 36.7432 344.74C37.0712 344.305 37.2418 343.446 37.2381 342.191C37.2381 341.748 37.0131 341.263 36.6489 340.94C35.9071 340.278 34.7092 339.843 33.5186 339.494C34.7624 340.117 35.6071 341.385 35.7486 342.921Z" fill="#ED203D"/>
<path d="M39.1262 326.595C39.0995 326.579 39.0862 326.563 39.0584 326.547C38.9495 326.469 38.8236 326.418 38.6966 326.409C38.5538 326.401 38.4086 326.448 38.2876 326.555C37.8617 326.954 37.4878 327.871 37.3668 328.847C37.316 329.201 37.4636 329.553 37.7625 329.786C38.5345 330.421 39.8243 330.763 41.0912 331.031C40.6048 330.828 40.1825 330.529 39.8364 330.136C39.2798 329.486 39.0366 328.628 39.1383 327.722C39.2327 326.93 39.1516 326.654 39.1262 326.595Z" fill="#ED203D"/>
<path d="M171.99 336.994C171.336 334.582 170.922 331.959 170.49 329.178C169.337 321.928 168.157 314.433 162.647 309.894C152.548 301.575 136.749 305.165 122.818 308.336C117.272 309.599 112.045 310.785 107.498 311.159C99.7805 311.81 92.6366 310.673 86.0747 309.346C84.2863 308.987 82.4713 308.597 80.6999 308.211C78.3779 307.717 75.9723 307.189 73.5632 306.733C62.6017 304.619 51.8956 303.634 41.7254 303.827C33.5131 303.976 26.3098 307.242 20.9217 313.282C16.0126 318.781 12.7408 326.499 11.7147 335.004C10.4684 345.35 13.0518 354.948 18.613 360.675C22.076 364.225 26.5434 366.156 32.2946 366.56C32.3514 366.563 32.4083 366.567 32.4652 366.571C37.5509 366.903 42.9269 366.056 48.1167 365.24C49.6582 364.998 51.1006 364.763 52.5538 364.573C56.1233 364.078 59.4848 363.941 62.724 364.153C65.2105 364.315 67.6112 364.686 69.9417 365.266C75.1217 366.545 80.136 368.842 85.7335 372.474C87.1432 373.392 88.6049 374.387 90.0121 375.334C97.9474 380.744 106.171 386.345 115.841 385.493C122.384 384.922 127.944 381.49 133.83 377.852C137.77 375.414 141.856 372.898 146.253 371.332C148.912 370.378 151.793 369.724 154.572 369.107C161.017 367.645 167.098 366.273 170.918 361.501C175.965 355.212 174.413 345.995 171.99 336.994ZM49.2674 347.598C48.8125 349.765 48.3381 352.016 47.2491 354.042C46.1928 356.028 44.5883 357.221 42.3183 357.685C42.2893 357.684 42.2747 357.697 42.2457 357.695C39.7761 357.948 37.5182 358 35.3874 357.861C35.2603 357.852 35.1175 357.844 34.9905 357.835C34.976 357.834 34.9469 357.832 34.9336 357.832C32.9141 357.515 31.035 356.578 29.4898 355.108C28.12 353.806 26.9875 352.149 26.0134 350.017C25.1773 348.179 24.5263 346.139 24.0229 343.796C24.0242 343.782 24.0241 343.782 24.0253 343.768C23.8366 342.714 23.6732 341.719 23.551 340.755C23.5522 340.741 23.5522 340.741 23.5535 340.727C23.5051 340.154 23.5171 339.099 24.2129 338.488C24.4997 338.235 25.0164 337.97 25.8331 338.137C25.8476 338.138 25.8476 338.138 25.8621 338.139C27.8671 338.669 29.9508 338.876 32.0925 339.059C31.7997 338.968 31.5057 338.879 31.2261 338.789C28.9235 337.997 26.5773 337.015 24.9534 335.227C23.8753 334.044 23.4095 332.216 23.7374 330.469C24.0653 328.721 24.9728 327.069 25.7012 325.746C26.9451 323.503 28.5423 321.339 30.3174 319.486C31.7561 317.997 34.0007 315.946 36.912 315.495C39.2159 315.174 41.6492 315.048 44.5992 315.098C44.6137 315.099 44.627 315.099 44.6561 315.102C46.2872 315.251 48.4071 315.546 50.285 316.497C51.8883 317.3 53.0366 318.287 53.7178 319.431C54.6302 320.973 54.6217 322.841 54.4862 324.487C54.4838 324.516 54.4826 324.53 54.4813 324.558C54.2817 325.644 54.0554 326.713 53.834 327.697C53.8328 327.711 53.8328 327.726 53.8159 327.754C53.2145 329.754 51.9343 331.011 50.2959 331.19C50.2826 331.188 50.2536 331.186 50.239 331.199C47.6932 331.29 45.0953 331.32 42.5966 331.343L42.4829 331.349C42.4683 331.349 42.4538 331.348 42.4538 331.348C42.7636 331.411 43.0455 331.472 43.325 331.548L43.3541 331.549C45.5853 332.122 48.3768 332.833 49.9111 334.902C51.2893 336.745 50.8888 339.373 50.5936 341.279C50.3746 342.663 50.0539 344.083 49.7357 345.46C49.5905 346.15 49.4138 346.894 49.2674 347.598ZM79.2636 356.417C79.1486 357.522 78.1201 358.424 77.1775 358.663C75.93 358.981 74.5022 358.774 73.5197 358.538C71.96 358.165 70.37 358.047 69.0329 357.989C67.8629 357.997 66.3467 357.614 65.6304 356.568C64.9274 355.538 64.8644 354.75 65.0036 353.489C65.006 353.46 65.0072 353.447 65.0085 353.418C65.2977 352.039 65.5602 350.644 65.8276 349.178C65.2021 349.152 64.574 349.138 63.9473 349.126C63.5722 350.728 63.1704 352.3 62.7881 353.787C62.4408 355.162 61.5526 356.103 60.7335 356.848C59.7473 357.74 58.3195 358.202 56.9135 358.111C56.899 358.11 56.8699 358.107 56.8566 358.106C55.2558 357.931 53.8908 357.642 52.5344 357.211C51.3341 356.819 50.331 355.798 49.7804 354.393C49.3037 353.177 49.2093 351.988 49.4937 350.922C50.6625 346.334 51.7273 341.61 52.7377 337.054C53.4625 333.821 54.2091 330.475 54.9944 327.189C54.9956 327.174 54.9968 327.16 55.0113 327.146C55.9854 324.03 57.4083 320.584 60.5084 318.775C63.3556 317.106 66.6117 317.277 69.1297 317.612C70.0191 317.742 70.9254 317.858 71.8595 317.975C74.2904 318.32 77.2949 319.058 78.9054 321.702C80.7737 324.763 80.8209 328.859 80.862 332.158C80.8608 332.172 80.8608 332.185 80.8596 332.2C80.7918 333.893 80.7507 335.617 80.6987 337.281C80.5728 343.579 80.3913 350.086 79.2636 356.417ZM112.238 324.221L112.236 324.234C111.521 331.249 111.11 338.425 110.714 345.361C110.508 348.956 110.294 352.665 110.043 356.314L110.041 356.329C109.716 359.788 109.211 363.793 107.809 367.367C106.542 370.593 104.479 372.485 101.832 372.825C101.341 372.892 100.871 372.904 100.401 372.874C97.6884 372.697 95.1401 371.09 92.7528 369.422C92.7383 369.421 92.7395 369.407 92.725 369.407C90.7563 367.88 89.1215 366.689 87.5776 365.646C87.563 365.646 87.5643 365.632 87.5498 365.63C85.1564 363.848 82.792 361.811 81.6449 359.068C80.7822 356.987 80.4288 354.525 80.5668 351.538C80.6721 349.062 80.8838 346.466 81.1996 343.591C82.0877 336.759 81.9171 329.773 81.6594 323.223C81.5566 321.961 81.9777 320.747 82.7775 319.872C83.6511 318.931 85.0221 318.479 86.4499 318.685C87.7676 318.815 89.2292 318.938 91.0346 319.042C92.6681 319.149 94.0221 319.822 94.753 320.868C95.5988 322.107 95.9508 323.271 95.854 324.534C95.7935 325.9 95.733 327.265 95.6725 328.631C95.4051 334.904 95.1256 341.376 94.3536 347.73C94.2363 349.307 94.1286 350.74 94.0536 352.104L94.0463 352.218C93.987 353.355 93.9168 354.648 94.2012 355.538C94.298 355.8 94.5013 355.971 94.6102 356.035C95.0337 355.678 95.4148 354.418 95.6121 353.804L95.6145 353.775C96.0295 352.433 96.2969 350.967 96.5292 349.585C97.1863 343.679 97.5094 337.637 97.8191 331.795C97.9425 329.463 98.072 327.061 98.2257 324.689C98.2898 323.282 98.8488 321.934 99.7708 320.91C100.786 319.778 102.186 319.099 103.602 319.05C105.135 318.949 106.643 318.805 108.082 318.6C109.306 318.437 110.882 318.754 111.606 320.128C112.33 321.502 112.333 322.971 112.238 324.221ZM133 363.69C132.482 365.496 131.645 367.183 130.533 368.693C129.375 370.258 127.959 371.621 126.333 372.727C126.317 372.74 126.317 372.74 126.303 372.753C124.519 373.835 122.86 374.782 121.234 375.661C121.204 375.673 121.189 375.686 121.16 375.698C119.857 376.212 118.674 376.42 117.622 376.351C116.358 376.269 115.277 375.771 114.381 374.87C112.172 372.63 111.582 369.225 111.322 366.868C110.977 363.637 110.949 360.125 111.253 355.481C111.598 351.296 111.846 347.916 112.049 344.806C112.049 344.806 112.049 344.806 112.05 344.791C112.383 340.563 112.852 336.429 113.454 332.473C113.949 329.253 114.619 325.545 116.337 322.391C117.842 319.651 119.907 318.188 122.319 318.16C122.334 318.16 122.362 318.163 122.376 318.164C123.797 318.256 125.286 318.396 127.228 318.58C127.256 318.581 127.285 318.584 127.326 318.601C129.111 319.017 130.453 319.661 131.686 320.668C132.85 321.629 133.749 323.143 134.219 324.913C134.799 327.162 134.643 329.562 134.491 331.678C134.49 331.692 134.489 331.706 134.489 331.706C134.328 333.08 134.181 334.454 134.049 335.815C134.048 335.828 134.047 335.843 134.047 335.857C133.893 336.903 133.484 339.658 131.424 340.421C131.393 340.434 131.35 340.445 131.322 340.444C129.716 340.78 128.042 341.085 126.208 341.408C126.165 341.419 126.122 341.417 126.08 341.413C125.538 341.407 125.053 341.189 124.679 340.808C123.784 339.88 123.71 338.163 123.744 336.782C123.744 336.554 123.758 336.327 123.774 336.085C123.798 335.73 123.822 335.361 123.816 335.004C123.592 335.816 123.499 336.795 123.396 337.729C123.367 337.942 123.354 338.155 123.326 338.367C123.152 339.938 122.999 341.612 122.826 343.826C122.698 346.443 122.553 349.543 122.425 352.616C122.404 354.226 122.407 355.953 122.482 357.64C122.485 357.798 122.489 357.968 122.506 358.141C122.542 358.9 122.567 359.815 122.754 360.453C122.916 359.937 122.929 359.295 122.928 358.668C122.927 358.468 122.927 358.254 122.938 358.07C123.053 354.781 124.299 353.394 125.308 352.803C125.337 352.791 125.367 352.764 125.396 352.752C127.082 352.064 128.785 351.348 130.591 350.553C130.62 350.539 130.635 350.526 130.664 350.529C131.391 350.305 131.908 350.481 132.223 350.673C133.17 351.263 133.406 352.676 133.535 353.526C133.533 353.555 133.545 353.598 133.542 353.626C133.589 354.884 133.652 356.101 133.72 357.247C133.719 357.262 133.718 357.275 133.718 357.289C133.698 359.328 133.61 361.547 133 363.69ZM165.353 352.779C165.086 353.817 164.569 354.739 163.868 355.449C163.852 355.463 163.837 355.476 163.836 355.489C157.34 361.257 149.481 363.197 141.992 364.705C141.704 364.758 141.403 364.781 141.118 364.762C140.053 364.693 139.074 364.158 138.379 363.67C136.934 362.649 136.438 361.062 136.179 359.789C136.181 359.761 136.168 359.746 136.169 359.718C135.481 353.653 135.73 347.436 135.965 341.431C136.123 337.476 136.276 333.392 136.18 329.406V329.392C136.17 326.709 136.33 324.695 136.693 322.85C136.714 322.751 136.734 322.653 136.755 322.553C136.991 321.342 137.298 319.693 138.468 318.828C138.497 318.816 138.513 318.788 138.542 318.776C142.914 316.28 147.894 315.606 152.687 314.964C153.766 314.82 154.875 314.665 155.955 314.506C155.983 314.509 155.998 314.496 156.027 314.497C156.857 314.452 157.649 314.774 158.348 315.448C158.965 316.044 159.487 316.992 159.633 317.828C159.907 319.087 160.15 320.387 160.386 321.785C160.565 322.768 160.362 323.91 160.132 324.593C159.867 325.375 159.236 326.317 158.384 326.69C158.368 326.703 158.34 326.702 158.325 326.715C155.989 327.519 153.58 328.16 151.242 328.777C149.98 329.109 148.687 329.467 147.408 329.825C147.517 331.43 147.62 333.134 147.727 335.21C148.237 335.058 148.761 334.892 149.27 334.739C151.584 334.035 153.971 333.306 156.266 332.458C156.282 332.444 156.31 332.447 156.326 332.433C157.239 332.193 158.08 332.419 158.748 333.118C159.323 333.712 159.743 334.71 159.8 335.599C159.888 336.418 159.934 336.819 160.023 337.624C160.179 338.732 159.913 339.757 159.662 340.539C159.341 341.516 158.686 342.373 157.854 342.888C157.838 342.901 157.809 342.915 157.795 342.928C154.642 344.433 151.302 345.57 148.344 346.504C148.477 348.196 148.618 349.76 148.778 351.24C152.435 350.052 156.562 348.481 160.339 345.89C160.355 345.877 160.355 345.877 160.369 345.863C161.247 345.336 162.068 345.204 162.805 345.494C163.542 345.785 164.045 346.374 164.303 347.233C164.561 348.105 164.892 349.14 165.298 350.15C165.612 350.998 165.528 352.091 165.353 352.779Z" fill="#ED203D"/>
<path d="M173.369 336.627C172.737 334.289 172.335 331.696 171.901 328.957C170.771 321.794 169.49 313.679 163.559 308.798C152.917 300.045 136.772 303.712 122.507 306.961C117.019 308.214 111.835 309.388 107.389 309.754C99.8438 310.388 92.8269 309.259 86.3775 307.968C84.6037 307.61 82.7886 307.221 81.0305 306.835C78.6964 306.325 76.2897 305.812 73.8672 305.341C62.8077 303.206 52.0011 302.215 41.733 302.402C33.1056 302.565 25.5479 305.995 19.8851 312.33C14.7607 318.058 11.3714 326.053 10.3126 334.841C9.72216 339.725 9.97266 344.634 11.0254 349.053C12.2451 354.183 14.4654 358.421 17.6199 361.666C25.9085 370.18 37.844 368.306 48.3796 366.654C49.9078 366.412 51.3489 366.192 52.7888 365.987C64.7365 364.341 74.0645 366.563 84.9993 373.667C86.3945 374.571 87.7884 375.518 89.2501 376.511C96.3928 381.386 103.741 386.387 112.321 386.947C113.529 387.027 114.756 387.021 116.019 386.903C122.892 386.296 128.853 382.62 134.621 379.06C138.5 376.659 142.514 374.182 146.778 372.679C149.362 371.763 152.186 371.12 154.938 370.501C161.338 369.05 167.955 367.556 172.086 362.391C177.466 355.595 175.882 345.992 173.369 336.627ZM154.586 369.108C151.805 369.74 148.924 370.393 146.267 371.332C141.87 372.9 137.797 375.415 133.843 377.853C127.956 381.491 122.397 384.909 115.855 385.495C106.17 386.346 97.961 380.746 90.0257 375.335C88.6197 374.374 87.1713 373.395 85.7471 372.474C80.1496 368.842 75.1353 366.547 69.9553 365.267C67.6103 364.686 65.2096 364.316 62.7376 364.154C59.5129 363.943 56.137 364.08 52.5674 364.575C51.113 364.779 49.6719 364.999 48.1291 365.24C42.9261 366.057 37.5645 366.905 32.4788 366.572C32.422 366.569 32.3651 366.565 32.3082 366.561C26.557 366.157 22.0752 364.225 18.6266 360.675C13.0509 354.949 10.4676 345.351 11.7139 335.005C12.74 326.499 16.0118 318.781 20.9208 313.282C26.309 307.243 33.4977 303.975 41.7245 303.827C51.8947 303.635 62.6153 304.621 73.5623 306.733C75.9714 307.204 78.3769 307.717 80.699 308.212C82.4559 308.596 84.2854 308.987 86.0738 309.347C92.6357 310.674 99.7651 311.81 107.497 311.159C112.044 310.771 117.272 309.586 122.817 308.336C136.748 305.165 152.547 301.575 162.646 309.895C168.156 314.433 169.35 321.929 170.489 329.178C170.934 331.961 171.348 334.584 171.989 336.994C174.412 346.01 175.964 355.212 170.932 361.503C167.111 366.273 161.029 367.66 154.586 369.108Z" fill="#231F20"/>
<path d="M43.0065 332.925L42.9786 332.922C42.5576 332.81 42.0651 332.72 41.5581 332.616C39.9101 332.28 38.0527 331.888 36.8475 330.91C36.1699 330.352 35.8251 329.518 35.9376 328.683C36.0755 327.651 36.5063 326.296 37.2977 325.533C37.9971 324.88 39.0268 324.834 39.8193 325.385C40.7547 325.902 40.5913 327.318 40.5235 327.927C40.4606 328.436 40.5877 328.901 40.8926 329.249C41.252 329.658 41.8207 329.908 42.4886 329.937L42.589 329.93C45.0744 329.893 47.6433 329.875 50.1734 329.784C51.554 329.617 52.1881 328.217 52.4422 327.379C52.6479 326.421 52.8717 325.394 53.0665 324.366C53.1778 322.89 53.1912 321.364 52.4833 320.192C51.9436 319.287 50.9829 318.482 49.6434 317.809C47.9857 316.973 46.0485 316.705 44.5456 316.563C41.6815 316.52 39.3196 316.636 37.1174 316.949C35.2285 317.24 33.4002 318.376 31.3335 320.523C29.6347 322.295 28.1161 324.363 26.9363 326.483C26.2575 327.709 25.4008 329.25 25.1153 330.772C24.872 332.097 25.1975 333.445 25.9828 334.31C27.3937 335.856 29.5609 336.754 31.6687 337.476C32.1007 337.634 32.5907 337.765 33.1086 337.913C34.678 338.358 36.4422 338.873 37.5868 339.903C38.2463 340.502 38.6335 341.355 38.6347 342.211C38.6383 343.238 38.5573 344.702 37.8555 345.626C37.5905 345.965 37.2202 346.184 36.7895 346.213C36.2885 346.252 35.7864 346.062 35.3568 345.648C34.7518 345.082 34.3948 344.217 34.2992 343.068C34.2097 342.036 33.566 340.738 32.0402 340.511C29.7992 340.322 27.6164 340.108 25.4843 339.54C25.3573 339.519 25.2024 339.493 25.1261 339.56C25.0051 339.666 24.8963 340.03 24.9459 340.589C25.0693 341.525 25.2205 342.49 25.4105 343.516C25.8921 345.758 26.5068 347.695 27.3054 349.445C28.2044 351.415 29.2329 352.923 30.4684 354.103C31.7994 355.359 33.4147 356.178 35.1366 356.461C37.294 356.63 39.5652 356.579 42.0784 356.329C43.9285 355.95 45.1434 355.045 46.0061 353.419C46.9971 351.558 47.4363 349.418 47.8865 347.337C48.0341 346.605 48.212 345.86 48.3862 345.143C48.7032 343.796 49.0214 342.404 49.2223 341.076C49.474 339.41 49.8225 337.135 48.7988 335.77C47.5525 334.091 45.0272 333.441 43.0065 332.925Z" fill="#F9F4DA"/>
<path d="M49.926 334.888C48.3905 332.834 45.5978 332.124 43.3677 331.536L43.3399 331.534C43.0592 331.458 42.7639 331.397 42.4687 331.335C42.482 331.336 42.4965 331.336 42.4965 331.336L42.6115 331.33C45.1101 331.292 47.708 331.263 50.2527 331.186C50.2672 331.187 50.295 331.19 50.3107 331.176C51.9346 330.997 53.2148 329.739 53.8307 327.74C53.8319 327.726 53.8464 327.712 53.8488 327.683C54.069 326.7 54.2965 325.63 54.495 324.545C54.4974 324.517 54.4986 324.503 54.4998 324.475C54.6353 322.843 54.6438 320.96 53.7315 319.417C53.0502 318.274 51.9019 317.287 50.2999 316.483C48.4207 315.547 46.2996 315.252 44.6697 315.088C44.6564 315.087 44.6419 315.086 44.614 315.085C41.664 315.035 39.2162 315.16 36.9268 315.482C34.0156 315.934 31.7698 317.984 30.3323 319.473C28.5414 321.339 26.9442 323.503 25.7149 325.733C24.9864 327.055 24.0814 328.694 23.7522 330.455C23.4243 332.202 23.889 334.03 24.9671 335.214C26.6054 337.003 28.9529 337.984 31.2398 338.776C31.5193 338.865 31.7988 338.955 32.1074 339.045C29.9644 338.863 27.8675 338.655 25.8758 338.126C25.8613 338.125 25.8613 338.125 25.848 338.124C25.0324 337.942 24.5158 338.208 24.2266 338.474C23.5308 339.085 23.5187 340.14 23.5671 340.714C23.5659 340.728 23.5659 340.728 23.5647 340.742C23.6881 341.706 23.8515 342.701 24.039 343.754C24.0378 343.769 24.0378 343.769 24.0378 343.782C24.5399 346.126 25.1921 348.166 26.0282 350.003C27.0011 352.135 28.1337 353.807 29.5046 355.095C31.0486 356.565 32.9423 357.501 34.9472 357.818C34.9618 357.819 34.9896 357.821 35.0041 357.822C35.1324 357.83 35.274 357.839 35.4022 357.847C37.5476 357.988 39.7897 357.934 42.2606 357.681C42.2884 357.684 42.3041 357.671 42.3319 357.672C44.5886 357.206 46.2064 356.014 47.264 354.029C48.3372 352.002 48.8128 349.751 49.2823 347.585C49.4287 346.866 49.6053 346.137 49.7663 345.419C50.0845 344.042 50.4196 342.623 50.6241 341.239C50.9036 339.36 51.3175 336.733 49.926 334.888ZM49.2097 341.047C49.0088 342.374 48.676 343.765 48.3735 345.114C48.2126 345.832 48.0359 346.576 47.8738 347.307C47.4394 349.376 46.9844 351.528 45.9934 353.39C45.1307 355.016 43.917 355.907 42.0657 356.3C39.5525 356.549 37.2813 356.601 35.1239 356.432C33.4008 356.162 31.7988 355.344 30.4557 354.072C29.219 352.908 28.1918 351.386 27.2927 349.415C26.4941 347.666 25.8794 345.729 25.3978 343.486C25.2079 342.461 25.0566 341.496 24.932 340.56C24.8824 340.015 24.9925 339.637 25.1135 339.531C25.1897 339.464 25.3458 339.475 25.4717 339.511C27.6025 340.079 29.7999 340.293 32.0275 340.482C33.5533 340.709 34.1958 342.006 34.2854 343.039C34.3822 344.186 34.7391 345.051 35.3441 345.619C35.7749 346.018 36.2891 346.223 36.7768 346.184C37.2063 346.155 37.5778 345.936 37.8428 345.597C38.5446 344.673 38.6269 343.194 38.6221 342.182C38.6196 341.339 38.2203 340.472 37.5742 339.873C36.4283 338.843 34.6641 338.343 33.0959 337.884C32.578 337.735 32.088 337.59 31.6548 337.447C29.5336 336.724 27.381 335.827 25.9702 334.28C25.1849 333.416 24.8594 332.068 25.1026 330.743C25.387 329.221 26.2437 327.68 26.9237 326.454C28.1034 324.32 29.622 322.265 31.3208 320.493C33.373 318.345 35.2159 317.211 37.1035 316.92C39.3069 316.607 41.6688 316.491 44.5329 316.534C46.0358 316.676 47.973 316.944 49.6307 317.78C50.9847 318.453 51.9443 319.258 52.4706 320.163C53.1773 321.35 53.1652 322.861 53.0538 324.337C52.8711 325.381 52.6473 326.407 52.4295 327.348C52.1754 328.188 51.5413 329.588 50.1607 329.754C47.6306 329.831 45.0605 329.864 42.5764 329.901L42.4759 329.908C41.8068 329.879 41.2381 329.642 40.8799 329.22C40.5895 328.873 40.4613 328.423 40.5097 327.898C40.5787 327.289 40.742 325.872 39.8055 325.356C38.9996 324.804 37.9686 324.864 37.285 325.504C36.4803 326.251 36.0484 327.62 35.9237 328.654C35.8112 329.502 36.156 330.338 36.8349 330.881C38.04 331.859 39.8974 332.251 41.5454 332.587C42.0512 332.691 42.5304 332.794 42.966 332.893L42.9938 332.896C45.0145 333.412 47.5265 334.061 48.774 335.712C49.8098 337.106 49.4601 339.394 49.2097 341.047ZM33.5194 339.48C34.7089 339.843 35.9225 340.265 36.6497 340.926C37.014 341.249 37.2257 341.719 37.2378 342.177C37.2414 343.433 37.072 344.292 36.7441 344.726C36.7272 344.754 36.7139 344.753 36.6993 344.751C36.6267 344.761 36.5021 344.71 36.3545 344.572C35.9382 344.174 35.7858 343.451 35.7495 342.906C35.6067 341.385 34.7621 340.117 33.5194 339.48ZM39.8357 330.15C40.166 330.542 40.5895 330.841 41.0893 331.044C39.8224 330.777 38.5337 330.421 37.7605 329.801C37.4629 329.567 37.3285 329.216 37.366 328.862C37.487 327.885 37.8597 326.968 38.2857 326.568C38.4067 326.463 38.5386 326.413 38.6947 326.424C38.8084 326.431 38.933 326.482 39.0564 326.562C39.0697 326.576 39.0976 326.593 39.1254 326.609C39.1484 326.682 39.2319 326.944 39.1351 327.764C39.0334 328.657 39.2779 329.501 39.8357 330.15Z" fill="#231F20"/>
<path d="M79.3166 337.235C79.3686 335.57 79.4098 333.846 79.4775 332.153C79.4388 329.027 79.3916 325.157 77.7291 322.439C76.4283 320.3 73.828 319.687 71.7093 319.379C70.7752 319.26 69.8567 319.13 68.9662 319C66.6744 318.693 63.7329 318.53 61.256 319.98C58.5867 321.531 57.3125 324.658 56.4123 327.524C55.6282 330.795 54.8829 334.128 54.1581 337.347C53.1332 341.917 52.0817 346.655 50.8958 351.271C50.6321 352.252 50.8825 353.223 51.1258 353.867C51.5033 354.848 52.2111 355.593 52.994 355.844C54.2512 356.254 55.5181 356.508 57.0197 356.678C58.0567 356.745 59.0913 356.413 59.7894 355.774C60.4864 355.148 61.1749 354.423 61.4121 353.412C61.8489 351.757 62.2905 350.017 62.7068 348.218C62.7854 347.896 63.0867 347.659 63.4134 347.665C64.5242 347.695 65.6217 347.724 66.7023 347.767C66.9164 347.78 67.0955 347.863 67.2274 348.029C67.3593 348.194 67.4173 348.398 67.3762 348.594C67.0737 350.386 66.7518 352.034 66.4179 353.667C66.309 354.673 66.3538 355.076 66.8099 355.747C67.2008 356.315 68.2123 356.552 69.0533 356.549C69.0678 356.55 69.0823 356.552 69.0823 356.552C70.4908 356.615 72.1667 356.725 73.8522 357.134C75.0175 357.41 76.0702 357.464 76.824 357.27C77.2596 357.157 77.8198 356.665 77.8465 356.253C77.8489 356.225 77.8501 356.21 77.8513 356.183C78.9705 349.965 79.1496 343.501 79.3166 337.235ZM69.2941 332.115L69.2759 332.385C69.1682 333.392 69.0581 334.412 68.9638 335.418C68.8077 336.934 68.6516 338.45 68.4822 339.951C68.4434 340.334 68.1119 340.611 67.7283 340.587L67.7138 340.586C66.9757 340.523 66.2098 340.459 65.2732 340.384C65.0748 340.371 64.8812 340.273 64.7493 340.107C64.6319 339.942 64.5738 339.739 64.6162 339.527C64.9683 337.839 65.3361 336.137 65.6725 334.476C65.8419 333.645 66.0246 332.801 66.1928 331.97L66.194 331.956C66.4118 331.029 66.6672 329.962 66.92 328.923C67.1524 327.996 67.5045 327.405 67.9945 327.11C68.1276 327.033 68.2862 327 68.4435 327.011L68.6262 327.038C68.8101 327.063 68.9758 327.145 69.0811 327.295C69.4102 327.702 69.5409 328.324 69.4792 329.275C69.4308 330.228 69.3679 331.194 69.2941 332.115Z" fill="#F9F4DA"/>
<path d="M80.9026 332.189C80.9038 332.175 80.9039 332.16 80.9051 332.146C80.8639 328.849 80.8167 324.752 78.9485 321.691C77.338 319.046 74.348 318.309 71.9026 317.965C70.9685 317.846 70.0488 317.715 69.1728 317.6C66.6547 317.265 63.3986 317.096 60.5514 318.764C57.4514 320.573 56.0429 324.004 55.0544 327.136C55.0532 327.149 55.0386 327.162 55.0374 327.177C54.2521 330.464 53.5056 333.809 52.7808 337.043C51.7559 341.599 50.7056 346.322 49.5367 350.911C49.2524 351.976 49.3455 353.181 49.8235 354.381C50.374 355.787 51.3771 356.808 52.5775 357.2C53.9339 357.631 55.2988 357.92 56.8996 358.096C56.9129 358.097 56.9275 358.098 56.9565 358.099C58.3625 358.191 59.7916 357.713 60.7765 356.836C61.609 356.092 62.4984 355.152 62.8311 353.775C63.2268 352.289 63.614 350.731 63.9903 349.116C64.6171 349.128 65.2439 349.154 65.8707 349.167C65.602 350.647 65.3407 352.043 65.0515 353.407C65.0503 353.435 65.0491 353.45 65.0466 353.477C64.9075 354.738 64.9704 355.527 65.6734 356.557C66.3885 357.616 67.9047 357.987 69.076 357.977C70.4131 358.036 72.003 358.155 73.5627 358.528C74.5452 358.762 75.973 358.97 77.2206 358.652C78.1632 358.414 79.1917 357.511 79.3066 356.405C80.4198 350.074 80.6025 343.553 80.7707 337.259C80.7792 335.605 80.8349 333.882 80.9026 332.189ZM77.8461 356.267C77.8195 356.68 77.2605 357.171 76.8249 357.285C76.0699 357.479 75.0171 357.439 73.8519 357.148C72.1664 356.738 70.4905 356.629 69.082 356.566C69.0675 356.565 69.0542 356.564 69.0542 356.564C68.212 356.566 67.2017 356.315 66.8096 355.762C66.3535 355.089 66.3087 354.687 66.4176 353.682C66.7515 352.063 67.0734 350.401 67.3759 348.609C67.4171 348.412 67.3602 348.194 67.2283 348.043C67.0964 347.877 66.9161 347.795 66.7032 347.78C65.6214 347.739 64.5251 347.71 63.4143 347.68C63.0719 347.672 62.7718 347.895 62.7077 348.233C62.2915 350.017 61.8631 351.773 61.413 353.427C61.1613 354.437 60.4873 355.148 59.7891 355.788C59.0764 356.426 58.0419 356.757 57.0194 356.691C55.5323 356.523 54.2521 356.254 52.9937 355.859C52.2108 355.607 51.5175 354.863 51.1254 353.882C50.8677 353.237 50.6318 352.266 50.8955 351.285C52.0813 346.669 53.1329 341.93 54.159 337.362C54.8826 334.142 55.6291 330.796 56.412 327.537C57.311 324.687 58.5852 321.56 61.2557 319.994C63.7326 318.544 66.6886 318.709 68.9659 319.014C69.8419 319.142 70.7748 319.275 71.709 319.392C73.8289 319.688 76.428 320.314 77.7288 322.453C79.3913 325.172 79.4373 329.055 79.4772 332.168C79.4095 333.86 79.3683 335.583 79.3163 337.249C79.1505 343.515 78.9703 349.98 77.8643 356.226C77.8643 356.226 77.8631 356.24 77.8461 356.267Z" fill="#231F20"/>
<path d="M69.0956 327.295C68.977 327.16 68.8113 327.063 68.6419 327.037L68.4579 327.012C68.303 326.987 68.1445 327.019 68.0102 327.11C67.5202 327.392 67.1668 327.997 66.9357 328.924C66.6683 329.962 66.4275 331.03 66.2097 331.957L66.2085 331.971C66.0403 332.803 65.8564 333.646 65.6882 334.477C65.3373 336.137 64.984 337.839 64.6307 339.528C64.5895 339.726 64.6331 339.942 64.765 340.108C64.8823 340.272 65.076 340.37 65.2889 340.385C66.2267 340.445 67.0059 340.511 67.7295 340.587H67.7428C68.1264 340.612 68.4591 340.334 68.4978 339.952C68.6684 338.437 68.8246 336.921 68.9794 335.418C69.0883 334.413 69.1972 333.393 69.2916 332.386L69.3098 332.117C69.3836 331.195 69.461 330.229 69.5082 329.291C69.5554 328.338 69.4259 327.703 69.0956 327.295ZM67.9788 330.647C67.9485 331.1 67.9037 331.568 67.8759 332.009L67.8602 332.251C67.7513 333.256 67.6424 334.262 67.548 335.283C67.4076 336.557 67.2806 337.847 67.1402 339.122C66.8414 339.102 66.5159 339.066 66.1746 339.044C66.482 337.624 66.776 336.173 67.0664 334.781C67.2346 333.95 67.4173 333.12 67.5867 332.275C67.7065 331.755 67.842 331.208 67.9788 330.647Z" fill="#231F20"/>
<path d="M106.472 366.851C107.807 363.444 108.303 359.568 108.621 356.223C108.873 352.587 109.086 348.877 109.293 345.283C109.689 338.333 110.101 331.141 110.818 324.1C110.903 323.006 110.894 321.851 110.337 320.758C109.956 320.035 109.024 319.888 108.262 319.981C106.78 320.183 105.229 320.34 103.668 320.438L103.653 320.436C102.61 320.468 101.578 320.986 100.808 321.834C100.102 322.615 99.6758 323.672 99.6201 324.737C99.4652 327.11 99.3515 329.513 99.2136 331.843C98.9014 337.715 98.5771 343.784 97.9176 349.733C97.9164 349.746 97.9152 349.76 97.9152 349.775C97.678 351.215 97.3937 352.737 96.9581 354.163L96.9557 354.191C96.5951 355.337 96.1607 356.765 95.212 357.302C94.9011 357.481 94.5006 357.498 94.111 357.343C93.541 357.12 93.0473 356.589 92.832 355.962C92.4496 354.811 92.5295 353.374 92.5984 352.109L92.6057 351.996C92.6807 350.617 92.7751 349.169 92.9094 347.565C92.9094 347.551 92.9094 347.551 92.9106 347.537C93.679 341.239 93.9573 334.781 94.2223 328.537C94.2828 327.171 94.3445 325.791 94.405 324.425C94.4062 324.412 94.4062 324.412 94.4074 324.397C94.4824 323.461 94.2102 322.615 93.5459 321.645C93.0764 320.959 92.0926 320.509 90.9141 320.433C89.0954 320.327 87.6047 320.202 86.2737 320.058C86.2592 320.058 86.2592 320.056 86.2447 320.056C85.2984 319.923 84.3522 320.204 83.8137 320.81C83.2753 321.403 82.9921 322.24 83.0647 323.1C83.0635 323.115 83.0635 323.115 83.0623 323.13C83.3297 329.751 83.4979 336.794 82.588 343.739C82.2758 346.557 82.0653 349.125 81.9624 351.572C81.8366 354.359 82.1609 356.621 82.9365 358.497C83.9347 360.916 86.1369 362.785 88.3537 364.457C89.9255 365.514 91.5723 366.721 93.5543 368.262C96.1341 370.056 98.8748 371.776 101.624 371.414C103.766 371.154 105.393 369.605 106.472 366.851Z" fill="#F9F4DA"/>
<path d="M108.069 318.57C106.615 318.775 105.107 318.919 103.589 319.019C102.173 319.07 100.773 319.749 99.7577 320.881C98.8212 321.904 98.2766 323.251 98.2125 324.66C98.0576 327.032 97.9439 329.435 97.8059 331.765C97.4962 337.608 97.1731 343.649 96.5161 349.555C96.2837 350.937 96.0163 352.404 95.6001 353.746L95.5989 353.775C95.4004 354.404 95.0205 355.648 94.597 356.006C94.4869 355.956 94.2836 355.785 94.188 355.508C93.8892 354.618 93.9593 353.325 94.0331 352.188L94.0404 352.075C94.1154 350.71 94.2086 349.276 94.3405 347.701C95.1258 341.348 95.392 334.875 95.6582 328.602C95.7199 327.236 95.7804 325.871 95.8409 324.505C95.9377 323.242 95.5856 322.078 94.7386 320.839C94.0234 319.779 92.6682 319.12 91.0202 319.012C89.2161 318.895 87.7689 318.786 86.4355 318.656C85.0077 318.463 83.6379 318.902 82.7631 319.843C81.95 320.717 81.5422 321.946 81.6462 323.193C81.9028 329.757 82.0746 336.73 81.1864 343.562C80.8718 346.422 80.6589 349.019 80.5536 351.509C80.4145 354.509 80.7823 356.972 81.6317 359.039C82.7643 361.78 85.142 363.819 87.5366 365.601C87.5511 365.603 87.5499 365.616 87.5644 365.617C89.1084 366.66 90.7419 367.851 92.7118 369.376C92.7251 369.377 92.7251 369.392 92.7384 369.393C95.127 371.06 97.6753 372.667 100.388 372.845C100.858 372.875 101.343 372.864 101.818 372.795C104.466 372.454 106.529 370.564 107.795 367.338C109.198 363.762 109.716 359.76 110.028 356.3L110.029 356.285C110.281 352.636 110.497 348.912 110.701 345.331C111.097 338.396 111.508 331.22 112.223 324.205L112.224 324.19C112.32 322.942 112.315 321.486 111.581 320.069C110.869 318.724 109.306 318.408 108.069 318.57ZM93.5673 368.278C91.5853 366.735 89.9385 365.53 88.3667 364.471C86.1354 362.814 83.9477 360.931 82.9494 358.511C82.1738 356.635 81.8507 354.36 81.9754 351.587C82.0782 349.141 82.2875 346.572 82.6009 343.754C83.5109 336.81 83.3281 329.766 83.0753 323.144C83.0765 323.129 83.0765 323.129 83.0777 323.116C83.0051 322.254 83.2737 321.417 83.8267 320.826C84.3784 320.234 85.3114 319.938 86.2576 320.071C86.2721 320.072 86.2721 320.072 86.2867 320.073C87.6322 320.218 89.1084 320.328 90.927 320.447C92.1056 320.524 93.0893 320.973 93.5588 321.66C94.2231 322.631 94.4941 323.49 94.4203 324.412C94.4191 324.426 94.4191 324.426 94.4179 324.441C94.3574 325.807 94.2957 327.186 94.2352 328.551C93.9702 334.796 93.6919 341.253 92.9235 347.551C92.9223 347.565 92.9223 347.565 92.9223 347.58C92.8025 349.184 92.6937 350.633 92.6186 352.011L92.6114 352.124C92.5424 353.39 92.4625 354.825 92.8449 355.977C93.0603 356.605 93.5394 357.134 94.1239 357.358C94.5135 357.512 94.914 357.495 95.225 357.316C96.1724 356.779 96.6081 355.352 96.9686 354.207L96.971 354.178C97.4199 352.752 97.691 351.229 97.927 349.789C97.9282 349.776 97.9294 349.761 97.9306 349.747C98.59 343.799 98.9143 337.729 99.2265 331.859C99.3499 329.527 99.4782 327.124 99.6331 324.753C99.6887 323.686 100.116 322.616 100.821 321.849C101.591 321 102.622 320.498 103.666 320.452H103.681C105.241 320.354 106.793 320.199 108.275 319.996C109.024 319.888 109.956 320.049 110.35 320.774C110.921 321.852 110.918 323.007 110.831 324.114C110.1 331.17 109.702 338.347 109.306 345.297C109.1 348.878 108.886 352.588 108.634 356.237C108.329 359.583 107.819 363.473 106.485 366.867C105.406 369.621 103.78 371.155 101.65 371.444C98.8877 371.791 96.147 370.072 93.5673 368.278Z" fill="#231F20"/>
<path d="M125.554 371.549C127.045 370.534 128.34 369.292 129.389 367.848C130.407 366.474 131.163 364.94 131.628 363.287C132.183 361.326 132.263 359.235 132.263 357.267C132.195 356.121 132.131 354.918 132.084 353.674C132.004 353.155 131.817 352.087 131.433 351.849C131.405 351.832 131.31 351.769 131.091 351.84C129.299 352.636 127.612 353.354 125.941 354.029C124.619 354.827 124.354 356.92 124.319 358.103C124.307 358.288 124.31 358.473 124.312 358.658C124.307 359.385 124.298 360.198 124.034 360.951C124.017 360.993 124.001 361.021 123.984 361.047C123.611 361.737 123.117 362.118 122.573 362.125C122.189 362.129 121.83 361.92 121.64 361.565C121.142 360.663 121.086 359.332 121.049 358.161C121.046 357.989 121.041 357.832 121.023 357.673C120.937 355.942 120.952 354.189 120.959 352.548C120.96 352.535 120.96 352.535 120.96 352.52C121.091 349.432 121.236 346.333 121.366 343.702V343.688C121.54 341.46 121.694 339.758 121.869 338.172C121.897 337.96 121.91 337.761 121.938 337.549C122.082 336.217 122.214 334.857 122.687 333.732C123.009 332.954 123.558 332.833 123.788 332.819C124.059 332.808 124.582 332.886 124.978 333.611C125.003 333.655 125.028 333.699 125.039 333.757C125.26 334.528 125.204 335.38 125.154 336.132C125.14 336.36 125.126 336.572 125.128 336.773C125.095 338.353 125.272 339.378 125.672 339.79C125.765 339.896 125.875 339.946 126.018 339.955C127.778 339.656 129.395 339.348 130.943 339.036C132.042 338.593 132.409 336.892 132.606 335.635C132.736 334.288 132.884 332.9 133.044 331.541C133.181 329.439 133.338 327.266 132.812 325.249C132.437 323.784 131.68 322.507 130.759 321.749C129.716 320.896 128.568 320.35 127.022 319.979C125.139 319.784 123.677 319.661 122.284 319.57C119.943 319.602 118.436 321.486 117.563 323.056C115.944 326.003 115.312 329.571 114.839 332.663C114.241 336.576 113.773 340.681 113.443 344.869C113.239 347.993 112.989 351.386 112.645 355.557C112.349 360.103 112.367 363.542 112.703 366.688C112.933 368.843 113.46 371.929 115.359 373.851C116.578 375.086 118.278 375.254 120.576 374.362C122.186 373.526 123.816 372.591 125.554 371.549Z" fill="#F9F4DA"/>
<path d="M133.694 357.203C133.626 356.057 133.563 354.826 133.516 353.583C133.519 353.554 133.507 353.51 133.509 353.482C133.378 352.632 133.142 351.219 132.197 350.629C131.882 350.437 131.365 350.26 130.638 350.484C130.607 350.496 130.594 350.496 130.564 350.508C128.757 351.303 127.055 352.034 125.37 352.708C125.341 352.72 125.312 352.733 125.282 352.76C124.258 353.349 123.025 354.751 122.912 358.025C122.9 358.224 122.901 358.423 122.902 358.624C122.904 359.238 122.891 359.878 122.728 360.41C122.556 359.771 122.516 358.855 122.48 358.097C122.476 357.925 122.474 357.754 122.456 357.596C122.379 355.908 122.378 354.182 122.397 352.571C122.527 349.498 122.672 346.413 122.8 343.783C122.972 341.582 123.126 339.895 123.3 338.322C123.328 338.111 123.341 337.898 123.37 337.686C123.474 336.736 123.566 335.773 123.79 334.96C123.795 335.317 123.771 335.7 123.748 336.042C123.732 336.282 123.718 336.51 123.716 336.739C123.683 338.134 123.771 339.837 124.653 340.765C125.026 341.159 125.512 341.363 126.054 341.37C126.097 341.372 126.14 341.362 126.182 341.364C128.014 341.055 129.69 340.737 131.296 340.4C131.325 340.388 131.367 340.39 131.396 340.378C133.457 339.628 133.866 336.858 134.02 335.813C134.021 335.798 134.022 335.785 134.023 335.771C134.154 334.424 134.302 333.035 134.463 331.662C134.464 331.648 134.464 331.634 134.464 331.634C134.603 329.518 134.774 327.117 134.193 324.869C133.738 323.099 132.837 321.586 131.659 320.624C130.427 319.616 129.085 318.972 127.3 318.556C127.273 318.555 127.245 318.538 127.202 318.536C125.26 318.337 123.771 318.211 122.35 318.119C122.336 318.118 122.308 318.117 122.293 318.116C119.881 318.144 117.816 319.606 116.311 322.347C114.593 325.501 113.923 329.209 113.428 332.429C112.826 336.384 112.357 340.518 112.024 344.748C112.024 344.748 112.024 344.748 112.023 344.761C111.82 347.872 111.57 351.266 111.227 355.436C110.923 360.081 110.951 363.592 111.296 366.824C111.555 369.195 112.145 372.6 114.355 374.826C115.251 375.726 116.332 376.225 117.596 376.308C118.646 376.376 119.831 376.154 121.133 375.655C121.163 375.641 121.192 375.629 121.207 375.616C122.848 374.739 124.508 373.792 126.276 372.709C126.29 372.71 126.291 372.695 126.306 372.682C127.933 371.576 129.349 370.214 130.507 368.648C131.619 367.138 132.456 365.453 132.973 363.647C133.583 361.517 133.671 359.298 133.665 357.201C133.692 357.232 133.693 357.217 133.694 357.203ZM115.387 373.867C113.487 371.945 112.961 368.859 112.731 366.704C112.393 363.558 112.375 360.119 112.673 355.574C113.016 351.402 113.266 348.01 113.47 344.885C113.8 340.699 114.269 336.592 114.866 332.679C115.34 329.572 115.987 326.006 117.59 323.072C118.449 321.502 119.97 319.619 122.312 319.586C123.69 319.675 125.15 319.815 127.05 319.995C128.595 320.367 129.743 320.913 130.787 321.765C131.706 322.525 132.465 323.801 132.84 325.266C133.365 327.283 133.222 329.456 133.071 331.558C132.91 332.931 132.764 334.304 132.633 335.651C132.45 336.909 132.069 338.61 130.97 339.052C129.423 339.364 127.805 339.673 126.046 339.971C125.903 339.962 125.793 339.912 125.7 339.806C125.298 339.394 125.121 338.385 125.154 336.789C125.153 336.59 125.167 336.377 125.182 336.149C125.231 335.397 125.288 334.529 125.066 333.773C125.055 333.73 125.029 333.671 125.004 333.627C124.609 332.902 124.087 332.826 123.814 332.835C123.6 332.85 123.051 332.958 122.713 333.749C122.241 334.873 122.11 336.234 121.966 337.565C121.938 337.778 121.923 337.991 121.897 338.188C121.721 339.774 121.567 341.476 121.393 343.704L121.392 343.718C121.264 346.349 121.119 349.45 120.988 352.536C120.987 352.551 120.987 352.551 120.987 352.565C120.965 354.203 120.964 355.958 121.051 357.69C121.054 357.848 121.058 358.018 121.076 358.177C121.128 359.349 121.169 360.679 121.667 361.581C121.858 361.936 122.215 362.145 122.601 362.141C123.143 362.134 123.639 361.753 124.012 361.065C124.027 361.037 124.046 360.994 124.061 360.968C124.324 360.214 124.335 359.388 124.34 358.675C124.337 358.489 124.336 358.289 124.347 358.119C124.395 356.938 124.659 354.858 125.968 354.045C127.638 353.37 129.326 352.652 131.118 351.856C131.35 351.8 131.433 351.849 131.46 351.865C131.844 352.104 132.03 353.186 132.111 353.69C132.159 354.934 132.223 356.137 132.291 357.283C132.291 359.251 132.209 361.356 131.655 363.303C131.176 364.956 130.42 366.489 129.417 367.864C128.368 369.294 127.074 370.536 125.58 371.565C123.842 372.622 122.227 373.543 120.631 374.395C118.305 375.27 116.604 375.102 115.387 373.867Z" fill="#231F20"/>
<path d="M162.863 354.442C163.368 353.919 163.757 353.203 163.965 352.417C164.097 351.912 164.132 351.158 163.948 350.704C163.519 349.635 163.19 348.558 162.92 347.655C162.758 347.089 162.484 346.914 162.275 346.829C162.165 346.779 161.816 346.657 161.118 347.067C156.907 349.959 152.306 351.613 148.372 352.854C148.169 352.912 147.957 352.884 147.778 352.773C147.6 352.662 147.485 352.468 147.456 352.253C147.224 350.34 147.043 348.303 146.878 346.038C146.856 345.709 147.06 345.408 147.366 345.314C150.528 344.307 153.881 343.2 157.122 341.643C157.643 341.306 158.08 340.736 158.293 340.093C158.508 339.422 158.716 338.623 158.599 337.816V337.802C158.511 336.984 158.451 336.565 158.363 335.733C158.364 335.718 158.365 335.704 158.365 335.704C158.33 335.146 158.047 334.457 157.713 334.107C157.42 333.789 157.113 333.697 156.721 333.8C154.397 334.661 151.995 335.388 149.667 336.092C148.866 336.339 148.065 336.587 147.25 336.833C147.046 336.905 146.806 336.862 146.628 336.736C146.452 336.61 146.337 336.403 146.322 336.188C146.188 333.44 146.068 331.335 145.927 329.358C145.905 329.029 146.11 328.713 146.431 328.62C147.9 328.188 149.396 327.786 150.848 327.397C153.141 326.791 155.523 326.147 157.799 325.369C158.196 325.18 158.593 324.579 158.75 324.133C158.979 323.462 159.064 322.598 158.944 322.035L158.945 322.02C158.707 320.635 158.463 319.35 158.202 318.106L158.203 318.091C158.11 317.543 157.741 316.863 157.324 316.479C156.921 316.096 156.519 315.914 156.091 315.914C155.01 316.086 153.902 316.227 152.837 316.372C148.173 316.994 143.366 317.651 139.247 319.992C138.555 320.546 138.299 321.855 138.122 322.815C138.1 322.927 138.08 323.025 138.059 323.125C137.717 324.871 137.562 326.8 137.564 329.382C137.673 333.412 137.518 337.525 137.358 341.494C137.127 347.441 136.883 353.587 137.551 359.536C137.867 361.027 138.377 361.944 139.182 362.51C139.714 362.888 140.744 363.496 141.683 363.316C148.999 361.839 156.64 359.942 162.863 354.442Z" fill="#F9F4DA"/>
<path d="M164.288 347.246C164.045 346.374 163.54 345.799 162.789 345.508C162.052 345.217 161.232 345.335 160.354 345.877C160.34 345.875 160.339 345.89 160.324 345.903C156.545 348.495 152.406 350.065 148.761 351.253C148.602 349.774 148.461 348.209 148.329 346.518C151.287 345.569 154.627 344.447 157.778 342.941C157.794 342.928 157.823 342.915 157.838 342.902C158.67 342.386 159.325 341.544 159.647 340.552C159.896 339.784 160.163 338.746 160.008 337.637C159.918 336.833 159.874 336.416 159.783 335.612C159.728 334.724 159.308 333.726 158.733 333.132C158.065 332.432 157.225 332.193 156.309 332.447C156.295 332.446 156.266 332.458 156.251 332.471C153.956 333.319 151.569 334.049 149.254 334.753C148.744 334.905 148.22 335.071 147.711 335.222C147.605 333.147 147.502 331.444 147.393 329.838C148.672 329.466 149.964 329.122 151.227 328.791C153.564 328.173 155.974 327.531 158.31 326.729C158.324 326.716 158.353 326.717 158.368 326.703C159.219 326.331 159.852 325.374 160.117 324.607C160.347 323.923 160.55 322.766 160.371 321.799C160.134 320.4 159.891 319.1 159.616 317.841C159.458 317.004 158.948 316.058 158.331 315.461C157.633 314.787 156.827 314.464 156.01 314.51C155.983 314.509 155.968 314.508 155.939 314.52C154.857 314.692 153.75 314.833 152.671 314.977C147.865 315.62 142.899 316.294 138.527 318.79C138.498 318.802 138.482 318.815 138.452 318.842C137.298 319.708 136.976 321.356 136.74 322.567C136.719 322.666 136.698 322.779 136.678 322.863C136.315 324.708 136.154 326.723 136.165 329.405L136.164 329.42C136.274 333.406 136.108 337.49 135.95 341.445C135.715 347.449 135.466 353.666 136.154 359.731C136.152 359.759 136.165 359.775 136.163 359.802C136.437 361.077 136.918 362.663 138.364 363.684C139.059 364.171 140.037 364.706 141.103 364.775C141.386 364.795 141.673 364.785 141.977 364.718C149.464 363.224 157.323 361.27 163.82 355.503C163.836 355.489 163.85 355.476 163.851 355.463C164.554 354.752 165.057 353.829 165.338 352.792C165.526 352.105 165.612 351.013 165.266 350.177C164.876 349.153 164.545 348.119 164.288 347.246ZM139.212 362.498C138.407 361.932 137.91 361.015 137.58 359.524C136.912 353.575 137.156 347.429 137.388 341.481C137.547 337.513 137.702 333.4 137.594 329.37C137.592 326.788 137.731 324.857 138.088 323.111C138.108 323.013 138.129 322.915 138.151 322.802C138.327 321.843 138.584 320.534 139.277 319.98C143.395 317.639 148.217 316.998 152.866 316.359C153.93 316.215 155.04 316.059 156.119 315.902C156.534 315.886 156.936 316.069 157.352 316.467C157.755 316.863 158.124 317.545 158.232 318.079L158.231 318.093C158.492 319.336 158.737 320.623 158.974 322.008L158.973 322.021C159.079 322.585 158.994 323.449 158.779 324.12C158.62 324.58 158.226 325.168 157.828 325.356C155.552 326.135 153.171 326.764 150.876 327.385C149.424 327.774 147.929 328.176 146.46 328.608C146.14 328.701 145.935 329.002 145.955 329.346C146.097 331.323 146.215 333.443 146.351 336.176C146.365 336.39 146.48 336.598 146.657 336.724C146.835 336.848 147.061 336.877 147.279 336.821C148.08 336.574 148.88 336.326 149.695 336.08C152.024 335.376 154.411 334.648 156.75 333.787C157.142 333.685 157.436 333.775 157.742 334.095C158.076 334.444 158.359 335.134 158.394 335.692C158.393 335.706 158.393 335.721 158.393 335.721C158.481 336.553 158.525 336.971 158.628 337.79V337.804C158.745 338.625 158.537 339.41 158.322 340.081C158.109 340.722 157.672 341.294 157.15 341.63C153.911 343.188 150.557 344.295 147.395 345.302C147.076 345.395 146.87 345.71 146.906 346.025C147.072 348.29 147.267 350.329 147.485 352.239C147.514 352.456 147.63 352.635 147.808 352.76C147.986 352.872 148.212 352.901 148.402 352.842C152.349 351.602 156.936 349.947 161.148 347.055C161.846 346.63 162.194 346.767 162.305 346.817C162.528 346.903 162.787 347.077 162.95 347.643C163.219 348.546 163.562 349.624 163.977 350.692C164.162 351.146 164.127 351.899 163.994 352.405C163.786 353.19 163.396 353.907 162.892 354.429C156.669 359.943 149.028 361.827 141.728 363.291C140.773 363.484 139.743 362.876 139.212 362.498Z" fill="#231F20"/>
<rect width="208.095" height="90.0854" transform="matrix(-0.87727 0.479998 0.48007 0.87723 441.273 130.289)" fill="#ED203D"/>
<path d="M364.611 250.904C365.107 252.031 365.164 253.246 364.782 254.549C364.448 255.826 363.605 256.896 362.252 257.757C358.544 260.091 355.45 261.936 352.97 263.293C350.49 264.65 347.502 266.133 344.005 267.742C341.304 268.916 339.333 268.536 338.091 266.601C337.609 265.831 336.999 264.828 336.261 263.59C335.497 262.306 334.8 261.198 334.168 260.267C333.584 259.31 332.904 258.679 332.129 258.373C331.401 258.042 330.475 258.184 329.352 258.798L324.089 261.679C322.966 262.293 322.324 263.009 322.163 263.826C322.05 264.618 322.215 265.531 322.659 266.565C323.15 267.573 323.73 268.745 324.401 270.08C325.045 271.369 325.562 272.424 325.95 273.245C326.911 275.333 326.169 277.198 323.723 278.841C320.483 280.918 317.459 282.724 314.652 284.261C311.891 285.771 308.529 287.459 304.564 289.324C303.109 289.999 301.731 290.146 300.427 289.764C299.171 289.357 298.202 288.642 297.519 287.617C294.892 283.704 291.081 277.187 286.088 268.064C281.095 258.941 277.95 252.971 276.652 250.155C275.328 247.293 274.725 245.191 274.842 243.85C274.934 242.462 275.962 241.231 277.927 240.156L295.051 230.785C296.689 229.889 298.376 229.695 300.114 230.204C301.898 230.687 303.276 231.817 304.249 233.595L312.315 248.332C313.237 250.016 314.423 250.461 315.873 249.668L323.663 245.405C325.114 244.611 325.378 243.372 324.456 241.688L316.391 226.951C315.418 225.173 315.185 223.416 315.694 221.678C316.249 219.916 317.345 218.586 318.983 217.69L335.194 208.819C337.159 207.744 338.751 207.541 339.969 208.212C341.162 208.836 342.607 210.477 344.305 213.135C345.977 215.746 349.31 221.613 354.303 230.736C359.296 239.859 362.732 246.582 364.611 250.904ZM387.031 221.582C389.898 226.822 392.713 228.687 395.473 227.176C398.233 225.666 398.18 222.291 395.312 217.051C394.006 214.665 392.727 212.994 391.474 212.038C390.195 211.035 388.737 210.982 387.1 211.878C385.462 212.774 384.721 214.031 384.877 215.648C385.007 217.218 385.725 219.196 387.031 221.582ZM417.348 204.992C424.313 217.718 419.07 228.855 401.618 238.405C384.167 247.954 371.959 246.366 364.994 233.641C361.691 227.606 361.353 221.711 363.98 215.957C366.606 210.203 372.201 204.984 380.763 200.299C389.325 195.614 396.737 193.716 403 194.605C409.262 195.495 414.045 198.957 417.348 204.992ZM422.947 191.532C422.538 190.784 421.818 190.691 420.789 191.254C418.964 192.253 417.555 192.234 416.562 191.196C416.042 190.691 415.436 189.806 414.745 188.543C414.054 187.28 413.731 186.301 413.777 185.607C413.844 184.841 414.304 184.072 415.159 183.301C416.035 182.457 416.704 181.513 417.166 180.47C417.65 179.354 418.566 177.029 419.915 173.494C421.31 169.934 422.32 167.557 422.944 166.365C423.615 165.147 424.699 164.128 426.196 163.309L429.705 161.388C431.342 160.492 432.557 160.101 433.349 160.215C434.115 160.282 434.729 160.737 435.19 161.579L438.839 168.246C439.376 169.228 440.066 169.489 440.908 169.028L448.418 164.919C449.634 164.253 450.64 164.037 451.437 164.27C452.28 164.477 453.214 165.517 454.238 167.388C455.236 169.213 455.596 170.536 455.316 171.358C455.036 172.18 454.335 172.898 453.212 173.512L445.913 177.506C445.258 177.865 444.927 178.259 444.919 178.689C444.911 179.119 445.074 179.638 445.406 180.246L450.015 188.667C450.98 190.207 452.294 191.22 453.959 191.707C455.671 192.169 457.533 191.849 459.545 190.748C460.527 190.211 461.603 189.288 462.772 187.979C463.915 186.624 464.744 185.806 465.258 185.524C466.521 184.833 468.177 186.359 470.226 190.102C471.711 192.815 471.882 194.849 470.739 196.204C469.523 197.538 467.648 199.111 465.114 200.924C462.58 202.736 459.956 204.385 457.242 205.87C454.528 207.355 451.816 208.565 449.106 209.501C446.417 210.364 443.76 210.785 441.133 210.763C435.949 210.621 431.589 207.322 428.056 200.866L422.947 191.532Z" fill="#F9F4DA"/>
<path d="M364.611 250.904L362.777 251.701L362.78 251.708L364.611 250.904ZM364.782 254.549L362.863 253.987L362.855 254.015L362.848 254.042L364.782 254.549ZM362.252 257.757L363.317 259.45L363.327 259.444L362.252 257.757ZM344.005 267.742L344.803 269.576L344.822 269.568L344.842 269.559L344.005 267.742ZM338.091 266.601L336.396 267.662L336.402 267.672L336.408 267.681L338.091 266.601ZM336.261 263.59L334.542 264.612L334.543 264.614L336.261 263.59ZM334.168 260.267L332.462 261.309L332.486 261.349L332.513 261.389L334.168 260.267ZM332.129 258.373L331.302 260.194L331.348 260.215L331.396 260.234L332.129 258.373ZM322.163 263.826L320.201 263.441L320.191 263.491L320.184 263.542L322.163 263.826ZM322.659 266.565L320.821 267.354L320.84 267.398L320.861 267.44L322.659 266.565ZM324.401 270.08L326.189 269.186L326.188 269.183L324.401 270.08ZM325.95 273.245L327.767 272.409L327.763 272.399L327.758 272.389L325.95 273.245ZM323.723 278.841L324.803 280.524L324.821 280.513L324.839 280.501L323.723 278.841ZM304.564 289.324L305.406 291.139L305.416 291.134L304.564 289.324ZM300.427 289.764L299.811 291.667L299.838 291.676L299.866 291.684L300.427 289.764ZM297.519 287.617L299.184 286.508L299.18 286.502L297.519 287.617ZM276.652 250.155L278.468 249.318L278.467 249.316L276.652 250.155ZM274.842 243.85L276.835 244.024L276.836 244.003L276.838 243.982L274.842 243.85ZM300.114 230.204L299.552 232.123L299.572 232.129L299.591 232.134L300.114 230.204ZM315.694 221.678L313.786 221.078L313.78 221.097L313.774 221.117L315.694 221.678ZM339.969 208.212L339.004 209.964L339.023 209.974L339.042 209.984L339.969 208.212ZM344.305 213.135L342.62 214.212L342.621 214.214L344.305 213.135ZM362.78 251.708C363.066 252.359 363.127 253.086 362.863 253.987L366.702 255.111C367.201 253.406 367.147 251.702 366.442 250.099L362.78 251.708ZM362.848 254.042C362.667 254.732 362.201 255.419 361.177 256.071L363.327 259.444C365.008 258.373 366.229 256.921 366.717 255.056L362.848 254.042ZM361.187 256.065C357.496 258.387 354.44 260.208 352.01 261.538L353.93 265.047C356.459 263.663 359.591 261.795 363.317 259.45L361.187 256.065ZM352.01 261.538C349.582 262.867 346.638 264.329 343.169 265.925L344.842 269.559C348.367 267.936 351.398 266.432 353.93 265.047L352.01 261.538ZM343.208 265.908C342.063 266.406 341.324 266.459 340.88 266.374C340.511 266.303 340.147 266.101 339.775 265.521L336.408 267.681C337.277 269.036 338.519 269.992 340.122 270.301C341.649 270.596 343.246 270.253 344.803 269.576L343.208 265.908ZM339.786 265.54C339.315 264.787 338.713 263.797 337.979 262.566L334.543 264.614C335.285 265.858 335.903 266.875 336.396 267.662L339.786 265.54ZM337.98 262.568C337.202 261.26 336.483 260.117 335.824 259.144L332.513 261.389C333.116 262.279 333.792 263.351 334.542 264.612L337.98 262.568ZM335.875 259.224C335.142 258.023 334.162 257.025 332.862 256.512L331.396 260.234C331.646 260.333 332.026 260.596 332.462 261.309L335.875 259.224ZM332.956 256.552C331.38 255.836 329.733 256.31 328.392 257.044L330.312 260.553C330.739 260.319 331.026 260.233 331.191 260.208C331.337 260.186 331.348 260.215 331.302 260.194L332.956 256.552ZM328.392 257.044L323.128 259.924L325.049 263.433L330.312 260.553L328.392 257.044ZM323.128 259.924C321.766 260.669 320.526 261.786 320.201 263.441L324.126 264.212C324.127 264.208 324.136 264.143 324.255 264.011C324.383 263.868 324.624 263.665 325.049 263.433L323.128 259.924ZM320.184 263.542C320 264.817 320.288 266.113 320.821 267.354L324.497 265.775C324.141 264.949 324.099 264.419 324.143 264.111L320.184 263.542ZM320.861 267.44C321.356 268.457 321.94 269.636 322.613 270.977L326.188 269.183C325.521 267.853 324.944 266.688 324.457 265.689L320.861 267.44ZM322.612 270.975C323.253 272.257 323.763 273.297 324.142 274.1L327.758 272.389C327.361 271.55 326.837 270.481 326.189 269.186L322.612 270.975ZM324.133 274.08C324.421 274.706 324.394 275.122 324.256 275.471C324.088 275.891 323.644 276.484 322.608 277.18L324.839 280.501C326.248 279.555 327.397 278.395 327.972 276.95C328.576 275.433 328.44 273.872 327.767 272.409L324.133 274.08ZM322.644 277.157C319.435 279.214 316.451 280.996 313.691 282.506L315.612 286.015C318.467 284.453 321.531 282.622 324.803 280.524L322.644 277.157ZM313.691 282.506C310.977 283.991 307.653 285.661 303.713 287.515L305.416 291.134C309.404 289.257 312.805 287.551 315.612 286.015L313.691 282.506ZM303.723 287.51C302.624 288.02 301.745 288.066 300.989 287.845L299.866 291.684C301.716 292.225 303.595 291.978 305.406 291.139L303.723 287.51ZM301.044 287.862C300.183 287.583 299.598 287.13 299.184 286.508L295.855 288.725C296.806 290.153 298.159 291.132 299.811 291.667L301.044 287.862ZM299.18 286.502C296.606 282.67 292.833 276.221 287.843 267.104L284.334 269.024C289.33 278.152 293.177 284.739 295.859 288.732L299.18 286.502ZM287.843 267.104C282.841 257.966 279.732 252.06 278.468 249.318L274.835 250.993C276.168 253.883 279.349 259.916 284.334 269.024L287.843 267.104ZM278.467 249.316C277.831 247.941 277.393 246.8 277.129 245.881C276.858 244.937 276.807 244.346 276.835 244.024L272.85 243.676C272.761 244.695 272.952 245.826 273.284 246.984C273.623 248.166 274.148 249.507 274.836 250.995L278.467 249.316ZM276.838 243.982C276.862 243.618 277.143 242.865 278.887 241.91L276.967 238.401C274.782 239.597 273.006 241.307 272.846 243.718L276.838 243.982ZM278.887 241.91L296.011 232.54L294.091 229.031L276.967 238.401L278.887 241.91ZM296.011 232.54C297.2 231.889 298.341 231.769 299.552 232.123L300.675 228.284C298.411 227.622 296.178 227.889 294.091 229.031L296.011 232.54ZM299.591 232.134C300.796 232.46 301.755 233.204 302.495 234.555L306.004 232.635C304.797 230.43 302.999 228.913 300.636 228.273L299.591 232.134ZM302.495 234.555L310.561 249.292L314.07 247.372L306.004 232.635L302.495 234.555ZM310.561 249.292C311.137 250.346 311.97 251.342 313.193 251.801C314.487 252.287 315.764 252.008 316.834 251.422L314.913 247.913C314.716 248.021 314.606 248.044 314.573 248.048C314.553 248.051 314.572 248.047 314.599 248.057C314.636 248.071 314.415 248.002 314.07 247.372L310.561 249.292ZM316.834 251.422L324.624 247.159L322.703 243.651L314.913 247.913L316.834 251.422ZM324.624 247.159C325.693 246.574 326.617 245.649 326.906 244.298C327.178 243.021 326.788 241.782 326.211 240.728L322.702 242.648C323.047 243.279 322.985 243.502 322.993 243.463C322.999 243.436 323.013 243.421 323 243.437C322.978 243.462 322.9 243.543 322.703 243.651L324.624 247.159ZM326.211 240.728L318.145 225.991L314.636 227.911L322.702 242.648L326.211 240.728ZM318.145 225.991C317.393 224.618 317.272 223.405 317.613 222.24L313.774 221.117C313.098 223.426 313.442 225.729 314.636 227.911L318.145 225.991ZM317.601 222.279C318 221.014 318.753 220.095 319.943 219.444L318.022 215.936C315.937 217.077 314.498 218.817 313.786 221.078L317.601 222.279ZM319.943 219.444L336.154 210.573L334.234 207.065L318.022 215.936L319.943 219.444ZM336.154 210.573C337.899 209.619 338.685 209.788 339.004 209.964L340.934 206.46C338.817 205.295 336.419 205.869 334.234 207.065L336.154 210.573ZM339.042 209.984C339.328 210.134 339.798 210.496 340.447 211.233C341.079 211.951 341.804 212.935 342.62 214.212L345.991 212.059C345.108 210.678 344.261 209.512 343.449 208.589C342.652 207.685 341.803 206.915 340.896 206.44L339.042 209.984ZM342.621 214.214C344.249 216.756 347.547 222.558 352.549 231.696L356.058 229.776C351.073 220.668 347.706 214.737 345.989 212.057L342.621 214.214ZM352.549 231.696C357.539 240.814 360.937 247.468 362.777 251.701L366.446 250.106C364.528 245.695 361.054 238.905 356.058 229.776L352.549 231.696ZM391.474 212.038L390.239 213.611L390.25 213.62L390.261 213.628L391.474 212.038ZM384.877 215.648L386.87 215.483L386.869 215.47L386.868 215.456L384.877 215.648ZM363.98 215.957L365.799 216.788L365.799 216.788L363.98 215.957ZM403 194.605L403.281 192.625L403.281 192.625L403 194.605ZM385.276 222.542C386.763 225.259 388.374 227.377 390.187 228.578C391.122 229.197 392.154 229.602 393.266 229.672C394.387 229.744 395.454 229.467 396.433 228.931L394.513 225.422C394.112 225.642 393.792 225.698 393.519 225.681C393.238 225.663 392.87 225.557 392.397 225.244C391.396 224.58 390.166 223.145 388.785 220.622L385.276 222.542ZM396.433 228.931C397.412 228.395 398.221 227.646 398.765 226.663C399.305 225.688 399.521 224.601 399.503 223.48C399.468 221.306 398.553 218.808 397.066 216.091L393.557 218.011C394.938 220.534 395.484 222.343 395.503 223.544C395.512 224.111 395.403 224.478 395.266 224.725C395.134 224.964 394.914 225.202 394.513 225.422L396.433 228.931ZM397.066 216.091C395.71 213.612 394.268 211.655 392.687 210.448L390.261 213.628C391.185 214.333 392.302 215.717 393.557 218.011L397.066 216.091ZM392.708 210.464C391.776 209.733 390.694 209.291 389.495 209.247C388.318 209.204 387.188 209.55 386.14 210.123L388.06 213.632C388.65 213.31 389.067 213.234 389.349 213.244C389.608 213.254 389.893 213.34 390.239 213.611L392.708 210.464ZM386.14 210.123C385.092 210.697 384.191 211.462 383.593 212.477C382.984 213.51 382.773 214.66 382.886 215.839L386.868 215.456C386.826 215.018 386.907 214.732 387.039 214.508C387.182 214.266 387.471 213.955 388.06 213.632L386.14 210.123ZM382.884 215.813C383.048 217.795 383.92 220.064 385.276 222.542L388.785 220.622C387.53 218.329 386.966 216.642 386.87 215.483L382.884 215.813ZM415.594 205.952C418.832 211.868 419.129 217.155 416.83 222.038C414.469 227.052 409.223 231.964 400.658 236.65L402.579 240.159C411.465 235.296 417.566 229.865 420.449 223.741C423.394 217.487 422.83 210.842 419.103 204.032L415.594 205.952ZM400.658 236.65C392.094 241.337 385.128 243.108 379.632 242.393C374.28 241.696 369.986 238.597 366.749 232.681L363.24 234.601C366.967 241.41 372.26 245.467 379.116 246.359C385.828 247.232 393.692 245.022 402.579 240.159L400.658 236.65ZM366.749 232.681C363.718 227.143 363.46 221.912 365.799 216.788L362.16 215.127C359.246 221.51 359.664 228.069 363.24 234.601L366.749 232.681ZM365.799 216.788C368.173 211.588 373.346 206.637 381.723 202.053L379.802 198.544C371.055 203.331 365.04 208.819 362.16 215.127L365.799 216.788ZM381.723 202.053C390.099 197.469 397.059 195.781 402.718 196.585L403.281 192.625C396.415 191.65 388.55 193.758 379.802 198.544L381.723 202.053ZM402.718 196.585C408.296 197.378 412.563 200.414 415.594 205.952L419.103 204.032C415.528 197.5 410.229 193.612 403.281 192.625L402.718 196.585ZM416.562 191.196L418.007 189.813L417.982 189.788L417.957 189.763L416.562 191.196ZM413.777 185.607L411.784 185.433L411.782 185.454L411.781 185.475L413.777 185.607ZM415.159 183.301L416.499 184.785L416.524 184.763L416.547 184.741L415.159 183.301ZM417.166 180.47L418.995 181.28L418.998 181.273L419.001 181.265L417.166 180.47ZM419.915 173.494L418.053 172.764L418.049 172.773L418.046 172.781L419.915 173.494ZM422.944 166.365L421.192 165.4L421.182 165.419L421.172 165.438L422.944 166.365ZM433.349 160.215L433.064 162.195L433.119 162.203L433.175 162.207L433.349 160.215ZM451.437 164.27L450.875 166.19L450.917 166.202L450.959 166.212L451.437 164.27ZM455.316 171.358L453.423 170.713L453.423 170.713L455.316 171.358ZM450.015 188.667L448.261 189.627L448.289 189.679L448.32 189.729L450.015 188.667ZM453.959 191.707L453.398 193.627L453.418 193.633L453.439 193.638L453.959 191.707ZM462.772 187.979L464.263 189.312L464.282 189.291L464.3 189.269L462.772 187.979ZM470.739 196.204L472.217 197.551L472.243 197.523L472.268 197.494L470.739 196.204ZM465.114 200.924L463.95 199.297L463.95 199.297L465.114 200.924ZM449.106 209.501L449.718 211.405L449.739 211.398L449.759 211.391L449.106 209.501ZM441.133 210.763L441.079 212.762L441.098 212.763L441.117 212.763L441.133 210.763ZM424.702 190.572C424.251 189.749 423.468 189.061 422.356 188.918C421.389 188.793 420.504 189.131 419.829 189.5L421.749 193.009C421.906 192.923 421.995 192.894 422.023 192.886C422.049 192.879 421.98 192.902 421.845 192.885C421.695 192.866 421.53 192.804 421.387 192.698C421.254 192.599 421.2 192.505 421.193 192.492L424.702 190.572ZM419.829 189.5C419.085 189.907 418.625 189.992 418.391 189.989C418.234 189.987 418.14 189.953 418.007 189.813L415.117 192.58C415.977 193.477 417.084 193.971 418.336 193.989C419.512 194.005 420.668 193.6 421.749 193.009L419.829 189.5ZM417.957 189.763C417.659 189.474 417.17 188.808 416.499 187.583L412.99 189.503C413.703 190.805 414.425 191.907 415.167 192.63L417.957 189.763ZM416.499 187.583C416.191 187.019 415.995 186.574 415.884 186.235C415.768 185.883 415.773 185.737 415.772 185.739L411.781 185.475C411.695 186.78 412.275 188.195 412.99 189.503L416.499 187.583ZM415.769 185.782C415.775 185.719 415.838 185.383 416.499 184.785L413.818 181.816C412.771 182.762 411.913 183.963 411.784 185.433L415.769 185.782ZM416.547 184.741C417.596 183.729 418.421 182.575 418.995 181.28L415.338 179.659C414.987 180.451 414.473 181.184 413.771 181.861L416.547 184.741ZM419.001 181.265C419.506 180.101 420.438 177.734 421.783 174.207L418.046 172.781C416.694 176.324 415.794 178.606 415.331 179.674L419.001 181.265ZM421.777 174.224C423.177 170.651 424.15 168.374 424.716 167.292L421.172 165.438C420.49 166.741 419.443 169.217 418.053 172.764L421.777 174.224ZM424.696 167.33C425.146 166.513 425.917 165.741 427.156 165.063L425.236 161.554C423.481 162.514 422.084 163.78 421.192 165.4L424.696 167.33ZM427.156 165.063L430.665 163.143L428.745 159.634L425.236 161.554L427.156 165.063ZM430.665 163.143C431.419 162.73 432.011 162.47 432.457 162.327C432.929 162.175 433.097 162.199 433.064 162.195L433.634 158.236C432.81 158.117 431.974 158.28 431.231 158.519C430.462 158.767 429.628 159.15 428.745 159.634L430.665 163.143ZM433.175 162.207C433.192 162.209 433.194 162.211 433.188 162.209C433.182 162.206 433.183 162.205 433.193 162.213C433.216 162.23 433.309 162.308 433.435 162.539L436.944 160.619C436.253 159.355 435.124 158.363 433.523 158.223L433.175 162.207ZM433.435 162.539L437.084 169.206L440.593 167.286L436.944 160.619L433.435 162.539ZM437.084 169.206C437.468 169.907 438.079 170.681 439.052 171.049C440.098 171.444 441.1 171.203 441.869 170.783L439.948 167.274C439.904 167.298 439.94 167.269 440.046 167.255C440.165 167.24 440.316 167.251 440.467 167.307C440.609 167.361 440.682 167.43 440.694 167.442C440.701 167.45 440.662 167.412 440.593 167.286L437.084 169.206ZM441.869 170.783L449.378 166.673L447.457 163.165L439.948 167.274L441.869 170.783ZM449.378 166.673C450.424 166.101 450.839 166.179 450.875 166.19L451.998 162.351C450.442 161.895 448.844 162.406 447.457 163.165L449.378 166.673ZM450.959 166.212C450.819 166.178 450.934 166.154 451.281 166.542C451.606 166.903 452.011 167.485 452.483 168.348L455.992 166.428C455.441 165.42 454.866 164.547 454.257 163.869C453.672 163.217 452.898 162.57 451.915 162.328L450.959 166.212ZM452.483 168.348C452.942 169.186 453.203 169.82 453.326 170.273C453.457 170.755 453.38 170.84 453.423 170.713L457.209 172.002C457.532 171.054 457.415 170.066 457.186 169.225C456.95 168.355 456.533 167.415 455.992 166.428L452.483 168.348ZM453.423 170.713C453.366 170.879 453.14 171.272 452.252 171.758L454.172 175.267C455.53 174.524 456.706 173.48 457.209 172.002L453.423 170.713ZM452.252 171.758L444.953 175.752L446.874 179.261L454.172 175.267L452.252 171.758ZM444.953 175.752C444.142 176.196 442.948 177.092 442.919 178.652L446.919 178.726C446.916 178.876 446.884 179.016 446.835 179.135C446.788 179.249 446.734 179.323 446.704 179.358C446.656 179.415 446.674 179.37 446.874 179.261L444.953 175.752ZM442.919 178.652C442.902 179.581 443.244 180.46 443.652 181.206L447.161 179.286C447.041 179.067 446.977 178.908 446.944 178.803C446.91 178.697 446.92 178.677 446.919 178.726L442.919 178.652ZM443.652 181.206L448.261 189.627L451.77 187.707L447.161 179.286L443.652 181.206ZM448.32 189.729C449.531 191.662 451.239 192.995 453.398 193.627L454.521 189.788C453.35 189.445 452.428 188.751 451.711 187.606L448.32 189.729ZM453.439 193.638C455.782 194.27 458.178 193.776 460.505 192.503L458.584 188.994C456.887 189.923 455.56 190.068 454.48 189.776L453.439 193.638ZM460.505 192.503C461.767 191.812 463.019 190.705 464.263 189.312L461.28 186.647C460.187 187.87 459.287 188.609 458.584 188.994L460.505 192.503ZM464.3 189.269C464.851 188.617 465.301 188.123 465.656 187.772C465.833 187.598 465.973 187.471 466.08 187.384C466.194 187.291 466.236 187.269 466.218 187.279L464.298 183.77C463.787 184.05 463.289 184.488 462.845 184.926C462.372 185.394 461.836 185.987 461.243 186.69L464.3 189.269ZM466.218 187.279C465.697 187.564 465.478 187.055 466.092 187.621C466.675 188.158 467.475 189.242 468.471 191.062L471.98 189.141C470.928 187.218 469.876 185.668 468.803 184.679C467.761 183.72 466.082 182.793 464.298 183.77L466.218 187.279ZM468.471 191.062C469.882 193.639 469.491 194.582 469.21 194.915L472.268 197.494C474.273 195.117 473.54 191.991 471.98 189.141L468.471 191.062ZM469.26 194.857C468.184 196.039 466.44 197.517 463.95 199.297L466.277 202.551C468.857 200.706 470.863 199.038 472.217 197.551L469.26 194.857ZM463.95 199.297C461.481 201.063 458.925 202.669 456.282 204.115L458.202 207.624C460.987 206.101 463.678 204.409 466.277 202.551L463.95 199.297ZM456.282 204.115C453.659 205.551 451.049 206.714 448.453 207.611L449.759 211.391C452.583 210.416 455.398 209.159 458.202 207.624L456.282 204.115ZM448.495 207.597C445.993 208.4 443.548 208.783 441.15 208.763L441.117 212.763C443.972 212.787 446.841 212.329 449.718 211.405L448.495 207.597ZM441.188 208.764C436.992 208.649 433.161 206.028 429.81 199.906L426.301 201.826C430.018 208.616 434.905 212.593 441.079 212.762L441.188 208.764ZM429.81 199.906L424.702 190.572L421.193 192.492L426.301 201.826L429.81 199.906Z" fill="black"/>
</svg>
