<svg width="546" height="306" viewBox="0 0 546 306" fill="none" xmlns="http://www.w3.org/2000/svg">
<path d="M293.486 193.975L287.214 197.303L267.237 159.664L273.509 156.336C276.877 154.551 278.413 150.621 277.139 147.014C276.023 143.819 274.923 138.809 276.093 133.111C277.413 126.624 281.33 120.609 287.734 115.236C290.726 112.721 293.646 110.267 296.453 107.888C313.817 93.2207 328.807 80.5502 342.632 73.2197L453.257 14.511C459.16 11.3775 465.963 10.594 472.436 12.2973C478.896 13.9948 484.433 18.0395 488.027 23.6798L488.157 23.878C501.664 45.1012 513.6 67.5723 523.595 90.6577C526.254 96.7852 526.499 103.643 524.297 109.94C522.089 116.25 517.621 121.442 511.718 124.575L401.068 183.305C387.244 190.634 368.36 195.958 346.481 202.126C342.931 203.129 339.261 204.157 335.511 205.227C327.474 207.518 320.293 207.401 314.178 204.859C308.81 202.637 305.276 198.923 303.251 196.196C302.432 195.099 301.368 194.265 300.198 193.744C298.106 192.81 295.647 192.835 293.486 193.975ZM287.582 172.061L294.996 186.014C295.072 186.158 295.192 186.273 295.335 186.337C295.53 186.424 295.766 186.42 295.952 186.316C296.302 186.129 296.429 185.703 296.241 185.354L288.829 171.401C288.641 171.052 288.214 170.924 287.865 171.112C287.542 171.279 287.395 171.712 287.582 172.061ZM280.546 157.263C280.198 157.449 280.069 157.877 280.257 158.225L282.995 163.374C283.071 163.517 283.191 163.633 283.334 163.696C283.529 163.783 283.765 163.78 283.951 163.676C284.3 163.488 284.428 163.062 284.24 162.714L281.503 157.564C281.316 157.216 280.889 157.088 280.546 157.263ZM498.263 110.607C502.777 108.21 504.908 104.345 504.602 99.1267C504.406 94.675 502.357 89.2407 498.366 82.5346C497.651 81.3427 496.947 80.1247 496.251 78.9256C495.408 77.4588 493.756 76.8307 492.511 77.4908L487.423 80.1932C486.888 80.4844 486.495 80.9795 486.312 81.5993C486.086 82.3866 486.22 83.2729 486.676 84.0684C487.372 85.2675 488.089 86.4913 488.804 87.6832C491.006 91.3776 492.141 94.1441 492.18 95.9073C492.18 95.9073 492.174 95.9204 492.187 95.9262L492.191 96.0215C492.191 96.0215 492.186 96.0346 492.199 96.0404C492.201 96.1039 492.217 96.4537 491.943 97.1731C491.898 97.3088 491.632 97.7984 490.368 98.4657C489.552 98.8967 488.799 99.0126 488.116 98.8324C487.239 98.597 486.417 98.168 485.657 97.5642C484.806 96.888 484.023 96.0559 483.312 95.0996C482.526 94.0318 481.858 93.0481 481.336 92.1917C480.511 90.8261 479.978 89.5752 479.74 88.5025C479.509 87.4486 479.441 86.483 479.543 85.6247C479.657 84.7403 479.888 83.9082 480.225 83.1542C480.627 82.2891 481.043 81.4615 481.48 80.6905L482.279 79.2853C482.764 78.442 483.351 77.3011 484.047 75.8814C484.795 74.3447 485.336 72.4349 485.664 70.1967C486.456 64.7202 485.324 58.6976 482.321 52.2921C480.782 49.0337 479.127 46.1755 477.365 43.7997C475.516 41.3069 473.588 39.3399 471.621 37.9482C469.569 36.5027 467.459 35.608 465.33 35.3129C463.131 35.0019 460.981 35.3832 458.933 36.4801C456.174 37.9459 454.221 39.9115 453.129 42.3235C452.132 44.5593 451.512 46.6829 451.324 48.641C450.842 53.9126 452.185 59.9514 455.3 66.5941C455.891 67.8553 456.494 69.1222 457.111 70.395C457.51 71.2122 458.174 71.8201 458.95 72.0726C459.564 72.2688 460.206 72.2277 460.741 71.9365L465.891 69.1995C467.136 68.5394 467.539 66.8331 466.803 65.3044C466.206 64.0563 465.603 62.7894 464.999 61.5224C463.817 59.0001 463.033 56.8108 462.746 55.2177C462.426 53.4541 462.52 52.5451 462.652 52.0742C462.823 51.4804 463.047 51.05 463.323 50.8148C463.809 50.4239 464.236 50.1311 464.591 49.9307C465.693 49.347 466.332 49.5228 466.71 49.7228C467.582 50.1432 468.414 50.7949 469.166 51.6602C469.991 52.6051 470.724 53.6179 471.293 54.6825C471.965 55.9018 472.418 56.7739 472.691 57.3481C473.387 58.8276 473.835 60.1651 474.005 61.2855C474.19 62.4435 474.225 63.5187 474.108 64.4797C473.979 65.4666 473.739 66.3883 473.387 67.2131C473 68.1158 472.54 68.9707 472.02 69.7518C472.014 69.7649 472.014 69.7649 472.008 69.7778L471.985 69.8299L471.256 71.079C470.829 71.7923 470.249 72.8118 469.494 74.1895C468.662 75.7044 468.084 77.6286 467.756 79.8669C466.82 85.5281 468.144 91.434 471.72 97.3936C475.021 102.919 479 107.033 483.551 109.655C483.551 109.655 483.551 109.655 483.564 109.661C484.204 110.009 484.824 110.332 485.448 110.61C490.044 112.677 494.358 112.684 498.263 110.607ZM458.062 130.829C458.842 131.177 459.704 131.202 460.414 130.834L479.724 120.573C480.272 120.288 480.651 119.787 480.797 119.181C480.986 118.408 480.801 117.531 480.27 116.764C465.614 95.3556 453.345 72.2683 443.82 48.1301C443.489 47.2652 442.855 46.6241 442.11 46.3383C441.52 46.1221 440.897 46.1559 440.349 46.4412L421.045 56.689C419.818 57.3418 419.327 59.0711 419.944 60.6243C420.963 63.2301 422.041 65.8462 423.122 68.4174C423.478 69.2619 424.112 69.9032 424.882 70.1688C425.49 70.3778 426.113 70.3439 426.661 70.0587L438.573 63.7298C441.254 69.9137 444.145 76.082 447.168 82.0914L435.181 88.449C433.936 89.1091 433.547 90.8531 434.314 92.3486C435.595 94.8219 436.91 97.3255 438.253 99.7642C439.051 101.227 440.718 101.892 441.963 101.232L453.956 94.8616C457.256 100.776 460.772 106.662 464.4 112.365L452.488 118.693C451.939 118.979 451.56 119.48 451.39 120.105C451.182 120.885 451.362 121.776 451.861 122.544C453.385 124.892 454.954 127.244 456.533 129.539C456.942 130.126 457.477 130.568 458.062 130.829ZM433.39 142.313C435.999 142.823 438.744 142.332 441.521 140.859C442.91 140.123 444.031 139.251 444.868 138.285C445.693 137.343 446.331 136.334 446.787 135.276C447.257 134.222 447.541 133.133 447.652 132.045C447.755 131.046 447.776 130.09 447.737 129.199C447.449 124.675 445.388 119.267 441.426 112.636C435.639 102.9 430.247 92.7633 425.443 82.4991C422.173 75.5066 418.842 70.7785 415.273 68.0172C413.803 66.9094 411.974 66.0469 409.846 65.4715C407.524 64.8407 404.937 65.2605 402.16 66.7335C399.381 68.2065 397.448 70.1649 396.388 72.5755C395.409 74.8041 394.814 76.9076 394.618 78.8468C394.136 84.1185 395.465 90.1198 398.545 96.7001C399.136 97.9613 399.74 99.2282 400.357 100.501C400.756 101.318 401.42 101.926 402.196 102.179C402.809 102.375 403.452 102.334 403.987 102.043L409.136 99.3055C410.382 98.6454 410.785 96.9391 410.048 95.4104C409.439 94.1565 408.835 92.8896 408.244 91.6284C407.063 89.1061 406.278 86.9168 405.992 85.3238C405.654 83.4588 405.767 82.5427 405.872 82.1686C406.018 81.595 406.23 81.1906 406.501 80.9685C406.987 80.5775 407.414 80.2848 407.762 80.0974C408.149 79.8956 408.637 79.7084 409.191 79.5503C409.475 79.474 409.879 79.5454 410.392 79.7587L410.405 79.7644C410.73 79.9095 411.432 80.3628 412.533 81.7736C413.465 82.9687 414.542 84.852 415.814 87.5552C420.645 97.8626 426.051 108.036 431.879 117.822C434.094 121.522 435.237 124.339 435.305 126.178C435.305 126.178 435.299 126.191 435.313 126.197L435.315 126.26C435.315 126.26 435.31 126.273 435.323 126.279C435.327 126.375 435.336 126.737 435.071 127.507C435.008 127.682 434.749 128.159 433.609 128.757C432.463 129.368 431.888 129.329 431.689 129.287C431.033 129.15 430.529 128.988 430.17 128.812C428.368 127.681 426.318 125.254 424.26 121.796C423.558 120.61 422.836 119.399 422.145 118.187C421.303 116.72 419.65 116.092 418.405 116.752L413.255 119.489C412.72 119.78 412.328 120.275 412.145 120.895C411.918 121.682 412.052 122.568 412.508 123.364C413.205 124.563 413.921 125.787 414.636 126.979C418.352 133.219 422.582 137.679 427.193 140.234C427.559 140.429 427.943 140.615 428.333 140.789C429.795 141.426 431.494 141.951 433.39 142.313ZM398.364 162.396C399.144 162.744 400.006 162.769 400.716 162.4L405.866 159.664C406.414 159.378 406.793 158.877 406.944 158.259C407.133 157.486 406.948 156.609 406.417 155.842C402.161 149.625 398.061 143.198 394.233 136.72C392.498 133.763 391.858 131.39 392.343 129.674C392.657 128.583 393.423 127.74 394.775 127.018L397.128 125.761C402.19 134.785 407.712 143.685 413.549 152.228C414.495 153.601 416.19 154.169 417.416 153.516L422.504 150.814C423.052 150.529 423.431 150.028 423.582 149.41C423.771 148.637 423.586 147.759 423.055 146.992C408.4 125.584 396.149 102.489 386.624 78.351C386.288 77.4993 385.666 76.8321 384.914 76.5593C384.325 76.3431 383.702 76.3768 383.154 76.6622L373.47 81.8033C368.645 84.3733 365.83 88.4795 365.107 94.0485C364.453 99.0409 365.813 105.321 369.04 112.201C372.261 119.062 376.035 123.879 380.249 126.523C380.136 128.592 380.347 130.775 380.86 133.014C381.528 135.884 382.787 138.862 384.571 141.887C388.419 148.389 392.539 154.84 396.815 161.082C397.243 161.694 397.779 162.135 398.364 162.396ZM370.089 175.874C370.089 176.154 370.128 176.452 370.204 176.735C370.52 177.983 371.498 179.042 372.849 179.646C373.318 179.854 373.827 180.004 374.361 180.101C376.447 180.456 379.333 179.858 381.131 177.121C382.02 175.756 382.219 174.021 381.741 172.577L393.018 166.588C393.566 166.302 393.945 165.801 394.09 165.196C394.28 164.423 394.095 163.546 393.564 162.779C378.908 141.371 366.638 118.284 357.113 94.1452C356.782 93.2805 356.149 92.6393 355.403 92.3535C354.814 92.1373 354.191 92.171 353.643 92.4564L334.338 102.704C333.111 103.357 332.621 105.086 333.237 106.639C334.262 109.232 335.334 111.861 336.416 114.433C336.772 115.277 337.406 115.918 338.175 116.184C338.784 116.393 339.407 116.359 339.955 116.074L351.867 109.745C354.548 115.929 357.439 122.097 360.463 128.107L348.475 134.464C347.23 135.125 346.84 136.868 347.607 138.363C348.889 140.838 350.204 143.341 351.547 145.779C352.357 147.248 354.011 147.907 355.257 147.248L367.245 140.89C370.544 146.805 374.046 152.685 377.688 158.393L365.776 164.722C365.228 165.006 364.848 165.507 364.678 166.134C364.47 166.913 364.649 167.804 365.149 168.572C366.672 170.92 368.242 173.272 369.821 175.566C369.915 175.672 370.01 175.776 370.089 175.874ZM330.505 182.139C329.382 182.106 328.215 182.068 327.041 182.043C322.473 181.938 319.702 182.977 319.43 184.883C319.211 186.42 320.712 187.98 323.508 189.226C324.535 189.685 325.739 190.097 327.105 190.458C335.248 192.61 340.54 193.084 350.393 190.217C352.072 189.735 360.772 185.994 362.264 184.572C363.738 183.156 364.642 180.676 363.509 178.673C362.728 177.281 360.743 176.069 358.086 176.504C356.473 176.765 355.04 177.53 353.651 178.267C353.421 178.398 353.184 178.51 352.954 178.641C352.674 178.781 352.393 178.92 352.113 179.061C340.81 162.016 330.977 143.912 322.863 125.173L331.506 120.581C332.733 119.928 333.185 118.213 332.538 116.661C331.449 114.071 330.37 111.423 329.324 108.806C328.988 107.954 328.36 107.3 327.614 107.014C327.025 106.798 326.402 106.832 325.854 107.117L298.99 121.38C297.763 122.033 297.272 123.763 297.889 125.316C298.929 127.946 300.007 130.594 301.116 133.209C301.472 134.054 302.106 134.694 302.876 134.96C303.484 135.169 304.107 135.135 304.656 134.85L313.198 130.307C320.986 148.277 330.334 165.65 341.042 182.071C337.621 182.367 334.181 182.251 330.505 182.139Z" fill="#ED203D"/>
<path d="M385.129 115.03C384.175 114.792 383.856 114.633 383.817 114.616C382.72 113.862 380.941 111.977 378.697 107.189C377.663 104.966 376.949 103.073 376.576 101.566C376.258 100.255 376.16 99.1826 376.27 98.3747C376.362 97.7145 376.602 97.2132 376.979 96.8207C377.523 96.2679 378.257 95.7386 379.136 95.273L381.427 94.0508C384.179 100.391 387.147 106.734 390.272 112.898L387.919 114.155C386.001 115.17 385.257 115.056 385.129 115.03Z" fill="#ED203D"/>
<path d="M451.86 122.544C451.361 121.776 451.195 120.891 451.39 120.105C451.554 119.493 451.939 118.979 452.487 118.694L464.4 112.365C460.758 106.656 457.243 100.77 453.956 94.8617L441.969 101.219C440.723 101.879 439.069 101.219 438.259 99.7514C436.921 97.2996 435.601 94.809 434.319 92.3357C433.547 90.8532 433.941 89.0963 435.187 88.4362L447.168 82.0915C444.132 76.0763 441.241 69.908 438.573 63.7299L426.661 70.0587C426.113 70.344 425.484 70.3909 424.882 70.1688C424.125 69.9091 423.478 69.262 423.122 68.4175C422.035 65.8592 420.963 63.2302 419.943 60.6243C419.327 59.0712 419.818 57.3419 421.045 56.689L440.349 46.4412C440.897 46.1559 441.52 46.1222 442.109 46.3384C442.861 46.6111 443.488 47.2653 443.82 48.1301C453.344 72.2684 465.601 95.3499 480.27 116.764C480.787 117.525 480.985 118.408 480.796 119.181C480.645 119.8 480.272 120.288 479.723 120.573L460.401 130.828C459.69 131.197 458.842 131.177 458.049 130.823C457.464 130.562 456.928 130.121 456.52 129.533C454.96 127.231 453.39 124.879 451.86 122.544ZM457.715 128.741C458.281 129.57 459.236 129.841 459.746 129.57L479.063 119.328C479.25 119.224 479.364 119.072 479.418 118.847C479.51 118.467 479.393 117.994 479.101 117.567C464.377 96.0664 452.071 72.8852 442.505 48.6657C442.332 48.2146 442.023 47.8586 441.685 47.7079C441.659 47.6962 441.646 47.6904 441.62 47.6788C441.406 47.599 441.203 47.6016 441.016 47.7054L421.699 57.9473C421.189 58.2183 420.892 59.1616 421.252 60.1015C422.278 62.6945 423.342 65.3047 424.417 67.8572C424.615 68.32 424.95 68.6876 425.331 68.811C425.558 68.8965 425.768 68.8809 425.968 68.783L438.571 62.0924C438.752 62.0016 438.949 61.9803 439.136 62.0484C439.324 62.1166 439.477 62.2628 439.555 62.4378C442.407 69.0411 445.495 75.6403 448.747 82.0476C448.921 82.3904 448.793 82.8166 448.445 83.0039L435.841 89.6945C435.293 89.9799 435.167 90.8902 435.578 91.6814C436.846 94.1488 438.167 96.6395 439.497 99.0724C439.914 99.8506 440.747 100.254 441.282 99.9624L453.886 93.2719C454.229 93.0974 454.661 93.2123 454.835 93.555C458.344 99.8745 462.1 106.164 465.994 112.25C466.104 112.424 466.138 112.626 466.083 112.82C466.028 113.013 465.907 113.178 465.727 113.269L453.123 119.959C452.936 120.063 452.797 120.235 452.738 120.473C452.64 120.866 452.738 121.346 453.018 121.767C454.58 124.101 456.136 126.447 457.715 128.741Z" fill="#231F20"/>
<path d="M427.173 140.21C422.562 137.654 418.332 133.195 414.616 126.955C413.894 125.744 413.184 124.539 412.488 123.34C412.026 122.557 411.898 121.658 412.124 120.871C412.307 120.251 412.7 119.756 413.235 119.465L418.385 116.728C419.63 116.067 421.27 116.69 422.125 118.162C422.828 119.38 423.538 120.585 424.24 121.771C426.297 125.23 428.348 127.657 430.15 128.788C430.508 128.964 431.013 129.126 431.669 129.263C431.868 129.305 432.443 129.344 433.589 128.733C434.729 128.134 434.988 127.658 435.05 127.483C435.316 126.713 435.306 126.35 435.302 126.255C435.302 126.255 435.308 126.242 435.295 126.236L435.292 126.172C435.292 126.172 435.298 126.159 435.285 126.154C435.217 124.315 434.068 121.511 431.859 117.798C426.031 108.012 420.625 97.8384 415.794 87.5308C414.521 84.8278 413.45 82.9315 412.512 81.7493C411.412 80.3386 410.71 79.8852 410.385 79.7402L410.372 79.7344C409.878 79.5139 409.454 79.4498 409.171 79.5259C408.617 79.6842 408.128 79.8713 407.742 80.0731C407.393 80.2604 406.967 80.5532 406.481 80.9441C406.21 81.1664 405.998 81.5708 405.851 82.1442C405.759 82.5243 405.635 83.4346 405.971 85.2995C406.265 86.9113 407.042 89.0819 408.224 91.6042C408.815 92.8652 409.419 94.1322 410.028 95.3862C410.764 96.9149 410.362 98.6212 409.116 99.2813L403.966 102.018C403.431 102.31 402.79 102.35 402.175 102.154C401.4 101.902 400.735 101.294 400.336 100.477C399.727 99.2227 399.116 97.937 398.525 96.6759C395.444 90.0954 394.117 84.0942 394.598 78.8226C394.793 76.8833 395.381 74.7611 396.367 72.5512C397.427 70.1406 399.374 68.188 402.139 66.7092C404.916 65.2362 407.51 64.8034 409.826 65.4471C411.967 66.0283 413.783 66.8852 415.253 67.993C418.822 70.7543 422.147 75.4953 425.423 82.4749C430.247 92.7636 435.639 102.9 441.439 112.642C445.388 119.267 447.456 124.694 447.75 129.205C447.789 130.096 447.768 131.052 447.665 132.051C447.554 133.139 447.27 134.228 446.8 135.281C446.349 136.327 445.693 137.344 444.881 138.291C444.044 139.258 442.91 140.123 441.534 140.866C438.757 142.338 436.025 142.834 433.403 142.319C431.507 141.956 429.808 141.432 428.326 140.771C427.923 140.591 427.552 140.41 427.173 140.21ZM433.666 140.925C435.948 141.365 438.376 140.921 440.848 139.609C442.074 138.955 443.067 138.198 443.782 137.364C444.51 136.536 445.077 135.65 445.476 134.722C445.888 133.799 446.133 132.864 446.232 131.91C446.331 130.988 446.356 130.095 446.308 129.294C446.036 125.012 444.042 119.804 440.209 113.372C434.381 103.586 428.976 93.4121 424.144 83.1047C420.966 76.3245 417.782 71.7557 414.398 69.1392C413.673 68.5977 412.843 68.1181 411.92 67.7062C411.166 67.3699 410.331 67.0753 409.454 66.8398C407.493 66.3079 405.267 66.6863 402.813 67.9921C400.341 69.3052 398.601 71.0384 397.675 73.15C396.759 75.2356 396.197 77.1975 396.02 78.9894C395.565 83.9922 396.844 89.7535 399.825 96.1025C400.409 97.345 401.02 98.6306 401.63 99.8845C401.861 100.346 402.232 100.699 402.627 100.828C402.802 100.891 403.051 100.924 403.301 100.786L408.45 98.0489C408.998 97.7636 409.136 96.8273 408.744 96.0289C408.134 94.7749 407.536 93.495 406.932 92.2281C405.675 89.5626 404.881 87.3227 404.575 85.5648C404.287 83.94 404.249 82.6607 404.479 81.7969C404.714 80.9199 405.081 80.273 405.591 79.8618C406.151 79.4102 406.652 79.057 407.082 78.8278C407.555 78.5712 408.138 78.348 408.786 78.1539C409.396 77.9741 410.133 78.0691 410.939 78.4287C411.719 78.7767 412.634 79.5903 413.627 80.8592C414.632 82.134 415.758 84.1171 417.08 86.9199C421.902 97.1768 427.275 107.32 433.081 117.05C435.447 121.004 436.622 123.96 436.709 126.072L436.718 126.123C436.745 126.446 436.706 127.021 436.395 127.927C436.142 128.671 435.432 129.352 434.255 129.965C433.109 130.576 432.137 130.797 431.372 130.627C430.587 130.464 429.953 130.243 429.483 130.003C429.47 129.997 429.444 129.985 429.431 129.979C427.388 128.725 425.231 126.188 423.009 122.469C422.307 121.283 421.59 120.059 420.881 118.854C420.432 118.078 419.599 117.675 419.045 117.973L413.895 120.71C413.652 120.835 413.542 121.082 413.485 121.244C413.369 121.644 413.455 122.15 413.705 122.604C414.401 123.804 415.11 125.009 415.82 126.214C419.411 132.243 423.455 136.525 427.844 138.951C429.45 139.823 431.404 140.476 433.666 140.925Z" fill="#231F20"/>
<path d="M380.893 133.045C380.374 130.819 380.164 128.636 380.282 126.554C376.056 123.904 372.282 119.087 369.074 112.232C365.846 105.352 364.487 99.0717 365.14 94.0793C365.858 88.5233 368.665 84.3982 373.504 81.8342L383.186 76.693C383.734 76.4076 384.358 76.3739 384.947 76.5901C385.698 76.8629 386.326 77.5171 386.658 78.3818C396.168 102.514 408.433 125.615 423.088 147.023C423.606 147.784 423.804 148.667 423.615 149.44C423.464 150.059 423.085 150.56 422.536 150.845L417.449 153.548C416.222 154.2 414.509 153.639 413.581 152.258C407.744 143.715 402.204 134.823 397.161 125.792L394.795 127.043C393.45 127.752 392.678 128.608 392.363 129.699C391.878 131.415 392.523 133.776 394.253 136.745C398.081 143.223 402.194 149.656 406.437 155.867C406.955 156.628 407.153 157.512 406.964 158.285C406.813 158.903 406.434 159.404 405.885 159.689L400.736 162.426C400.026 162.795 399.177 162.775 398.384 162.421C397.8 162.16 397.264 161.718 396.856 161.132C392.592 154.896 388.458 148.439 384.61 141.935C382.806 138.887 381.566 135.902 380.893 133.045ZM400.048 161.138L405.198 158.4C405.384 158.297 405.499 158.144 405.552 157.919C405.644 157.539 405.528 157.066 405.235 156.639C400.959 150.399 396.845 143.934 392.99 137.444C391.014 134.084 390.348 131.418 390.956 129.289C391.38 127.811 392.394 126.658 394.088 125.761L397.071 124.177C397.277 124.066 397.507 124.075 397.688 124.157C397.818 124.215 397.944 124.317 398.02 124.461C403.147 133.653 408.765 142.721 414.717 151.425C415.283 152.253 416.238 152.524 416.748 152.253L421.836 149.551C422.022 149.447 422.137 149.295 422.191 149.07C422.282 148.689 422.166 148.217 421.873 147.79C407.163 126.295 394.844 103.108 385.303 78.8684C385.109 78.3926 384.787 78.0308 384.425 77.9001C384.211 77.8204 384.007 77.823 383.82 77.9268L374.138 83.068C369.742 85.4086 367.179 89.1597 366.517 94.2417C365.902 98.9712 367.218 104.967 370.334 111.609C373.413 118.158 377.12 122.914 381.077 125.365C381.116 125.383 381.15 125.413 381.202 125.436C381.254 125.459 381.306 125.483 381.352 125.519C381.6 125.661 381.733 125.923 381.72 126.197C381.561 128.262 381.74 130.446 382.261 132.704C382.897 135.436 384.093 138.276 385.807 141.176C389.634 147.653 393.747 154.086 397.991 160.297C398.575 161.12 399.537 161.409 400.048 161.138Z" fill="#231F20"/>
<path d="M388.587 115.42C386.93 116.302 385.657 116.638 384.789 116.421C384.015 116.232 383.562 116.061 383.301 115.945C383.171 115.887 383.086 115.834 383.021 115.805C381.202 114.572 379.312 111.89 377.393 107.807C376.316 105.503 375.566 103.516 375.171 101.921C374.806 100.434 374.693 99.1835 374.841 98.1893C374.977 97.2212 375.338 96.4471 375.954 95.8338C376.608 95.1741 377.441 94.5641 378.457 94.0351L381.445 92.4381C381.626 92.3473 381.823 92.3259 382.01 92.3942C382.198 92.4623 382.352 92.6086 382.429 92.7835C385.346 99.556 388.518 106.317 391.859 112.873C392.033 113.216 391.905 113.642 391.556 113.83L388.587 115.42ZM381.427 94.051L379.135 95.2732C378.257 95.7388 377.529 96.2552 376.979 96.8209C376.588 97.2076 376.362 97.7147 376.27 98.3749C376.16 99.1828 376.258 100.255 376.576 101.567C376.949 103.073 377.663 104.966 378.697 107.189C380.933 111.959 382.719 113.862 383.817 114.616C383.869 114.64 384.175 114.792 385.129 115.03C385.257 115.056 386.001 115.17 387.919 114.155L390.272 112.899C387.159 106.74 384.186 100.41 381.427 94.051Z" fill="#231F20"/>
<path d="M210.521 207.884L234.477 192.698C236.239 191.614 236.984 189.42 236.243 187.484L232.836 178.452C232.137 176.596 232.924 174.485 234.679 173.554L262.789 158.631C263.262 158.374 263.814 158.325 264.332 158.493C264.7 158.61 265.028 158.818 265.283 159.12C265.376 159.224 265.458 159.354 265.529 159.479L265.653 159.721L265.981 160.35L285.957 197.99L286.285 198.619L286.41 198.862C286.48 198.987 286.537 199.137 286.574 199.263C286.817 200.151 286.427 201.129 285.581 201.594L257.472 216.517C255.715 217.448 253.532 216.926 252.372 215.301L246.805 207.41C245.609 205.722 243.371 205.114 241.496 205.961L215.498 217.274L215.464 217.244C213.128 214.55 211.419 211.324 210.521 207.884ZM239.41 177.939C239.487 178.083 239.606 178.198 239.749 178.262C239.944 178.35 240.18 178.346 240.366 178.242L258.363 168.689L259.621 168.034L261.807 166.874C262.155 166.687 262.283 166.26 262.096 165.912C261.908 165.563 261.482 165.435 261.134 165.623L258.948 166.783L257.69 167.438L239.694 176.991C239.363 177.171 239.236 177.597 239.41 177.939ZM256.496 210.112C256.572 210.254 256.692 210.371 256.835 210.435C257.029 210.522 257.265 210.517 257.452 210.414L275.448 200.861L276.707 200.206L278.892 199.046C279.242 198.858 279.369 198.433 279.181 198.084C278.993 197.736 278.568 197.607 278.219 197.795L276.034 198.955L274.775 199.61L256.779 209.163C256.436 209.337 256.308 209.763 256.496 210.112ZM252.229 202.067C252.305 202.21 252.425 202.326 252.568 202.39C252.763 202.477 252.999 202.472 253.185 202.37L271.182 192.816L272.44 192.162L274.625 191.001C274.974 190.814 275.102 190.388 274.915 190.04C274.727 189.691 274.301 189.563 273.953 189.75L271.767 190.911L270.509 191.565L252.512 201.117C252.169 201.293 252.042 201.719 252.229 202.067ZM247.963 194.023C248.039 194.165 248.159 194.281 248.302 194.346C248.496 194.431 248.732 194.428 248.919 194.324L266.915 184.772L268.174 184.117L270.359 182.957C270.707 182.769 270.836 182.343 270.648 181.995C270.46 181.645 270.035 181.518 269.686 181.706L267.5 182.866L266.241 183.519L248.246 193.073C247.902 193.247 247.775 193.674 247.963 194.023ZM243.69 185.99C243.766 186.134 243.886 186.249 244.029 186.313C244.224 186.4 244.46 186.397 244.646 186.293L262.643 176.739L263.901 176.085L266.086 174.924C266.435 174.738 266.563 174.311 266.376 173.963C266.188 173.614 265.762 173.486 265.414 173.673L263.227 174.834L261.969 175.488L243.973 185.041C243.636 185.202 243.503 185.642 243.69 185.99Z" fill="#0BA95B"/>
<path d="M209.767 206.674L233.728 191.475C234.914 190.741 235.41 189.28 234.919 187.969L231.514 178.937C230.554 176.405 231.639 173.553 234.03 172.282L262.14 157.359C262.956 156.928 263.883 156.842 264.761 157.11C265.503 157.332 266.122 157.796 266.564 158.413L272.854 155.078C275.593 153.619 276.848 150.423 275.807 147.48C274.628 144.117 273.477 138.834 274.71 132.822C276.099 126.007 280.176 119.736 286.832 114.148C289.824 111.633 292.731 109.173 295.551 106.8C312.983 92.0852 328.029 79.3613 341.977 71.9616L452.583 13.26C458.811 9.95943 465.975 9.13451 472.784 10.925C479.592 12.7155 485.419 16.9832 489.205 22.9273L489.334 23.1255C502.889 44.4167 514.841 66.9572 524.884 90.1105C527.678 96.5634 527.945 103.79 525.619 110.436C523.292 117.083 518.588 122.559 512.36 125.86L401.749 184.574C387.794 191.987 368.828 197.32 346.879 203.504C343.33 204.507 339.66 205.536 335.909 206.605C327.55 208.986 320.07 208.845 313.649 206.183C313.441 206.09 313.228 206.01 313.033 205.923C307.715 203.551 304.174 199.82 302.129 197.068C300.267 194.569 296.932 193.798 294.173 195.265L287.883 198.599C288.496 200.198 287.83 202.037 286.28 202.857L258.171 217.78C255.779 219.051 252.811 218.334 251.254 216.128L245.688 208.236C244.885 207.099 243.383 206.693 242.115 207.265L216.115 218.578C215.741 218.754 215.307 218.748 214.956 218.592C214.774 218.509 214.61 218.39 214.462 218.231L214.436 218.187C211.947 215.347 210.131 211.902 209.174 208.249C208.981 207.634 209.234 206.997 209.767 206.674ZM215.516 217.267L241.516 205.953C243.403 205.112 245.628 205.715 246.824 207.402L252.39 215.295C253.538 216.913 255.734 217.441 257.49 216.509L285.6 201.587C286.453 201.141 286.843 200.161 286.593 199.255C286.562 199.116 286.498 198.979 286.429 198.855L286.303 198.611L285.976 197.982L265.999 160.344L265.672 159.715L265.546 159.471C265.477 159.347 265.395 159.216 265.301 159.112C265.059 158.817 264.731 158.609 264.35 158.485C263.827 158.329 263.287 158.385 262.807 158.623L234.698 173.546C232.943 174.478 232.143 176.583 232.856 178.445L236.261 187.477C236.989 189.407 236.245 191.6 234.495 192.69L210.54 207.877C211.437 211.316 213.154 214.56 215.502 217.229L215.516 217.267ZM314.178 204.859C320.292 207.401 327.474 207.519 335.511 205.227C339.26 204.158 342.936 203.117 346.481 202.126C368.36 195.958 387.257 190.641 401.068 183.305L511.699 124.583C517.602 121.449 522.07 116.257 524.278 109.947C526.486 103.638 526.235 96.7925 523.576 90.665C513.568 67.5738 501.645 45.1087 488.138 23.8855L488.008 23.6873C484.415 18.0469 478.89 14.008 472.417 12.3047C465.957 10.6072 459.141 11.385 453.238 14.5184L342.632 73.2199C328.807 80.5504 313.816 93.2209 296.453 107.888C293.632 110.262 290.72 112.735 287.733 115.236C281.33 120.609 277.413 126.624 276.093 133.111C274.936 138.815 276.023 143.819 277.138 147.014C278.406 150.634 276.877 154.551 273.508 156.337L267.237 159.664L287.214 197.304L293.486 193.975C295.647 192.835 298.098 192.792 300.19 193.725C301.36 194.247 302.424 195.08 303.243 196.178C305.276 198.924 308.803 202.617 314.178 204.859Z" fill="#231F20"/>
<path d="M258.343 167.09L258.972 166.763L261.158 165.603C261.506 165.416 261.933 165.543 262.121 165.892C262.307 166.241 262.18 166.667 261.832 166.854L259.645 168.014L258.387 168.668L240.39 178.221C240.186 178.332 239.956 178.324 239.773 178.242C239.63 178.179 239.505 178.076 239.434 177.92C239.247 177.57 239.375 177.144 239.724 176.957L257.72 167.405L258.343 167.09Z" fill="#231F20"/>
<path d="M261.981 175.463L263.239 174.808L265.425 173.648C265.774 173.46 266.2 173.589 266.388 173.937C266.575 174.286 266.447 174.711 266.099 174.899L263.912 176.059L262.654 176.714L244.659 186.266C244.453 186.377 244.223 186.369 244.04 186.288C243.897 186.224 243.772 186.121 243.701 185.965C243.514 185.616 243.642 185.189 243.991 185.003L261.981 175.463Z" fill="#231F20"/>
<path d="M266.248 183.507L267.506 182.853L269.693 181.692C270.041 181.505 270.467 181.633 270.654 181.982C270.842 182.33 270.714 182.756 270.365 182.943L268.18 184.104L266.922 184.758L248.925 194.312C248.719 194.422 248.489 194.413 248.308 194.332C248.164 194.268 248.039 194.165 247.968 194.009C247.78 193.661 247.909 193.235 248.257 193.047L266.248 183.507Z" fill="#231F20"/>
<path d="M270.527 191.558L271.785 190.903L273.971 189.743C274.32 189.555 274.746 189.684 274.934 190.032C275.121 190.381 274.993 190.806 274.645 190.994L272.458 192.154L271.2 192.809L253.204 202.362C252.999 202.472 252.769 202.464 252.587 202.383C252.443 202.319 252.319 202.216 252.247 202.06C252.06 201.711 252.188 201.285 252.536 201.098L270.527 191.558Z" fill="#231F20"/>
<path d="M274.799 199.589L276.058 198.934L278.243 197.774C278.593 197.588 279.019 197.715 279.206 198.063C279.393 198.412 279.266 198.839 278.917 199.025L276.731 200.185L275.472 200.84L257.477 210.393C257.271 210.505 257.041 210.495 256.859 210.414C256.716 210.35 256.59 210.247 256.52 210.091C256.332 209.742 256.46 209.317 256.809 209.129L274.799 199.589Z" fill="#231F20"/>
<path d="M288.847 171.394L296.26 185.347C296.448 185.696 296.32 186.122 295.971 186.309C295.766 186.42 295.536 186.411 295.354 186.33C295.211 186.266 295.086 186.163 295.015 186.007L287.602 172.054C287.414 171.706 287.542 171.279 287.891 171.091C288.233 170.917 288.659 171.045 288.847 171.394Z" fill="#231F20"/>
<path d="M283.938 163.67C283.732 163.781 283.504 163.772 283.321 163.691C283.178 163.627 283.052 163.524 282.982 163.368L280.245 158.219C280.057 157.871 280.185 157.445 280.533 157.257C280.883 157.07 281.309 157.198 281.496 157.546L284.233 162.696C284.428 163.062 284.282 163.495 283.938 163.67Z" fill="#231F20"/>
<path d="M93.8276 236.03C94.1689 236.053 94.4798 236.087 94.7932 236.107C94.9324 234.833 95.0594 233.543 95.1998 232.268C95.3087 231.263 95.4176 230.257 95.512 229.236L95.5277 228.994C95.558 228.54 95.6015 228.087 95.6318 227.632C95.495 228.193 95.3583 228.755 95.2397 229.26C95.0715 230.092 94.8888 230.922 94.7194 231.766C94.4278 233.173 94.135 234.609 93.8276 236.03Z" fill="#ED203D"/>
<path d="M63.4015 239.921C63.4523 240.466 63.5902 241.189 64.0065 241.587C64.1541 241.725 64.2799 241.776 64.3513 241.766C64.3658 241.767 64.3803 241.768 64.3961 241.74C64.724 241.305 64.8946 240.446 64.891 239.191C64.891 238.748 64.6659 238.263 64.3017 237.94C63.56 237.278 62.362 236.843 61.1714 236.494C62.4153 237.117 63.2599 238.385 63.4015 239.921Z" fill="#ED203D"/>
<path d="M66.779 223.595C66.7524 223.579 66.7391 223.563 66.7112 223.547C66.6023 223.469 66.4765 223.418 66.3494 223.409C66.2066 223.401 66.0615 223.448 65.9405 223.555C65.5145 223.954 65.1406 224.871 65.0196 225.847C64.9688 226.201 65.1165 226.553 65.4153 226.786C66.1873 227.421 67.4772 227.763 68.744 228.031C68.2576 227.828 67.8353 227.529 67.4893 227.136C66.9327 226.486 66.6895 225.628 66.7911 224.722C66.8855 223.93 66.8044 223.654 66.779 223.595Z" fill="#ED203D"/>
<path d="M199.643 233.994C198.989 231.582 198.575 228.959 198.143 226.178C196.99 218.928 195.81 211.433 190.3 206.894C180.201 198.575 164.402 202.165 150.471 205.336C144.925 206.599 139.698 207.785 135.151 208.159C127.433 208.81 120.289 207.674 113.728 206.346C111.939 205.987 110.124 205.597 108.353 205.211C106.031 204.717 103.625 204.189 101.216 203.733C90.2546 201.619 79.5484 200.634 69.3782 200.827C61.1659 200.976 53.9627 204.242 48.5745 210.282C43.6655 215.781 40.3936 223.499 39.3675 232.005C38.1212 242.35 40.7046 251.948 46.2658 257.675C49.7289 261.225 54.1962 263.156 59.9474 263.56C60.0043 263.563 60.0611 263.567 60.118 263.571C65.2037 263.903 70.5798 263.057 75.7695 262.24C77.3111 261.998 78.7534 261.763 80.2066 261.573C83.7762 261.078 87.1376 260.942 90.3768 261.153C92.8634 261.315 95.264 261.686 97.5945 262.266C102.775 263.545 107.789 265.842 113.386 269.474C114.796 270.392 116.258 271.387 117.665 272.334C125.6 277.745 133.823 283.345 143.494 282.493C150.036 281.922 155.596 278.49 161.483 274.852C165.423 272.414 169.509 269.898 173.906 268.332C176.565 267.378 179.446 266.724 182.225 266.107C188.67 264.645 194.751 263.273 198.571 258.501C203.618 252.212 202.066 242.995 199.643 233.994ZM76.9202 244.598C76.4653 246.765 75.991 249.016 74.902 251.042C73.8456 253.028 72.2411 254.221 69.9711 254.685C69.9421 254.684 69.9276 254.697 69.8985 254.695C67.4289 254.948 65.171 255 63.0402 254.861C62.9131 254.852 62.7704 254.844 62.6433 254.835C62.6288 254.834 62.5998 254.832 62.5864 254.832C60.5669 254.515 58.6878 253.578 57.1426 252.108C55.7729 250.806 54.6403 249.149 53.6662 247.017C52.8301 245.179 52.1791 243.139 51.6758 240.796C51.677 240.782 51.677 240.782 51.6782 240.768C51.4894 239.714 51.3261 238.719 51.2039 237.755C51.2051 237.741 51.2051 237.741 51.2063 237.727C51.1579 237.154 51.17 236.099 51.8657 235.488C52.1525 235.235 52.6692 234.97 53.486 235.137C53.5005 235.138 53.5005 235.138 53.515 235.139C55.52 235.669 57.6036 235.876 59.7453 236.059C59.4525 235.968 59.1585 235.879 58.879 235.789C56.5763 234.997 54.2301 234.015 52.6062 232.227C51.5281 231.044 51.0623 229.216 51.3902 227.469C51.7181 225.722 52.6256 224.069 53.3541 222.746C54.5979 220.503 56.1952 218.339 57.9702 216.486C59.409 214.997 61.6535 212.946 64.5648 212.495C66.8687 212.174 69.302 212.049 72.252 212.098C72.2665 212.099 72.2798 212.099 72.3089 212.102C73.94 212.251 76.0599 212.546 77.9379 213.497C79.5411 214.3 80.6894 215.287 81.3706 216.431C82.283 217.973 82.2745 219.842 82.139 221.487C82.1366 221.516 82.1354 221.531 82.1342 221.558C81.9345 222.644 81.7082 223.713 81.4868 224.697C81.4856 224.711 81.4856 224.726 81.4687 224.754C80.8673 226.754 79.5871 228.011 77.9487 228.19C77.9354 228.189 77.9064 228.186 77.8919 228.199C75.346 228.29 72.7481 228.32 70.2495 228.343L70.1357 228.349C70.1212 228.349 70.1067 228.348 70.1067 228.348C70.4164 228.411 70.6984 228.472 70.9779 228.548L71.0069 228.549C73.2382 229.123 76.0297 229.833 77.564 231.902C78.9422 233.746 78.5416 236.374 78.2464 238.279C78.0274 239.663 77.7067 241.084 77.3885 242.46C77.2433 243.15 77.0667 243.894 76.9202 244.598ZM106.916 253.417C106.801 254.522 105.773 255.424 104.83 255.663C103.583 255.981 102.155 255.774 101.173 255.538C99.6128 255.166 98.0228 255.047 96.6858 254.989C95.5157 254.997 93.9995 254.614 93.2832 253.569C92.5802 252.538 92.5173 251.75 92.6564 250.489C92.6588 250.46 92.6601 250.447 92.6613 250.418C92.9505 249.039 93.2131 247.644 93.4805 246.178C92.8549 246.152 92.2269 246.139 91.6001 246.126C91.225 247.728 90.8233 249.3 90.4409 250.787C90.0936 252.163 89.2055 253.103 88.3863 253.848C87.4001 254.74 85.9723 255.202 84.5663 255.111C84.5518 255.11 84.5228 255.108 84.5094 255.106C82.9086 254.931 81.5437 254.642 80.1873 254.211C78.9869 253.819 77.9838 252.798 77.4333 251.393C76.9565 250.177 76.8621 248.988 77.1465 247.922C78.3154 243.334 79.3802 238.611 80.3905 234.054C81.1153 230.821 81.8619 227.475 82.6472 224.189C82.6484 224.174 82.6496 224.16 82.6641 224.146C83.6382 221.03 85.0612 217.584 88.1612 215.775C91.0084 214.107 94.2645 214.277 96.7826 214.612C97.6719 214.742 98.5782 214.858 99.5124 214.975C101.943 215.32 104.948 216.058 106.558 218.702C108.427 221.763 108.474 225.86 108.515 229.158C108.514 229.172 108.514 229.186 108.512 229.2C108.445 230.893 108.404 232.617 108.351 234.282C108.226 240.579 108.044 247.086 106.916 253.417ZM139.89 221.221L139.889 221.234C139.174 228.249 138.763 235.425 138.367 242.361C138.161 245.956 137.947 249.665 137.695 253.314L137.694 253.329C137.369 256.788 136.864 260.793 135.462 264.367C134.195 267.594 132.132 269.485 129.484 269.825C128.994 269.892 128.524 269.904 128.054 269.874C125.341 269.698 122.793 268.09 120.406 266.422C120.391 266.421 120.392 266.407 120.378 266.407C118.409 264.88 116.774 263.689 115.23 262.646C115.216 262.646 115.217 262.632 115.203 262.631C112.809 260.848 110.445 258.811 109.298 256.068C108.435 253.987 108.082 251.525 108.22 248.538C108.325 246.062 108.537 243.466 108.852 240.591C109.741 233.759 109.57 226.773 109.312 220.223C109.209 218.961 109.63 217.747 110.43 216.872C111.304 215.931 112.675 215.479 114.103 215.686C115.42 215.815 116.882 215.938 118.687 216.042C120.321 216.149 121.675 216.822 122.406 217.868C123.252 219.107 123.604 220.271 123.507 221.534C123.446 222.9 123.386 224.265 123.325 225.631C123.058 231.904 122.778 238.376 122.006 244.73C121.889 246.307 121.781 247.74 121.706 249.104L121.699 249.218C121.64 250.355 121.57 251.648 121.854 252.538C121.951 252.8 122.154 252.971 122.263 253.035C122.687 252.678 123.068 251.419 123.265 250.804L123.267 250.775C123.682 249.433 123.95 247.967 124.182 246.585C124.839 240.68 125.162 234.637 125.472 228.795C125.595 226.463 125.725 224.062 125.879 221.689C125.943 220.282 126.502 218.934 127.424 217.911C128.439 216.778 129.839 216.099 131.255 216.05C132.788 215.949 134.295 215.805 135.735 215.6C136.959 215.438 138.535 215.755 139.259 217.128C139.982 218.502 139.986 219.971 139.89 221.221ZM160.653 260.69C160.135 262.496 159.298 264.183 158.186 265.693C157.028 267.258 155.612 268.621 153.986 269.727C153.97 269.74 153.97 269.74 153.956 269.753C152.172 270.835 150.513 271.782 148.887 272.661C148.857 272.673 148.842 272.686 148.813 272.698C147.51 273.212 146.327 273.42 145.275 273.351C144.011 273.269 142.93 272.771 142.033 271.871C139.825 269.63 139.235 266.225 138.974 263.868C138.63 260.637 138.602 257.126 138.905 252.481C139.25 248.296 139.498 244.917 139.702 241.806C139.702 241.806 139.702 241.806 139.703 241.791C140.036 237.563 140.505 233.429 141.107 229.473C141.601 226.253 142.272 222.546 143.99 219.391C145.495 216.651 147.559 215.188 149.972 215.16C149.987 215.16 150.015 215.163 150.029 215.164C151.45 215.256 152.939 215.396 154.881 215.58C154.909 215.581 154.938 215.584 154.979 215.601C156.764 216.017 158.106 216.661 159.339 217.669C160.503 218.629 161.402 220.143 161.872 221.913C162.452 224.162 162.296 226.562 162.144 228.679C162.143 228.692 162.141 228.706 162.141 228.706C161.98 230.08 161.834 231.454 161.702 232.815C161.701 232.829 161.7 232.843 161.7 232.858C161.546 233.903 161.137 236.658 159.076 237.421C159.046 237.435 159.003 237.445 158.975 237.444C157.369 237.781 155.694 238.085 153.861 238.409C153.818 238.419 153.775 238.417 153.733 238.413C153.191 238.407 152.706 238.19 152.332 237.808C151.436 236.88 151.363 235.164 151.396 233.782C151.396 233.554 151.411 233.327 151.427 233.085C151.451 232.731 151.475 232.361 151.469 232.005C151.245 232.816 151.152 233.795 151.049 234.729C151.02 234.942 151.007 235.155 150.979 235.367C150.805 236.939 150.652 238.612 150.479 240.826C150.351 243.443 150.206 246.543 150.078 249.616C150.057 251.226 150.059 252.953 150.134 254.64C150.138 254.798 150.142 254.968 150.159 255.141C150.195 255.9 150.22 256.815 150.407 257.453C150.569 256.937 150.582 256.296 150.581 255.668C150.58 255.468 150.58 255.254 150.591 255.07C150.706 251.781 151.952 250.394 152.961 249.803C152.99 249.791 153.02 249.765 153.049 249.753C154.735 249.064 156.437 248.348 158.244 247.553C158.273 247.54 158.287 247.526 158.316 247.529C159.044 247.305 159.56 247.482 159.876 247.673C160.822 248.263 161.058 249.676 161.188 250.526C161.185 250.555 161.198 250.598 161.195 250.626C161.242 251.884 161.305 253.101 161.373 254.247C161.372 254.262 161.371 254.275 161.371 254.29C161.351 256.328 161.263 258.547 160.653 260.69ZM193.006 249.779C192.739 250.817 192.222 251.739 191.52 252.449C191.505 252.463 191.49 252.476 191.489 252.489C184.992 258.257 177.133 260.198 169.645 261.705C169.357 261.758 169.055 261.781 168.771 261.762C167.706 261.693 166.727 261.158 166.032 260.671C164.587 259.649 164.091 258.062 163.832 256.789C163.834 256.761 163.821 256.746 163.822 256.718C163.134 250.653 163.383 244.436 163.618 238.432C163.776 234.476 163.929 230.392 163.833 226.406V226.392C163.823 223.71 163.983 221.695 164.346 219.85C164.367 219.751 164.387 219.653 164.408 219.554C164.644 218.342 164.951 216.693 166.121 215.828C166.15 215.816 166.166 215.788 166.195 215.776C170.567 213.28 175.547 212.606 180.34 211.964C181.419 211.82 182.528 211.665 183.608 211.507C183.636 211.509 183.65 211.496 183.68 211.497C184.51 211.452 185.302 211.774 186 212.448C186.617 213.044 187.14 213.992 187.285 214.828C187.56 216.087 187.803 217.387 188.039 218.785C188.218 219.768 188.015 220.91 187.785 221.593C187.52 222.375 186.888 223.318 186.037 223.69C186.021 223.703 185.993 223.702 185.977 223.716C183.642 224.519 181.233 225.16 178.895 225.777C177.633 226.109 176.34 226.467 175.061 226.825C175.17 228.431 175.272 230.134 175.38 232.21C175.89 232.058 176.413 231.892 176.923 231.74C179.236 231.035 181.624 230.306 183.919 229.458C183.935 229.444 183.963 229.447 183.978 229.434C184.892 229.193 185.733 229.419 186.401 230.118C186.976 230.712 187.395 231.711 187.452 232.599C187.541 233.418 187.587 233.819 187.676 234.624C187.832 235.732 187.566 236.757 187.314 237.539C186.994 238.516 186.339 239.373 185.507 239.888C185.491 239.902 185.462 239.915 185.447 239.928C182.295 241.433 178.954 242.571 175.997 243.505C176.13 245.196 176.271 246.76 176.43 248.24C180.088 247.052 184.214 245.482 187.992 242.89C188.008 242.877 188.008 242.877 188.022 242.863C188.9 242.336 189.721 242.204 190.458 242.494C191.195 242.785 191.698 243.374 191.956 244.233C192.214 245.105 192.545 246.14 192.951 247.15C193.265 247.998 193.181 249.091 193.006 249.779Z" fill="#ED203D"/>
<path d="M201.022 233.627C200.39 231.289 199.988 228.696 199.554 225.957C198.424 218.794 197.142 210.679 191.212 205.798C180.57 197.045 164.425 200.712 150.16 203.961C144.671 205.214 139.488 206.388 135.042 206.754C127.497 207.388 120.48 206.259 114.03 204.968C112.256 204.61 110.441 204.221 108.683 203.835C106.349 203.325 103.943 202.812 101.52 202.341C90.4606 200.206 79.654 199.215 69.3858 199.402C60.7585 199.565 53.2007 202.995 47.5379 209.33C42.4135 215.058 39.0242 223.053 37.9655 231.841C37.375 236.725 37.6255 241.634 38.6782 246.053C39.8979 251.183 42.1182 255.421 45.2727 258.666C53.5613 267.18 65.4969 265.306 76.0324 263.654C77.5607 263.412 79.0018 263.192 80.4417 262.987C92.3893 261.341 101.717 263.563 112.652 270.667C114.047 271.571 115.441 272.518 116.903 273.511C124.046 278.386 131.394 283.387 139.974 283.947C141.182 284.027 142.409 284.021 143.672 283.903C150.545 283.296 156.505 279.62 162.273 276.06C166.153 273.659 170.166 271.182 174.43 269.679C177.015 268.763 179.839 268.12 182.591 267.501C188.991 266.05 195.608 264.556 199.739 259.391C205.119 252.595 203.535 242.992 201.022 233.627ZM182.239 266.108C179.458 266.74 176.577 267.393 173.92 268.332C169.523 269.9 165.45 272.415 161.495 274.853C155.609 278.491 150.05 281.909 143.507 282.495C133.822 283.346 125.614 277.746 117.679 272.335C116.273 271.374 114.824 270.395 113.4 269.474C107.802 265.842 102.788 263.547 97.6081 262.267C95.2631 261.686 92.8625 261.316 90.3904 261.154C87.1657 260.943 83.7898 261.08 80.2203 261.575C78.7658 261.779 77.3247 261.999 75.782 262.24C70.5789 263.057 65.2173 263.905 60.1317 263.572C60.0748 263.569 60.0179 263.565 59.9611 263.561C54.2099 263.157 49.728 261.225 46.2795 257.675C40.7037 251.949 38.1204 242.351 39.3667 232.005C40.3928 223.499 43.6646 215.781 48.5736 210.282C53.9618 204.243 61.1505 200.975 69.3774 200.827C79.5475 200.635 90.2682 201.621 101.215 203.733C103.624 204.204 106.03 204.717 108.352 205.212C110.109 205.596 111.938 205.987 113.727 206.347C120.289 207.674 127.418 208.81 135.15 208.159C139.697 207.771 144.924 206.586 150.47 205.336C164.401 202.165 180.2 198.575 190.299 206.895C195.809 211.433 197.003 218.929 198.142 226.178C198.587 228.961 199.001 231.584 199.642 233.994C202.065 243.01 203.617 252.212 198.585 258.503C194.763 263.273 188.682 264.66 182.239 266.108Z" fill="#231F20"/>
<path d="M70.6588 229.925L70.631 229.922C70.2099 229.81 69.7175 229.72 69.2105 229.616C67.5624 229.28 65.7051 228.888 64.4999 227.91C63.8223 227.352 63.4774 226.518 63.5899 225.683C63.7279 224.651 64.1587 223.296 64.95 222.533C65.6494 221.88 66.6791 221.834 67.4717 222.385C68.407 222.902 68.2437 224.318 68.1759 224.927C68.113 225.436 68.24 225.901 68.5449 226.249C68.9043 226.658 69.473 226.908 70.1409 226.937L70.2414 226.93C72.7267 226.893 75.2956 226.875 77.8257 226.784C79.2064 226.617 79.8404 225.217 80.0945 224.379C80.3002 223.421 80.524 222.394 80.7189 221.366C80.8302 219.89 80.8435 218.364 80.1356 217.192C79.596 216.287 78.6352 215.482 77.2958 214.809C75.638 213.973 73.7008 213.705 72.198 213.563C69.3339 213.52 66.9719 213.636 64.7697 213.949C62.8809 214.24 61.0526 215.376 58.9859 217.523C57.287 219.295 55.7684 221.363 54.5887 223.483C53.9099 224.709 53.0532 226.25 52.7676 227.772C52.5244 229.097 52.8499 230.445 53.6352 231.31C55.0461 232.856 57.2132 233.754 59.321 234.476C59.753 234.634 60.2431 234.765 60.761 234.913C62.3303 235.358 64.0945 235.873 65.2392 236.903C65.8986 237.502 66.2858 238.355 66.2871 239.211C66.2907 240.238 66.2096 241.702 65.5078 242.626C65.2428 242.965 64.8726 243.184 64.4418 243.213C63.9409 243.252 63.4387 243.062 63.0092 242.648C62.4042 242.082 62.0472 241.217 61.9516 240.068C61.862 239.036 61.2183 237.738 59.6925 237.511C57.4516 237.322 55.2687 237.108 53.1367 236.54C53.0096 236.519 52.8547 236.493 52.7785 236.56C52.6575 236.666 52.5486 237.03 52.5982 237.589C52.7216 238.525 52.8729 239.49 53.0629 240.516C53.5444 242.758 54.1591 244.695 54.9577 246.445C55.8568 248.415 56.8853 249.923 58.1207 251.103C59.4517 252.359 61.0671 253.178 62.7889 253.461C64.9464 253.63 67.2176 253.579 69.7308 253.329C71.5809 252.95 72.7957 252.045 73.6585 250.419C74.6495 248.558 75.0887 246.418 75.5388 244.337C75.6864 243.605 75.8643 242.86 76.0386 242.143C76.3556 240.796 76.6738 239.404 76.8747 238.076C77.1263 236.41 77.4748 234.135 76.4511 232.77C75.2048 231.091 72.6796 230.441 70.6588 229.925Z" fill="#F9F4DA"/>
<path d="M77.5788 231.888C76.0433 229.834 73.2506 229.124 71.0206 228.536L70.9927 228.534C70.712 228.458 70.4167 228.397 70.1215 228.335C70.1348 228.336 70.1493 228.336 70.1493 228.336L70.2643 228.33C72.763 228.292 75.3609 228.263 77.9055 228.186C77.92 228.187 77.9478 228.19 77.9636 228.176C79.5874 227.997 80.8676 226.739 81.4835 224.74C81.4847 224.726 81.4992 224.712 81.5017 224.683C81.7219 223.7 81.9494 222.63 82.1478 221.545C82.1502 221.517 82.1514 221.503 82.1526 221.475C82.2882 219.843 82.2967 217.96 81.3843 216.417C80.7031 215.274 79.5548 214.287 77.9527 213.483C76.0736 212.547 73.9524 212.252 72.3225 212.088C72.3092 212.087 72.2947 212.086 72.2669 212.085C69.3169 212.035 66.869 212.16 64.5797 212.482C61.6684 212.934 59.4226 214.984 57.9851 216.473C56.1943 218.339 54.5971 220.503 53.3677 222.733C52.6393 224.055 51.7342 225.694 51.4051 227.455C51.0772 229.202 51.5418 231.03 52.6199 232.214C54.2583 234.003 56.6057 234.984 58.8926 235.776C59.1721 235.865 59.4516 235.955 59.7602 236.045C57.6173 235.863 55.5203 235.655 53.5286 235.126C53.5141 235.125 53.5141 235.125 53.5008 235.124C52.6853 234.942 52.1686 235.208 51.8794 235.474C51.1836 236.085 51.1715 237.14 51.2199 237.714C51.2187 237.728 51.2187 237.728 51.2175 237.742C51.3409 238.706 51.5043 239.701 51.6918 240.754C51.6906 240.769 51.6906 240.769 51.6906 240.782C52.1928 243.126 52.845 245.166 53.6811 247.003C54.6539 249.135 55.7865 250.807 57.1575 252.095C58.7014 253.565 60.5951 254.501 62.6001 254.818C62.6146 254.819 62.6424 254.821 62.6569 254.822C62.7852 254.83 62.9268 254.839 63.055 254.847C65.2004 254.988 67.4425 254.934 69.9134 254.681C69.9412 254.684 69.9569 254.671 69.9848 254.672C72.2414 254.206 73.8592 253.014 74.9168 251.029C75.9901 249.002 76.4656 246.751 76.9351 244.585C77.0815 243.866 77.2582 243.137 77.4191 242.419C77.7373 241.042 78.0725 239.623 78.277 238.239C78.5565 236.36 78.9703 233.733 77.5788 231.888ZM76.8625 238.047C76.6616 239.374 76.3289 240.765 76.0264 242.114C75.8654 242.832 75.6888 243.576 75.5266 244.307C75.0922 246.376 74.6373 248.528 73.6463 250.39C72.7835 252.016 71.5699 252.907 69.7186 253.3C67.2054 253.549 64.9342 253.601 62.7767 253.432C61.0537 253.162 59.4516 252.344 58.1085 251.072C56.8719 249.908 55.8446 248.386 54.9456 246.415C54.1469 244.666 53.5323 242.729 53.0507 240.486C52.8607 239.461 52.7094 238.496 52.5848 237.56C52.5352 237.015 52.6453 236.637 52.7663 236.531C52.8426 236.464 52.9986 236.475 53.1245 236.511C55.2553 237.079 57.4527 237.293 59.6803 237.482C61.2061 237.709 61.8487 239.006 61.9382 240.039C62.035 241.186 62.392 242.051 62.997 242.619C63.4277 243.018 63.942 243.223 64.4296 243.184C64.8592 243.155 65.2306 242.936 65.4956 242.597C66.1974 241.673 66.2797 240.194 66.2749 239.182C66.2725 238.339 65.8731 237.472 65.227 236.873C64.0811 235.843 62.3169 235.343 60.7488 234.884C60.2309 234.735 59.7408 234.59 59.3076 234.447C57.1865 233.724 55.0339 232.827 53.623 231.28C52.8377 230.416 52.5122 229.068 52.7554 227.743C53.0398 226.221 53.8965 224.68 54.5765 223.454C55.7563 221.32 57.2748 219.265 58.9737 217.493C61.0258 215.345 62.8687 214.211 64.7563 213.92C66.9598 213.607 69.3217 213.491 72.1858 213.534C73.6886 213.676 75.6259 213.944 77.2836 214.78C78.6376 215.453 79.5971 216.258 80.1234 217.163C80.8301 218.35 80.818 219.861 80.7067 221.337C80.524 222.381 80.3001 223.407 80.0823 224.348C79.8282 225.188 79.1942 226.588 77.8135 226.754C75.2834 226.831 72.7133 226.864 70.2292 226.901L70.1288 226.908C69.4596 226.879 68.8909 226.642 68.5328 226.22C68.2424 225.873 68.1141 225.423 68.1625 224.898C68.2315 224.289 68.3948 222.872 67.4583 222.356C66.6524 221.804 65.6215 221.864 64.9378 222.504C64.1332 223.251 63.7012 224.62 63.5766 225.654C63.464 226.502 63.8089 227.338 64.4877 227.881C65.6929 228.859 67.5502 229.251 69.1983 229.587C69.7041 229.691 70.1832 229.794 70.6188 229.893L70.6466 229.896C72.6674 230.412 75.1793 231.061 76.4269 232.712C77.4626 234.106 77.113 236.394 76.8625 238.047ZM61.1723 236.48C62.3617 236.843 63.5754 237.265 64.3026 237.926C64.6668 238.249 64.8785 238.719 64.8906 239.177C64.8943 240.433 64.7249 241.292 64.397 241.726C64.38 241.754 64.3667 241.753 64.3522 241.751C64.2796 241.761 64.1549 241.71 64.0073 241.572C63.5911 241.174 63.4386 240.451 63.4023 239.906C63.2595 238.385 62.4149 237.117 61.1723 236.48ZM67.4885 227.15C67.8189 227.542 68.2424 227.841 68.7421 228.044C67.4752 227.777 66.1866 227.421 65.4134 226.801C65.1157 226.567 64.9814 226.216 65.0189 225.862C65.1399 224.885 65.5126 223.968 65.9385 223.568C66.0595 223.463 66.1914 223.413 66.3475 223.424C66.4612 223.431 66.5858 223.482 66.7093 223.562C66.7226 223.576 66.7504 223.593 66.7782 223.609C66.8012 223.682 66.8847 223.944 66.7879 224.764C66.6863 225.657 66.9307 226.501 67.4885 227.15Z" fill="#231F20"/>
<path d="M106.969 234.235C107.021 232.57 107.063 230.846 107.13 229.153C107.092 226.027 107.044 222.157 105.382 219.439C104.081 217.3 101.481 216.687 99.3621 216.379C98.428 216.26 97.5096 216.13 96.619 216C94.3272 215.693 91.3857 215.53 88.9088 216.98C86.2395 218.531 84.9654 221.658 84.0651 224.524C83.281 227.795 82.5357 231.128 81.8109 234.347C80.786 238.917 79.7345 243.655 78.5487 248.271C78.2849 249.252 78.5354 250.223 78.7786 250.867C79.1561 251.848 79.864 252.593 80.6469 252.844C81.9041 253.254 83.1709 253.508 84.6726 253.678C85.7095 253.745 86.7441 253.413 87.4423 252.774C88.1392 252.148 88.8277 251.423 89.0649 250.412C89.5017 248.757 89.9434 247.017 90.3596 245.218C90.4383 244.896 90.7396 244.659 91.0663 244.665C92.177 244.695 93.2745 244.724 94.3551 244.767C94.5693 244.78 94.7483 244.863 94.8802 245.029C95.0121 245.194 95.0702 245.398 95.029 245.594C94.7265 247.386 94.4047 249.034 94.0707 250.667C93.9618 251.673 94.0066 252.076 94.4628 252.747C94.8536 253.315 95.8652 253.552 96.7061 253.549C96.7207 253.55 96.7352 253.552 96.7352 253.552C98.1436 253.615 99.8195 253.725 101.505 254.134C102.67 254.41 103.723 254.464 104.477 254.27C104.912 254.157 105.473 253.665 105.499 253.253C105.502 253.225 105.503 253.21 105.504 253.183C106.623 246.965 106.802 240.501 106.969 234.235ZM96.9469 229.115L96.9288 229.385C96.8211 230.392 96.711 231.412 96.6166 232.418C96.4605 233.934 96.3044 235.45 96.135 236.951C96.0963 237.334 95.7647 237.611 95.3812 237.587L95.3667 237.586C94.6285 237.523 93.8626 237.459 92.9261 237.384C92.7276 237.371 92.534 237.273 92.4021 237.107C92.2847 236.942 92.2267 236.739 92.269 236.527C92.6211 234.839 92.989 233.137 93.3254 231.476C93.4948 230.645 93.6775 229.801 93.8456 228.97L93.8469 228.956C94.0647 228.029 94.32 226.962 94.5729 225.923C94.8052 224.996 95.1573 224.405 95.6474 224.11C95.7805 224.033 95.939 224 96.0963 224.011L96.279 224.038C96.4629 224.063 96.6287 224.145 96.7339 224.295C97.0631 224.702 97.1938 225.324 97.132 226.275C97.0836 227.228 97.0207 228.194 96.9469 229.115Z" fill="#F9F4DA"/>
<path d="M108.555 229.189C108.557 229.175 108.557 229.16 108.558 229.146C108.517 225.849 108.47 221.752 106.601 218.691C104.991 216.046 102.001 215.309 99.5554 214.965C98.6213 214.846 97.7017 214.715 96.8256 214.6C94.3076 214.265 91.0514 214.096 88.2043 215.764C85.1042 217.573 83.6958 221.004 82.7072 224.136C82.706 224.149 82.6915 224.162 82.6902 224.177C81.9049 227.464 81.1584 230.809 80.4336 234.043C79.4087 238.599 78.3584 243.322 77.1895 247.911C76.9052 248.976 76.9984 250.181 77.4763 251.381C78.0269 252.787 79.03 253.808 80.2303 254.2C81.5867 254.631 82.9516 254.92 84.5525 255.095C84.5658 255.097 84.5803 255.098 84.6093 255.099C86.0154 255.191 87.4444 254.713 88.4293 253.836C89.2618 253.092 90.1512 252.152 90.4839 250.775C90.8796 249.289 91.2668 247.731 91.6431 246.116C92.2699 246.128 92.8967 246.154 93.5235 246.166C93.2549 247.647 92.9935 249.042 92.7043 250.407C92.7031 250.435 92.7019 250.449 92.6995 250.477C92.5603 251.738 92.6232 252.527 93.3263 253.556C94.0414 254.616 95.5575 254.987 96.7288 254.977C98.0659 255.036 99.6558 255.155 101.216 255.527C102.198 255.762 103.626 255.97 104.873 255.652C105.816 255.414 106.845 254.511 106.959 253.405C108.073 247.074 108.255 240.553 108.424 234.259C108.432 232.605 108.488 230.882 108.555 229.189ZM105.499 253.267C105.472 253.68 104.913 254.171 104.478 254.285C103.723 254.478 102.67 254.438 101.505 254.148C99.8192 253.738 98.1433 253.629 96.7348 253.566C96.7203 253.565 96.707 253.564 96.707 253.564C95.8649 253.566 94.8545 253.315 94.4625 252.762C94.0063 252.089 93.9615 251.687 94.0704 250.682C94.4044 249.063 94.7263 247.401 95.0288 245.609C95.0699 245.411 95.013 245.194 94.8811 245.042C94.7492 244.877 94.569 244.794 94.356 244.78C93.2742 244.739 92.178 244.71 91.0672 244.679C90.7247 244.672 90.4247 244.895 90.3605 245.232C89.9443 247.017 89.5159 248.773 89.0658 250.426C88.8141 251.437 88.1401 252.148 87.442 252.788C86.7293 253.426 85.6947 253.757 84.6722 253.691C83.1851 253.523 81.905 253.254 80.6465 252.858C79.8637 252.607 79.1703 251.863 78.7783 250.881C78.5205 250.237 78.2846 249.266 78.5484 248.285C79.7342 243.669 80.7857 238.93 81.8118 234.362C82.5354 231.142 83.282 227.795 84.0648 224.537C84.9639 221.687 86.238 218.56 88.9085 216.994C91.3854 215.544 94.3415 215.709 96.6187 216.014C97.4948 216.142 98.4277 216.275 99.3618 216.392C101.482 216.687 104.081 217.314 105.382 219.453C107.044 222.172 107.09 226.054 107.13 229.167C107.062 230.86 107.021 232.583 106.969 234.249C106.803 240.515 106.623 246.98 105.517 253.226C105.517 253.226 105.516 253.239 105.499 253.267Z" fill="#231F20"/>
<path d="M96.7484 224.295C96.6299 224.16 96.4641 224.063 96.2947 224.037L96.1108 224.012C95.9559 223.987 95.7974 224.019 95.6631 224.11C95.173 224.392 94.8197 224.997 94.5886 225.924C94.3211 226.962 94.0804 228.03 93.8625 228.957L93.8613 228.971C93.6931 229.803 93.5092 230.646 93.341 231.477C92.9901 233.137 92.6368 234.839 92.2835 236.528C92.2424 236.726 92.2859 236.942 92.4178 237.108C92.5352 237.272 92.7288 237.37 92.9417 237.385C93.8795 237.445 94.6588 237.511 95.3823 237.587H95.3956C95.7792 237.612 96.1119 237.334 96.1507 236.952C96.3213 235.437 96.4774 233.921 96.6323 232.418C96.7412 231.413 96.8501 230.393 96.9444 229.386L96.9626 229.117C97.0364 228.195 97.1139 227.229 97.1611 226.291C97.2082 225.338 97.0788 224.703 96.7484 224.295ZM95.6316 227.647C95.6013 228.1 95.5566 228.568 95.5288 229.009L95.513 229.251C95.4041 230.256 95.2952 231.262 95.2008 232.283C95.0605 233.557 94.9334 234.847 94.7931 236.122C94.4942 236.102 94.1687 236.066 93.8275 236.044C94.1348 234.624 94.4288 233.173 94.7192 231.781C94.8874 230.95 95.0701 230.12 95.2395 229.275C95.3593 228.755 95.4949 228.208 95.6316 227.647Z" fill="#231F20"/>
<path d="M134.125 263.851C135.46 260.444 135.956 256.568 136.274 253.223C136.526 249.587 136.739 245.877 136.946 242.283C137.341 235.333 137.754 228.141 138.47 221.1C138.556 220.006 138.547 218.851 137.99 217.758C137.609 217.035 136.677 216.888 135.915 216.981C134.433 217.183 132.881 217.34 131.32 217.438L131.306 217.436C130.263 217.468 129.231 217.986 128.461 218.834C127.755 219.615 127.329 220.672 127.273 221.737C127.118 224.11 127.004 226.513 126.866 228.843C126.554 234.715 126.23 240.784 125.57 246.733C125.569 246.746 125.568 246.76 125.568 246.775C125.331 248.215 125.047 249.737 124.611 251.163L124.609 251.191C124.248 252.337 123.814 253.765 122.865 254.302C122.554 254.481 122.153 254.498 121.764 254.343C121.194 254.12 120.7 253.589 120.485 252.962C120.102 251.811 120.182 250.374 120.251 249.109L120.259 248.996C120.334 247.617 120.428 246.169 120.562 244.565C120.562 244.551 120.562 244.551 120.563 244.537C121.332 238.239 121.61 231.781 121.875 225.537C121.936 224.171 121.997 222.791 122.058 221.425C122.059 221.412 122.059 221.412 122.06 221.397C122.135 220.461 121.863 219.615 121.199 218.645C120.729 217.959 119.745 217.509 118.567 217.433C116.748 217.327 115.258 217.202 113.927 217.058C113.912 217.058 113.912 217.056 113.897 217.056C112.951 216.923 112.005 217.204 111.467 217.81C110.928 218.403 110.645 219.24 110.718 220.1C110.716 220.115 110.716 220.115 110.715 220.13C110.983 226.751 111.151 233.794 110.241 240.739C109.929 243.557 109.718 246.125 109.615 248.572C109.489 251.359 109.814 253.621 110.589 255.497C111.588 257.916 113.79 259.785 116.007 261.457C117.578 262.514 119.225 263.721 121.207 265.262C123.787 267.056 126.528 268.776 129.277 268.414C131.418 268.154 133.046 266.605 134.125 263.851Z" fill="#F9F4DA"/>
<path d="M135.722 215.57C134.268 215.775 132.76 215.919 131.241 216.019C129.826 216.07 128.426 216.749 127.411 217.881C126.474 218.904 125.929 220.251 125.865 221.66C125.71 224.032 125.597 226.435 125.459 228.765C125.149 234.608 124.826 240.649 124.169 246.555C123.937 247.937 123.669 249.404 123.253 250.746L123.252 250.775C123.053 251.404 122.673 252.648 122.25 253.006C122.14 252.956 121.936 252.785 121.841 252.508C121.542 251.618 121.612 250.325 121.686 249.188L121.693 249.075C121.768 247.71 121.861 246.276 121.993 244.701C122.779 238.348 123.045 231.875 123.311 225.602C123.373 224.236 123.433 222.871 123.494 221.505C123.591 220.242 123.238 219.078 122.391 217.839C121.676 216.779 120.321 216.12 118.673 216.012C116.869 215.895 115.422 215.786 114.088 215.656C112.66 215.463 111.291 215.902 110.416 216.843C109.603 217.717 109.195 218.946 109.299 220.193C109.556 226.757 109.727 233.73 108.839 240.562C108.525 243.422 108.312 246.019 108.206 248.509C108.067 251.509 108.435 253.972 109.285 256.039C110.417 258.78 112.795 260.819 115.189 262.601C115.204 262.603 115.203 262.616 115.217 262.617C116.761 263.66 118.395 264.851 120.365 266.376C120.378 266.377 120.378 266.392 120.391 266.393C122.78 268.06 125.328 269.667 128.041 269.845C128.51 269.875 128.996 269.864 129.471 269.795C132.119 269.454 134.182 267.564 135.447 264.338C136.851 260.762 137.369 256.76 137.681 253.3L137.682 253.285C137.934 249.636 138.149 245.912 138.354 242.331C138.75 235.396 139.161 228.22 139.876 221.205L139.877 221.19C139.973 219.942 139.968 218.486 139.234 217.069C138.522 215.724 136.959 215.408 135.722 215.57ZM121.22 265.278C119.238 263.735 117.591 262.53 116.019 261.471C113.788 259.814 111.601 257.931 110.602 255.511C109.827 253.635 109.504 251.36 109.628 248.587C109.731 246.141 109.94 243.572 110.254 240.754C111.164 233.81 110.981 226.766 110.728 220.144C110.729 220.129 110.729 220.129 110.731 220.116C110.658 219.254 110.927 218.417 111.48 217.826C112.031 217.234 112.964 216.938 113.91 217.071C113.925 217.072 113.925 217.072 113.939 217.073C115.285 217.218 116.761 217.328 118.58 217.447C119.758 217.524 120.742 217.973 121.212 218.66C121.876 219.631 122.147 220.49 122.073 221.412C122.072 221.426 122.072 221.426 122.071 221.441C122.01 222.807 121.949 224.186 121.888 225.551C121.623 231.796 121.345 238.253 120.576 244.551C120.575 244.565 120.575 244.565 120.575 244.58C120.455 246.184 120.346 247.633 120.271 249.011L120.264 249.124C120.195 250.39 120.115 251.825 120.498 252.977C120.713 253.605 121.192 254.134 121.777 254.358C122.166 254.512 122.567 254.495 122.878 254.316C123.825 253.779 124.261 252.352 124.621 251.207L124.624 251.178C125.073 249.752 125.344 248.229 125.58 246.789C125.581 246.776 125.582 246.761 125.583 246.747C126.243 240.799 126.567 234.729 126.879 228.859C127.003 226.527 127.131 224.124 127.286 221.753C127.342 220.686 127.769 219.616 128.474 218.849C129.244 218 130.275 217.498 131.319 217.452H131.333C132.894 217.354 134.446 217.199 135.928 216.996C136.677 216.888 137.609 217.049 138.003 217.774C138.574 218.852 138.57 220.007 138.483 221.114C137.753 228.17 137.354 235.347 136.959 242.297C136.753 245.878 136.539 249.588 136.287 253.237C135.982 256.583 135.472 260.473 134.138 263.867C133.059 266.621 131.433 268.155 129.303 268.444C126.541 268.791 123.8 267.072 121.22 265.278Z" fill="#231F20"/>
<path d="M153.206 268.549C154.698 267.534 155.993 266.292 157.042 264.848C158.06 263.474 158.816 261.94 159.281 260.287C159.836 258.326 159.916 256.235 159.916 254.267C159.848 253.121 159.784 251.918 159.737 250.674C159.657 250.155 159.469 249.087 159.086 248.849C159.058 248.832 158.962 248.769 158.743 248.84C156.951 249.636 155.265 250.354 153.594 251.029C152.272 251.827 152.007 253.92 151.972 255.103C151.96 255.288 151.962 255.473 151.965 255.658C151.96 256.385 151.95 257.198 151.687 257.951C151.67 257.993 151.654 258.021 151.637 258.047C151.264 258.737 150.769 259.118 150.226 259.125C149.841 259.129 149.483 258.92 149.293 258.565C148.795 257.663 148.739 256.332 148.702 255.161C148.699 254.989 148.694 254.832 148.676 254.673C148.59 252.942 148.605 251.189 148.612 249.548C148.613 249.535 148.613 249.535 148.613 249.52C148.744 246.432 148.889 243.333 149.019 240.702V240.688C149.193 238.46 149.346 236.758 149.522 235.172C149.55 234.96 149.563 234.761 149.591 234.549C149.735 233.217 149.867 231.857 150.34 230.732C150.662 229.954 151.211 229.833 151.441 229.819C151.712 229.808 152.235 229.886 152.63 230.611C152.656 230.655 152.681 230.699 152.692 230.757C152.912 231.528 152.857 232.38 152.807 233.132C152.793 233.36 152.779 233.572 152.78 233.773C152.748 235.353 152.924 236.378 153.325 236.79C153.418 236.896 153.528 236.946 153.671 236.955C155.43 236.656 157.048 236.348 158.596 236.036C159.694 235.593 160.062 233.892 160.258 232.635C160.389 231.288 160.537 229.9 160.696 228.541C160.834 226.439 160.99 224.266 160.465 222.249C160.09 220.784 159.333 219.507 158.412 218.749C157.369 217.896 156.221 217.35 154.675 216.979C152.791 216.784 151.33 216.661 149.937 216.57C147.596 216.602 146.089 218.486 145.215 220.056C143.596 223.003 142.965 226.571 142.492 229.663C141.894 233.576 141.426 237.681 141.095 241.869C140.892 244.993 140.642 248.386 140.298 252.557C140.002 257.103 140.02 260.542 140.356 263.688C140.586 265.843 141.112 268.929 143.012 270.851C144.231 272.086 145.931 272.254 148.228 271.362C149.839 270.526 151.469 269.591 153.206 268.549Z" fill="#F9F4DA"/>
<path d="M161.347 254.203C161.279 253.057 161.216 251.826 161.169 250.583C161.172 250.553 161.159 250.51 161.162 250.482C161.031 249.632 160.795 248.218 159.85 247.629C159.534 247.437 159.018 247.26 158.291 247.484C158.26 247.496 158.247 247.496 158.217 247.508C156.41 248.303 154.708 249.034 153.023 249.708C152.994 249.72 152.965 249.733 152.935 249.76C151.911 250.349 150.678 251.751 150.565 255.025C150.552 255.224 150.554 255.423 150.555 255.624C150.557 256.238 150.544 256.878 150.381 257.41C150.209 256.771 150.169 255.855 150.133 255.097C150.129 254.925 150.127 254.754 150.108 254.596C150.032 252.908 150.031 251.181 150.05 249.571C150.18 246.498 150.325 243.413 150.453 240.782C150.625 238.582 150.779 236.895 150.953 235.322C150.981 235.11 150.994 234.897 151.023 234.686C151.127 233.736 151.219 232.773 151.443 231.96C151.448 232.317 151.424 232.7 151.401 233.042C151.385 233.282 151.37 233.51 151.369 233.738C151.335 235.133 151.424 236.837 152.306 237.765C152.678 238.159 153.165 238.363 153.707 238.37C153.749 238.372 153.793 238.361 153.835 238.364C155.667 238.055 157.343 237.737 158.949 237.4C158.978 237.387 159.02 237.39 159.049 237.378C161.11 236.628 161.519 233.858 161.672 232.813C161.674 232.798 161.675 232.785 161.676 232.77C161.807 231.424 161.954 230.035 162.115 228.662C162.117 228.648 162.117 228.634 162.117 228.634C162.256 226.518 162.426 224.117 161.846 221.869C161.391 220.099 160.49 218.586 159.312 217.624C158.08 216.616 156.738 215.972 154.953 215.556C154.925 215.555 154.898 215.538 154.855 215.536C152.913 215.337 151.424 215.211 150.003 215.119C149.989 215.118 149.961 215.117 149.946 215.116C147.534 215.144 145.469 216.606 143.964 219.347C142.246 222.501 141.575 226.209 141.081 229.429C140.479 233.384 140.01 237.518 139.677 241.748C139.677 241.748 139.677 241.748 139.676 241.761C139.472 244.872 139.223 248.266 138.88 252.436C138.576 257.081 138.604 260.592 138.948 263.824C139.207 266.195 139.798 269.6 142.007 271.826C142.904 272.726 143.985 273.224 145.249 273.308C146.299 273.376 147.484 273.154 148.786 272.655C148.816 272.641 148.845 272.629 148.86 272.616C150.5 271.739 152.161 270.791 153.928 269.709C153.943 269.71 153.944 269.695 153.959 269.682C155.586 268.576 157.002 267.214 158.16 265.648C159.272 264.138 160.109 262.453 160.626 260.646C161.236 258.517 161.324 256.298 161.318 254.201C161.345 254.232 161.346 254.217 161.347 254.203ZM143.04 270.866C141.14 268.945 140.613 265.859 140.384 263.704C140.046 260.558 140.028 257.118 140.325 252.574C140.669 248.402 140.918 245.01 141.123 241.885C141.453 237.698 141.921 233.592 142.519 229.679C142.992 226.572 143.64 223.005 145.243 220.071C146.102 218.502 147.623 216.618 149.964 216.586C151.343 216.675 152.803 216.814 154.703 216.995C156.248 217.367 157.396 217.913 158.439 218.765C159.359 219.525 160.118 220.801 160.493 222.266C161.018 224.283 160.875 226.456 160.724 228.558C160.563 229.931 160.417 231.304 160.286 232.651C160.103 233.909 159.722 235.61 158.623 236.052C157.076 236.364 155.458 236.672 153.699 236.971C153.556 236.962 153.446 236.912 153.352 236.805C152.951 236.394 152.774 235.385 152.807 233.789C152.806 233.59 152.82 233.377 152.835 233.149C152.884 232.397 152.941 231.529 152.718 230.773C152.707 230.729 152.682 230.671 152.657 230.627C152.262 229.902 151.739 229.826 151.467 229.835C151.253 229.85 150.704 229.957 150.366 230.749C149.894 231.873 149.762 233.234 149.618 234.565C149.591 234.778 149.576 234.991 149.549 235.188C149.374 236.774 149.22 238.476 149.046 240.704L149.045 240.718C148.917 243.349 148.771 246.45 148.641 249.536C148.639 249.55 148.639 249.551 148.639 249.565C148.618 251.203 148.616 252.958 148.704 254.69C148.707 254.847 148.711 255.018 148.729 255.177C148.781 256.349 148.822 257.679 149.319 258.581C149.511 258.936 149.868 259.145 150.254 259.141C150.796 259.134 151.292 258.753 151.665 258.065C151.68 258.037 151.698 257.994 151.714 257.968C151.977 257.214 151.988 256.388 151.992 255.675C151.99 255.489 151.989 255.289 152 255.118C152.048 253.938 152.312 251.858 153.621 251.045C155.291 250.37 156.979 249.652 158.771 248.856C159.003 248.8 159.085 248.849 159.113 248.864C159.497 249.104 159.683 250.186 159.764 250.69C159.812 251.934 159.876 253.137 159.943 254.282C159.943 256.251 159.862 258.356 159.308 260.303C158.829 261.956 158.073 263.488 157.07 264.864C156.021 266.294 154.727 267.536 153.233 268.565C151.495 269.621 149.88 270.543 148.284 271.395C145.958 272.27 144.257 272.102 143.04 270.866Z" fill="#231F20"/>
<path d="M190.516 251.442C191.02 250.919 191.41 250.203 191.618 249.417C191.75 248.912 191.785 248.158 191.601 247.704C191.172 246.635 190.843 245.558 190.573 244.655C190.411 244.089 190.137 243.914 189.928 243.829C189.818 243.779 189.469 243.657 188.771 244.067C184.56 246.959 179.959 248.613 176.025 249.854C175.821 249.912 175.61 249.885 175.431 249.773C175.253 249.662 175.138 249.468 175.109 249.253C174.876 247.34 174.696 245.303 174.53 243.038C174.509 242.709 174.713 242.409 175.019 242.314C178.181 241.308 181.534 240.201 184.774 238.643C185.296 238.306 185.733 237.736 185.946 237.094C186.161 236.422 186.369 235.624 186.252 234.817V234.802C186.163 233.984 186.104 233.565 186.016 232.733C186.017 232.719 186.018 232.704 186.018 232.704C185.983 232.146 185.7 231.457 185.366 231.107C185.073 230.789 184.766 230.697 184.374 230.8C182.049 231.661 179.648 232.388 177.319 233.092C176.518 233.339 175.717 233.587 174.903 233.833C174.699 233.905 174.459 233.862 174.281 233.736C174.104 233.61 173.99 233.403 173.975 233.188C173.841 230.44 173.721 228.335 173.579 226.358C173.558 226.029 173.763 225.713 174.084 225.62C175.553 225.188 177.048 224.786 178.5 224.397C180.793 223.791 183.176 223.147 185.452 222.369C185.849 222.18 186.246 221.579 186.403 221.133C186.632 220.462 186.716 219.598 186.597 219.035L186.598 219.02C186.359 217.635 186.116 216.35 185.855 215.106L185.856 215.092C185.763 214.544 185.394 213.864 184.976 213.479C184.574 213.097 184.172 212.914 183.743 212.914C182.663 213.086 181.555 213.227 180.49 213.372C175.826 213.994 171.019 214.651 166.9 216.992C166.208 217.546 165.951 218.856 165.775 219.815C165.753 219.928 165.732 220.026 165.712 220.125C165.369 221.871 165.215 223.8 165.217 226.382C165.326 230.412 165.171 234.525 165.011 238.495C164.78 244.441 164.536 250.587 165.204 256.537C165.519 258.027 166.03 258.944 166.835 259.51C167.367 259.888 168.397 260.497 169.336 260.316C176.652 258.839 184.293 256.942 190.516 251.442Z" fill="#F9F4DA"/>
<path d="M191.941 244.246C191.698 243.374 191.193 242.799 190.442 242.508C189.705 242.217 188.885 242.335 188.007 242.877C187.993 242.875 187.992 242.89 187.977 242.903C184.198 245.495 180.059 247.065 176.414 248.253C176.254 246.774 176.114 245.209 175.982 243.518C178.939 242.569 182.28 241.447 185.431 239.941C185.447 239.928 185.476 239.915 185.49 239.902C186.323 239.386 186.978 238.544 187.299 237.552C187.549 236.784 187.816 235.746 187.661 234.637C187.57 233.833 187.527 233.416 187.436 232.612C187.38 231.724 186.961 230.726 186.386 230.132C185.718 229.432 184.878 229.193 183.962 229.447C183.948 229.446 183.919 229.458 183.904 229.471C181.609 230.319 179.221 231.049 176.907 231.753C176.397 231.905 175.873 232.071 175.364 232.222C175.257 230.147 175.155 228.444 175.046 226.838C176.325 226.466 177.617 226.122 178.88 225.791C181.217 225.173 183.627 224.531 185.962 223.729C185.977 223.716 186.006 223.717 186.02 223.703C186.872 223.331 187.505 222.374 187.77 221.607C188 220.923 188.203 219.766 188.024 218.799C187.787 217.4 187.544 216.1 187.269 214.841C187.111 214.004 186.601 213.058 185.984 212.461C185.286 211.787 184.48 211.464 183.663 211.51C183.635 211.509 183.621 211.508 183.592 211.52C182.51 211.692 181.403 211.833 180.324 211.977C175.518 212.62 170.552 213.294 166.18 215.79C166.151 215.802 166.135 215.815 166.105 215.842C164.951 216.708 164.629 218.356 164.393 219.567C164.372 219.666 164.35 219.779 164.331 219.863C163.968 221.708 163.807 223.723 163.818 226.405L163.817 226.42C163.927 230.406 163.761 234.49 163.603 238.445C163.368 244.449 163.119 250.666 163.807 256.731C163.805 256.759 163.818 256.775 163.816 256.802C164.09 258.077 164.571 259.663 166.017 260.684C166.712 261.171 167.69 261.706 168.756 261.775C169.039 261.795 169.326 261.785 169.63 261.718C177.117 260.224 184.976 258.27 191.473 252.503C191.488 252.489 191.503 252.476 191.504 252.463C192.207 251.752 192.709 250.829 192.991 249.792C193.179 249.105 193.265 248.013 192.919 247.177C192.529 246.153 192.198 245.119 191.941 244.246ZM166.865 259.498C166.06 258.932 165.563 258.015 165.232 256.524C164.565 250.575 164.809 244.429 165.041 238.481C165.2 234.513 165.355 230.4 165.247 226.37C165.245 223.788 165.384 221.857 165.741 220.111C165.761 220.013 165.782 219.915 165.804 219.802C165.98 218.843 166.237 217.534 166.93 216.98C171.048 214.639 175.87 213.998 180.519 213.359C181.583 213.215 182.693 213.059 183.772 212.902C184.187 212.886 184.589 213.069 185.005 213.467C185.408 213.863 185.777 214.545 185.885 215.079L185.884 215.093C186.145 216.336 186.389 217.623 186.627 219.008L186.625 219.021C186.732 219.585 186.647 220.449 186.432 221.12C186.273 221.58 185.879 222.168 185.481 222.356C183.205 223.135 180.823 223.764 178.529 224.385C177.077 224.774 175.582 225.176 174.113 225.608C173.793 225.701 173.588 226.002 173.608 226.346C173.75 228.323 173.868 230.443 174.004 233.176C174.018 233.39 174.133 233.598 174.31 233.724C174.488 233.848 174.714 233.877 174.932 233.821C175.733 233.574 176.533 233.326 177.348 233.08C179.676 232.376 182.064 231.648 184.403 230.787C184.795 230.685 185.089 230.775 185.395 231.095C185.729 231.444 186.012 232.134 186.047 232.692C186.046 232.706 186.046 232.721 186.046 232.721C186.134 233.553 186.178 233.971 186.281 234.79V234.804C186.398 235.625 186.19 236.41 185.974 237.081C185.761 237.722 185.325 238.294 184.803 238.63C181.564 240.188 178.21 241.295 175.048 242.302C174.729 242.395 174.523 242.71 174.559 243.025C174.725 245.29 174.92 247.329 175.138 249.239C175.167 249.456 175.283 249.635 175.461 249.76C175.639 249.872 175.865 249.901 176.055 249.842C180.002 248.602 184.589 246.947 188.801 244.055C189.499 243.63 189.846 243.767 189.958 243.817C190.18 243.903 190.439 244.077 190.603 244.643C190.871 245.546 191.215 246.624 191.63 247.692C191.815 248.146 191.78 248.899 191.647 249.405C191.439 250.19 191.049 250.907 190.545 251.429C184.322 256.943 176.68 258.827 169.38 260.291C168.426 260.484 167.396 259.876 166.865 259.498Z" fill="#231F20"/>
<rect width="208.095" height="90.0854" transform="matrix(-0.87727 0.479998 0.48007 0.87723 468.926 27.2891)" fill="#ED203D"/>
<path d="M392.264 147.904C392.76 149.031 392.817 150.246 392.435 151.549C392.101 152.826 391.257 153.896 389.905 154.757C386.197 157.091 383.102 158.936 380.623 160.293C378.143 161.65 375.155 163.133 371.658 164.742C368.957 165.916 366.986 165.536 365.744 163.601C365.262 162.831 364.652 161.828 363.914 160.59C363.15 159.306 362.453 158.198 361.821 157.267C361.237 156.31 360.557 155.679 359.782 155.373C359.053 155.042 358.128 155.184 357.005 155.798L351.742 158.679C350.619 159.293 349.977 160.009 349.816 160.826C349.702 161.618 349.868 162.531 350.312 163.565C350.803 164.573 351.383 165.745 352.053 167.08C352.698 168.369 353.215 169.424 353.603 170.245C354.564 172.333 353.821 174.198 351.376 175.841C348.136 177.918 345.112 179.724 342.305 181.261C339.544 182.771 336.182 184.459 332.217 186.324C330.762 186.999 329.383 187.146 328.08 186.764C326.824 186.357 325.855 185.642 325.172 184.617C322.545 180.704 318.734 174.187 313.741 165.064C308.748 155.941 305.602 149.971 304.304 147.155C302.981 144.293 302.378 142.191 302.495 140.85C302.587 139.462 303.615 138.231 305.58 137.156L322.704 127.785C324.342 126.889 326.029 126.695 327.766 127.204C329.551 127.687 330.929 128.817 331.902 130.595L339.968 145.332C340.89 147.016 342.076 147.461 343.526 146.668L351.316 142.405C352.767 141.611 353.031 140.372 352.109 138.688L344.043 123.951C343.07 122.173 342.838 120.416 343.346 118.678C343.902 116.916 344.998 115.586 346.635 114.69L362.847 105.819C364.812 104.744 366.404 104.541 367.622 105.212C368.815 105.836 370.26 107.477 371.958 110.135C373.63 112.746 376.963 118.613 381.956 127.736C386.949 136.859 390.385 143.582 392.264 147.904ZM414.683 118.582C417.551 123.822 420.365 125.687 423.126 124.176C425.886 122.666 425.833 119.291 422.965 114.051C421.659 111.665 420.379 109.994 419.127 109.038C417.848 108.035 416.39 107.982 414.753 108.878C413.115 109.774 412.374 111.031 412.53 112.648C412.66 114.218 413.378 116.196 414.683 118.582ZM445.001 101.992C451.966 114.718 446.723 125.855 429.271 135.405C411.82 144.954 399.612 143.366 392.647 130.641C389.344 124.606 389.006 118.711 391.632 112.957C394.259 107.203 399.853 101.984 408.415 97.2987C416.977 92.6136 424.39 90.7158 430.652 91.6053C436.915 92.4948 441.698 95.9572 445.001 101.992ZM450.6 88.5324C450.191 87.7839 449.471 87.6912 448.442 88.2545C446.617 89.2529 445.208 89.2336 444.215 88.1964C443.695 87.6906 443.089 86.8061 442.398 85.5429C441.706 84.2797 441.384 83.3012 441.43 82.6074C441.497 81.8412 441.957 81.0723 442.812 80.3007C443.687 79.4568 444.357 78.5131 444.819 77.4696C445.303 76.3538 446.219 74.0286 447.568 70.494C448.963 66.9338 449.973 64.5574 450.597 63.3648C451.268 62.1466 452.352 61.1278 453.849 60.3086L457.358 58.3884C458.995 57.4924 460.21 57.1013 461.002 57.2151C461.768 57.2822 462.382 57.7367 462.843 58.5789L466.491 65.2457C467.029 66.2281 467.719 66.489 468.561 66.0281L476.07 61.919C477.287 61.2534 478.293 61.0371 479.09 61.2701C479.933 61.4775 480.866 62.5169 481.891 64.3883C482.889 66.2129 483.249 67.5361 482.969 68.3579C482.689 69.1798 481.988 69.8979 480.865 70.5124L473.566 74.5063C472.911 74.8647 472.58 75.2589 472.572 75.6888C472.564 76.1187 472.726 76.6377 473.059 77.2459L477.668 85.6671C478.632 87.2066 479.947 88.2199 481.612 88.7071C483.324 89.1687 485.186 88.8491 487.198 87.7482C488.18 87.2106 489.256 86.2876 490.424 84.9793C491.567 83.6243 492.396 82.8059 492.911 82.5243C494.174 81.833 495.83 83.3588 497.879 87.1016C499.364 89.8151 499.535 91.8494 498.392 93.2044C497.176 94.5383 495.301 96.1115 492.767 97.9239C490.232 99.7363 487.608 101.385 484.895 102.87C482.181 104.355 479.469 105.565 476.759 106.501C474.07 107.364 471.412 107.785 468.786 107.763C463.601 107.621 459.242 104.322 455.709 97.866L450.6 88.5324Z" fill="#F9F4DA"/>
<path d="M392.264 147.904L390.43 148.701L390.433 148.708L392.264 147.904ZM392.435 151.549L390.516 150.987L390.508 151.015L390.5 151.042L392.435 151.549ZM389.905 154.757L390.97 156.45L390.98 156.444L389.905 154.757ZM371.658 164.742L372.456 166.576L372.475 166.568L372.495 166.559L371.658 164.742ZM365.744 163.601L364.049 164.662L364.055 164.672L364.061 164.681L365.744 163.601ZM363.914 160.59L362.195 161.612L362.196 161.614L363.914 160.59ZM361.821 157.267L360.114 158.309L360.139 158.349L360.166 158.389L361.821 157.267ZM359.782 155.373L358.954 157.194L359.001 157.215L359.049 157.234L359.782 155.373ZM349.816 160.826L347.854 160.441L347.844 160.491L347.837 160.542L349.816 160.826ZM350.312 163.565L348.474 164.354L348.493 164.398L348.514 164.44L350.312 163.565ZM352.053 167.08L353.842 166.186L353.841 166.183L352.053 167.08ZM353.603 170.245L355.42 169.409L355.416 169.399L355.411 169.389L353.603 170.245ZM351.376 175.841L352.456 177.524L352.474 177.513L352.491 177.501L351.376 175.841ZM332.217 186.324L333.058 188.139L333.069 188.134L332.217 186.324ZM328.08 186.764L327.464 188.667L327.491 188.676L327.519 188.684L328.08 186.764ZM325.172 184.617L326.837 183.508L326.832 183.502L325.172 184.617ZM304.304 147.155L306.121 146.318L306.12 146.316L304.304 147.155ZM302.495 140.85L304.487 141.024L304.489 141.003L304.491 140.982L302.495 140.85ZM327.766 127.204L327.205 129.123L327.224 129.129L327.244 129.134L327.766 127.204ZM343.346 118.678L341.439 118.078L341.433 118.097L341.427 118.117L343.346 118.678ZM367.622 105.212L366.657 106.964L366.676 106.974L366.695 106.984L367.622 105.212ZM371.958 110.135L370.272 111.212L370.274 111.214L371.958 110.135ZM390.433 148.708C390.719 149.359 390.779 150.086 390.516 150.987L394.355 152.111C394.854 150.406 394.8 148.702 394.095 147.099L390.433 148.708ZM390.5 151.042C390.32 151.732 389.854 152.419 388.83 153.071L390.98 156.444C392.661 155.373 393.882 153.921 394.37 152.056L390.5 151.042ZM388.84 153.065C385.149 155.387 382.093 157.208 379.663 158.538L381.583 162.047C384.112 160.663 387.244 158.795 390.97 156.45L388.84 153.065ZM379.663 158.538C377.235 159.867 374.29 161.329 370.822 162.925L372.495 166.559C376.019 164.936 379.051 163.432 381.583 162.047L379.663 158.538ZM370.861 162.908C369.716 163.406 368.977 163.459 368.533 163.374C368.164 163.303 367.8 163.101 367.428 162.521L364.061 164.681C364.93 166.036 366.172 166.992 367.775 167.301C369.302 167.596 370.899 167.253 372.456 166.576L370.861 162.908ZM367.439 162.54C366.968 161.787 366.366 160.797 365.632 159.566L362.196 161.614C362.938 162.858 363.556 163.875 364.049 164.662L367.439 162.54ZM365.633 159.568C364.855 158.26 364.136 157.117 363.477 156.144L360.166 158.389C360.769 159.279 361.445 160.351 362.195 161.612L365.633 159.568ZM363.528 156.224C362.794 155.023 361.815 154.025 360.515 153.512L359.049 157.234C359.299 157.333 359.679 157.596 360.114 158.309L363.528 156.224ZM360.609 153.552C359.032 152.836 357.386 153.31 356.045 154.044L357.965 157.553C358.392 157.319 358.679 157.233 358.844 157.208C358.99 157.186 359.001 157.215 358.954 157.194L360.609 153.552ZM356.045 154.044L350.781 156.924L352.702 160.433L357.965 157.553L356.045 154.044ZM350.781 156.924C349.419 157.669 348.179 158.786 347.854 160.441L351.779 161.212C351.78 161.208 351.789 161.143 351.907 161.011C352.036 160.868 352.277 160.665 352.702 160.433L350.781 156.924ZM347.837 160.542C347.653 161.817 347.941 163.113 348.474 164.354L352.149 162.775C351.794 161.949 351.752 161.419 351.796 161.111L347.837 160.542ZM348.514 164.44C349.009 165.457 349.593 166.636 350.266 167.977L353.841 166.183C353.173 164.853 352.597 163.688 352.11 162.689L348.514 164.44ZM350.265 167.975C350.906 169.257 351.415 170.297 351.795 171.1L355.411 169.389C355.014 168.55 354.49 167.481 353.842 166.186L350.265 167.975ZM351.786 171.08C352.074 171.706 352.047 172.122 351.909 172.471C351.741 172.891 351.297 173.484 350.261 174.18L352.491 177.501C353.9 176.555 355.05 175.395 355.625 173.95C356.229 172.433 356.093 170.872 355.42 169.409L351.786 171.08ZM350.297 174.157C347.088 176.214 344.104 177.996 341.344 179.506L343.265 183.015C346.12 181.453 349.184 179.622 352.456 177.524L350.297 174.157ZM341.344 179.506C338.63 180.991 335.306 182.661 331.365 184.515L333.069 188.134C337.057 186.257 340.458 184.551 343.265 183.015L341.344 179.506ZM331.376 184.51C330.276 185.02 329.398 185.066 328.642 184.845L327.519 188.684C329.368 189.225 331.248 188.978 333.058 188.139L331.376 184.51ZM328.697 184.862C327.836 184.583 327.251 184.13 326.837 183.508L323.507 185.725C324.459 187.153 325.812 188.132 327.464 188.667L328.697 184.862ZM326.832 183.502C324.259 179.67 320.486 173.221 315.496 164.104L311.987 166.024C316.983 175.152 320.83 181.739 323.512 185.732L326.832 183.502ZM315.496 164.104C310.494 154.966 307.384 149.06 306.121 146.318L302.488 147.993C303.82 150.883 307.002 156.916 311.987 166.024L315.496 164.104ZM306.12 146.316C305.484 144.941 305.046 143.8 304.782 142.881C304.511 141.937 304.459 141.346 304.487 141.024L300.503 140.676C300.413 141.695 300.605 142.826 300.937 143.984C301.276 145.166 301.801 146.507 302.489 147.995L306.12 146.316ZM304.491 140.982C304.515 140.618 304.796 139.865 306.54 138.91L304.62 135.401C302.434 136.597 300.659 138.307 300.499 140.718L304.491 140.982ZM306.54 138.91L323.664 129.54L321.744 126.031L304.62 135.401L306.54 138.91ZM323.664 129.54C324.853 128.889 325.994 128.769 327.205 129.123L328.328 125.284C326.064 124.622 323.83 124.889 321.744 126.031L323.664 129.54ZM327.244 129.134C328.449 129.46 329.408 130.204 330.148 131.555L333.657 129.635C332.45 127.43 330.652 125.913 328.289 125.273L327.244 129.134ZM330.148 131.555L338.214 146.292L341.723 144.372L333.657 129.635L330.148 131.555ZM338.214 146.292C338.79 147.346 339.623 148.342 340.846 148.801C342.14 149.287 343.417 149.008 344.487 148.422L342.566 144.913C342.369 145.021 342.259 145.044 342.226 145.048C342.206 145.051 342.225 145.047 342.252 145.057C342.289 145.071 342.068 145.002 341.723 144.372L338.214 146.292ZM344.487 148.422L352.277 144.159L350.356 140.651L342.566 144.913L344.487 148.422ZM352.277 144.159C353.346 143.574 354.27 142.649 354.558 141.298C354.831 140.021 354.44 138.782 353.864 137.728L350.355 139.648C350.7 140.279 350.638 140.502 350.646 140.463C350.652 140.436 350.666 140.421 350.653 140.437C350.631 140.462 350.553 140.543 350.356 140.651L352.277 144.159ZM353.864 137.728L345.798 122.991L342.289 124.911L350.355 139.648L353.864 137.728ZM345.798 122.991C345.046 121.618 344.925 120.405 345.266 119.24L341.427 118.117C340.751 120.426 341.094 122.729 342.289 124.911L345.798 122.991ZM345.254 119.279C345.652 118.014 346.406 117.095 347.596 116.444L345.675 112.936C343.59 114.077 342.151 115.817 341.439 118.078L345.254 119.279ZM347.596 116.444L363.807 107.573L361.887 104.065L345.675 112.936L347.596 116.444ZM363.807 107.573C365.552 106.619 366.338 106.788 366.657 106.964L368.587 103.46C366.469 102.295 364.072 102.869 361.887 104.065L363.807 107.573ZM366.695 106.984C366.981 107.134 367.451 107.496 368.1 108.233C368.732 108.951 369.457 109.935 370.272 111.212L373.643 109.059C372.761 107.678 371.914 106.512 371.101 105.589C370.305 104.685 369.456 103.915 368.549 103.44L366.695 106.984ZM370.274 111.214C371.902 113.756 375.2 119.558 380.202 128.696L383.71 126.776C378.726 117.668 375.359 111.737 373.642 109.057L370.274 111.214ZM380.202 128.696C385.192 137.814 388.59 144.468 390.43 148.701L394.098 147.106C392.181 142.695 388.707 135.905 383.71 126.776L380.202 128.696ZM419.127 109.038L417.892 110.611L417.903 110.62L417.913 110.628L419.127 109.038ZM412.53 112.648L414.523 112.483L414.522 112.47L414.521 112.456L412.53 112.648ZM391.632 112.957L393.452 113.788L393.452 113.788L391.632 112.957ZM430.652 91.6053L430.934 89.6252L430.934 89.6252L430.652 91.6053ZM412.929 119.542C414.416 122.259 416.027 124.377 417.84 125.578C418.775 126.197 419.807 126.602 420.919 126.672C422.04 126.744 423.107 126.467 424.086 125.931L422.166 122.422C421.764 122.642 421.445 122.698 421.172 122.681C420.891 122.663 420.522 122.557 420.05 122.244C419.049 121.58 417.819 120.145 416.438 117.622L412.929 119.542ZM424.086 125.931C425.065 125.395 425.874 124.646 426.418 123.663C426.958 122.688 427.174 121.601 427.156 120.48C427.121 118.306 426.206 115.808 424.719 113.091L421.21 115.011C422.591 117.534 423.137 119.343 423.156 120.544C423.165 121.111 423.056 121.478 422.919 121.725C422.787 121.964 422.567 122.202 422.166 122.422L424.086 125.931ZM424.719 113.091C423.363 110.612 421.921 108.655 420.34 107.448L417.913 110.628C418.838 111.333 419.955 112.717 421.21 115.011L424.719 113.091ZM420.361 107.464C419.429 106.733 418.346 106.291 417.147 106.247C415.971 106.204 414.841 106.55 413.793 107.123L415.713 110.632C416.303 110.31 416.72 110.234 417.001 110.244C417.26 110.254 417.546 110.34 417.892 110.611L420.361 107.464ZM413.793 107.123C412.745 107.697 411.844 108.462 411.246 109.477C410.637 110.51 410.425 111.66 410.539 112.839L414.521 112.456C414.479 112.018 414.56 111.732 414.692 111.508C414.835 111.266 415.123 110.955 415.713 110.632L413.793 107.123ZM410.536 112.813C410.7 114.795 411.572 117.064 412.929 119.542L416.438 117.622C415.183 115.329 414.619 113.642 414.523 112.483L410.536 112.813ZM443.247 102.952C446.484 108.868 446.781 114.155 444.483 119.038C442.122 124.052 436.876 128.964 428.311 133.65L430.231 137.159C439.118 132.296 445.219 126.865 448.102 120.741C451.047 114.487 450.483 107.842 446.756 101.032L443.247 102.952ZM428.311 133.65C419.746 138.337 412.781 140.108 407.284 139.393C401.932 138.696 397.639 135.597 394.401 129.681L390.892 131.601C394.619 138.41 399.913 142.467 406.769 143.359C413.481 144.232 421.345 142.022 430.231 137.159L428.311 133.65ZM394.401 129.681C391.37 124.143 391.113 118.912 393.452 113.788L389.813 112.127C386.899 118.51 387.317 125.069 390.892 131.601L394.401 129.681ZM393.452 113.788C395.826 108.588 400.999 103.637 409.376 99.0531L407.455 95.5443C398.708 100.331 392.693 105.819 389.813 112.127L393.452 113.788ZM409.376 99.0531C417.752 94.4695 424.712 92.7815 430.371 93.5853L430.934 89.6252C424.068 88.65 416.203 90.7576 407.455 95.5443L409.376 99.0531ZM430.371 93.5853C435.949 94.3775 440.216 97.4143 443.247 102.952L446.756 101.032C443.181 94.5001 437.882 90.6121 430.934 89.6252L430.371 93.5853ZM444.215 88.1964L445.659 86.8132L445.635 86.7876L445.609 86.7628L444.215 88.1964ZM441.43 82.6074L439.437 82.433L439.435 82.4542L439.434 82.4755L441.43 82.6074ZM442.812 80.3007L444.152 81.785L444.176 81.7633L444.2 81.7407L442.812 80.3007ZM444.819 77.4696L446.648 78.2801L446.651 78.2726L446.654 78.2651L444.819 77.4696ZM447.568 70.494L445.705 69.7642L445.702 69.7726L445.699 69.7811L447.568 70.494ZM450.597 63.3648L448.845 62.4001L448.834 62.4187L448.825 62.4376L450.597 63.3648ZM461.002 57.2151L460.717 59.1947L460.772 59.2026L460.828 59.2074L461.002 57.2151ZM479.09 61.2701L478.528 63.1895L478.57 63.2017L478.612 63.2121L479.09 61.2701ZM482.969 68.3579L481.076 67.7134L481.076 67.7134L482.969 68.3579ZM477.668 85.6671L475.914 86.6272L475.942 86.6788L475.973 86.7286L477.668 85.6671ZM481.612 88.7071L481.05 90.6266L481.071 90.6325L481.091 90.6381L481.612 88.7071ZM490.424 84.9793L491.916 86.3117L491.935 86.2905L491.953 86.2689L490.424 84.9793ZM498.392 93.2044L499.87 94.5515L499.896 94.5232L499.92 94.494L498.392 93.2044ZM492.767 97.9239L491.603 96.2971L491.603 96.2971L492.767 97.9239ZM476.759 106.501L477.371 108.405L477.391 108.398L477.412 108.391L476.759 106.501ZM468.786 107.763L468.731 109.762L468.75 109.763L468.769 109.763L468.786 107.763ZM452.355 87.5724C451.904 86.7494 451.121 86.0612 450.009 85.918C449.042 85.7935 448.157 86.1306 447.482 86.5L449.402 90.0089C449.559 89.9232 449.648 89.8938 449.675 89.8862C449.702 89.8791 449.633 89.9025 449.498 89.8851C449.348 89.8658 449.183 89.8041 449.04 89.6977C448.907 89.5986 448.853 89.5052 448.846 89.4925L452.355 87.5724ZM447.482 86.5C446.738 86.907 446.278 86.9923 446.044 86.9891C445.887 86.9869 445.793 86.9531 445.659 86.8132L442.77 89.5796C443.63 90.4769 444.737 90.9713 445.989 90.9885C447.164 91.0047 448.321 90.6004 449.402 90.0089L447.482 86.5ZM445.609 86.7628C445.312 86.4739 444.823 85.8077 444.152 84.5829L440.643 86.503C441.356 87.8045 442.077 88.9073 442.82 89.63L445.609 86.7628ZM444.152 84.5829C443.844 84.0194 443.648 83.5738 443.537 83.2353C443.421 82.8834 443.425 82.7372 443.425 82.7393L439.434 82.4755C439.348 83.7801 439.927 85.1951 440.643 86.503L444.152 84.5829ZM443.422 82.7817C443.427 82.7193 443.491 82.3826 444.152 81.785L441.471 78.8164C440.424 79.762 439.566 80.963 439.437 82.433L443.422 82.7817ZM444.2 81.7407C445.249 80.7292 446.074 79.575 446.648 78.2801L442.991 76.6592C442.64 77.4511 442.126 78.1843 441.424 78.8607L444.2 81.7407ZM446.654 78.2651C447.159 77.1012 448.091 74.7335 449.436 71.207L445.699 69.7811C444.347 73.3237 443.447 75.6064 442.984 76.6742L446.654 78.2651ZM449.43 71.2239C450.83 67.6508 451.803 65.3737 452.369 64.292L448.825 62.4376C448.142 63.7411 447.096 66.2168 445.705 69.7642L449.43 71.2239ZM452.349 64.3295C452.798 63.513 453.569 62.7413 454.809 62.063L452.888 58.5542C451.134 59.5144 449.737 60.7802 448.845 62.4001L452.349 64.3295ZM454.809 62.063L458.318 60.1429L456.397 56.634L452.888 58.5542L454.809 62.063ZM458.318 60.1429C459.072 59.7303 459.664 59.4703 460.11 59.3267C460.581 59.1749 460.749 59.1993 460.717 59.1947L461.286 55.2355C460.462 55.1171 459.627 55.2801 458.884 55.5194C458.115 55.7669 457.281 56.1505 456.397 56.634L458.318 60.1429ZM460.828 59.2074C460.845 59.2089 460.847 59.211 460.841 59.2088C460.835 59.2065 460.836 59.2055 460.846 59.2132C460.869 59.2299 460.962 59.3084 461.088 59.5389L464.597 57.6188C463.905 56.3551 462.776 55.3628 461.176 55.2228L460.828 59.2074ZM461.088 59.5389L464.737 66.2057L468.246 64.2856L464.597 57.6188L461.088 59.5389ZM464.737 66.2057C465.121 66.9069 465.732 67.6811 466.705 68.0488C467.75 68.4441 468.753 68.2029 469.521 67.7826L467.601 64.2737C467.557 64.2977 467.593 64.2692 467.699 64.2553C467.818 64.2398 467.969 64.2507 468.119 64.3074C468.261 64.3611 468.334 64.4299 468.346 64.4421C468.354 64.45 468.315 64.4116 468.246 64.2856L464.737 66.2057ZM469.521 67.7826L477.031 63.6735L475.11 60.1646L467.601 64.2737L469.521 67.7826ZM477.031 63.6735C478.077 63.101 478.492 63.1789 478.528 63.1895L479.651 59.3506C478.095 58.8952 476.497 59.4058 475.11 60.1646L477.031 63.6735ZM478.612 63.2121C478.472 63.1776 478.586 63.1542 478.934 63.5416C479.259 63.9032 479.664 64.485 480.136 65.3483L483.645 63.4282C483.093 62.4201 482.519 61.5465 481.91 60.8688C481.324 60.2167 480.551 59.5699 479.567 59.3281L478.612 63.2121ZM480.136 65.3483C480.594 66.1858 480.856 66.8198 480.979 67.2733C481.11 67.7553 481.032 67.8402 481.076 67.7134L484.862 69.0025C485.185 68.0538 485.068 67.0661 484.839 66.225C484.603 65.3552 484.185 64.4153 483.645 63.4282L480.136 65.3483ZM481.076 67.7134C481.019 67.8795 480.793 68.2718 479.905 68.758L481.825 72.2668C483.182 71.5241 484.359 70.4801 484.862 69.0025L481.076 67.7134ZM479.905 68.758L472.606 72.7518L474.526 76.2607L481.825 72.2668L479.905 68.758ZM472.606 72.7518C471.795 73.1959 470.601 74.0924 470.572 75.6519L474.572 75.7256C474.569 75.876 474.537 76.016 474.488 76.1346C474.441 76.2492 474.387 76.3227 474.357 76.3579C474.309 76.4155 474.327 76.3698 474.526 76.2607L472.606 72.7518ZM470.572 75.6519C470.555 76.5811 470.897 77.4605 471.305 78.206L474.814 76.2858C474.694 76.0675 474.629 75.9082 474.596 75.8031C474.563 75.6969 474.572 75.6774 474.572 75.7256L470.572 75.6519ZM471.305 78.206L475.914 86.6272L479.423 84.7071L474.814 76.2858L471.305 78.206ZM475.973 86.7286C477.184 88.6618 478.892 89.9949 481.05 90.6266L482.174 86.7877C481.002 86.445 480.081 85.7514 479.363 84.6057L475.973 86.7286ZM481.091 90.6381C483.435 91.2699 485.831 90.7757 488.158 89.5026L486.237 85.9938C484.54 86.9225 483.213 87.0675 482.133 86.7762L481.091 90.6381ZM488.158 89.5026C489.42 88.8117 490.671 87.7048 491.916 86.3117L488.933 83.647C487.84 84.8704 486.94 85.6094 486.237 85.9938L488.158 89.5026ZM491.953 86.2689C492.504 85.6165 492.953 85.1231 493.309 84.7724C493.486 84.5977 493.626 84.4712 493.733 84.3836C493.846 84.291 493.889 84.2689 493.871 84.2787L491.951 80.7699C491.439 81.0497 490.942 81.4881 490.498 81.9261C490.024 82.3938 489.488 82.9871 488.896 83.6898L491.953 86.2689ZM493.871 84.2787C493.35 84.5638 493.131 84.0548 493.745 84.6209C494.328 85.1579 495.128 86.2423 496.124 88.0616L499.633 86.1415C498.58 84.2181 497.529 82.6682 496.456 81.6795C495.414 80.7198 493.735 79.7935 491.951 80.7699L493.871 84.2787ZM496.124 88.0616C497.535 90.6387 497.144 91.582 496.863 91.9149L499.92 94.494C501.926 92.1167 501.193 88.9914 499.633 86.1415L496.124 88.0616ZM496.913 91.8574C495.837 93.0388 494.093 94.5168 491.603 96.2971L493.93 99.5506C496.509 97.7062 498.516 96.0379 499.87 94.5515L496.913 91.8574ZM491.603 96.2971C489.134 98.0633 486.577 99.6692 483.935 101.115L485.855 104.624C488.639 103.101 491.331 101.409 493.93 99.5506L491.603 96.2971ZM483.935 101.115C481.312 102.551 478.702 103.714 476.106 104.611L477.412 108.391C480.236 107.416 483.051 106.159 485.855 104.624L483.935 101.115ZM476.147 104.597C473.646 105.4 471.2 105.783 468.803 105.763L468.769 109.763C471.624 109.787 474.494 109.329 477.371 108.405L476.147 104.597ZM468.841 105.764C464.645 105.649 460.814 103.028 457.463 96.9059L453.954 98.826C457.67 105.616 462.558 109.593 468.731 109.762L468.841 105.764ZM457.463 96.9059L452.355 87.5724L448.846 89.4925L453.954 98.826L457.463 96.9059Z" fill="black"/>
</svg>
